SplineFontDB: 3.2
FontName: NasinSitelenPuMono
FullName: nasin sitelen pu pi suli sama
FamilyName: NasinSitelenPuMono
Weight: Book
Copyright: nasin sitelen pu tan jan Juli\n\nBased on ComicSpice by Deevad and glyphs from 'Toki Pona: The Language of Good' by Sonja Lang (2014)\n\nComicSpice is based on a fork of "Comic Relief"\nmade by David Revoy (Deevad, info@davidrevoy.com) in Nov,2016.\n\noriginal font is copyrighted (c) 2013, Jeff Davis (info@loudifier.com),\nwith Reserved Font Name "Comic Relief". Also, some accent from the font\n"Patrick Hand" by Patrick Wagesreiter, same license were used for \nlatin-extended. \n\nThis Font Software is licensed under the SIL Open Font License, Version 1.1.\nThis license is copied below, and is also available with a FAQ at:\nhttp://scripts.sil.org/OFL\n\n\n
Version: 1.0
ItalicAngle: 0
UnderlinePosition: -533
UnderlineWidth: 175
Ascent: 1638
Descent: 410
InvalidEm: 0
sfntRevision: 0x00010000
LayerCount: 2
Layer: 0 1 "Back" 1
Layer: 1 1 "Fore" 0
XUID: [1021 290 -1125297956 8200486]
StyleMap: 0x0040
FSType: 8
OS2Version: 2
OS2_WeightWidthSlopeOnly: 0
OS2_UseTypoMetrics: 0
CreationTime: 1358538608
ModificationTime: 1648216678
PfmFamily: 65
TTFWeight: 400
TTFWidth: 5
LineGap: 0
VLineGap: 0
Panose: 3 15 7 2 3 3 2 2 2 4
OS2TypoAscent: 1638
OS2TypoAOffset: 0
OS2TypoDescent: -597
OS2TypoDOffset: 0
OS2TypoLinegap: 0
OS2WinAscent: 2257
OS2WinAOffset: 0
OS2WinDescent: 599
OS2WinDOffset: 0
HheadAscent: 2257
HheadAOffset: 0
HheadDescent: -599
HheadDOffset: 0
OS2SubXSize: 1434
OS2SubYSize: 1331
OS2SubXOff: 0
OS2SubYOff: 293
OS2SupXSize: 1434
OS2SupYSize: 1331
OS2SupXOff: 0
OS2SupYOff: 928
OS2StrikeYSize: 175
OS2StrikeYPos: 630
OS2Vendor: 'LOUD'
OS2CodePages: 2000009f.00000000
OS2UnicodeRanges: 00000287.00000000.00000000.00000000
Lookup: 1 0 0 "'locl' Localized Forms in Latin lookup 0" { "'locl' Localized Forms in Latin lookup 0 subtable"  } ['locl' ('latn' <'LTH ' > ) ]

StartChar: .notdef
Encoding: 65536 -1 0
Width: 1800
Flags: W
LayerCount: 2
Fore
SplineSet
701.5 0 m 1,0,-1
 701.5 1365 l 1,1,-1
 1098.5 1365 l 1,2,-1
 1098.5 0 l 1,3,-1
 701.5 0 l 1,0,-1
769.5 68 m 1,4,-1
 1030.5 68 l 1,5,-1
 1030.5 1297 l 1,6,-1
 769.5 1297 l 1,7,-1
 769.5 68 l 1,4,-1
EndSplineSet
EndChar

StartChar: glyph1
Encoding: 65537 -1 1
Width: 1800
GlyphClass: 2
Flags: W
LayerCount: 2
Fore
SplineSet
1121.98046875 1049 m 0,0,1
 1224.98046875 1049 1224.98046875 1049 1222.98046875 939 c 2,2,-1
 1205.98046875 -231 l 2,3,4
 1205.98046875 -235 1205.98046875 -235 1205.98046875 -238 c 0,5,6
 1205.98046875 -603 1205.98046875 -603 938.98046875 -603 c 0,7,8
 930.98046875 -603 930.98046875 -603 922.98046875 -603 c 0,9,10
 715.98046875 -593 715.98046875 -593 619.98046875 -372 c 0,11,12
 576.98046875 -274 576.98046875 -274 576.98046875 -214 c 0,13,14
 576.98046875 -145 576.98046875 -145 634.98046875 -129 c 0,15,16
 659.98046875 -122 659.98046875 -122 680.98046875 -122 c 0,17,18
 770.98046875 -122 770.98046875 -122 796.98046875 -249 c 0,19,20
 824.98046875 -387 824.98046875 -387 924.98046875 -387 c 0,21,22
 998.98046875 -387 998.98046875 -387 1001.98046875 -231 c 2,23,-1
 1023.98046875 939 l 2,24,25
 1025.98046875 1049 1025.98046875 1049 1121.98046875 1049 c 0,0,1
EndSplineSet
EndChar

StartChar: glyph2
Encoding: 65538 -1 2
Width: 1800
GlyphClass: 2
Flags: W
LayerCount: 2
Fore
SplineSet
594 735 m 2,0,-1
 1171 737 l 2,1,2
 1322 737 1322 737 1323 661 c 0,3,4
 1323 584 1323 584 1179 584 c 2,5,-1
 583 584 l 2,6,7
 477 584 477 584 477 658 c 0,8,9
 477 735 477 735 594 735 c 2,0,-1
EndSplineSet
EndChar

StartChar: exclam
Encoding: 33 33 4
Width: 1800
GlyphClass: 2
Flags: W
LayerCount: 2
Fore
SplineSet
869 181 m 0,0,1
 884 185 884 185 900 184 c 0,2,3
 917 184 917 184 933 180 c 0,4,5
 964 171 964 171 987 148 c 0,6,7
 1014 123 1014 123 1020 93 c 0,8,9
 1023 77 1023 77 1024 60 c 0,10,11
 1024 40 1024 40 1021 29 c 0,12,13
 1011 -8 1011 -8 984 -33 c 0,14,15
 956 -58 956 -58 917 -63 c 0,16,17
 909 -64 909 -64 900 -65 c 0,18,19
 871 -65 871 -65 846 -52 c 0,20,21
 812 -36 812 -36 793 -3 c 0,22,23
 776 26 776 26 776 60 c 0,24,25
 776 85 776 85 785 108 c 0,26,27
 796 135 796 135 819 154 c 0,28,29
 839 173 839 173 869 181 c 0,0,1
910 1606 m 0,30,31
 999 1606 999 1606 999 1516 c 2,32,-1
 998 394 l 2,33,34
 998 314 998 314 907 314 c 0,35,36
 905 314 905 314 903 314 c 0,37,38
 822 312 822 312 822 400 c 2,39,-1
 821 1518 l 2,40,41
 821 1519 821 1519 821 1520 c 0,42,43
 820 1608 820 1608 906 1606 c 0,44,45
 908 1606 908 1606 910 1606 c 0,30,31
EndSplineSet
EndChar

StartChar: quotedbl
Encoding: 34 34 5
Width: 1800
GlyphClass: 2
Flags: W
LayerCount: 2
Fore
SplineSet
717 1588 m 0,0,1
 805 1583 805 1583 805 1489 c 0,2,3
 805 1486 805 1486 805 1483 c 2,4,-1
 792 1028 l 2,5,6
 789 932 789 932 708 932 c 2,7,-1
 706 932 l 2,8,9
 615 933 615 933 615 1024 c 0,10,11
 615 1027 615 1027 615 1030 c 2,12,-1
 629 1477 l 2,13,14
 633 1588 633 1588 713 1588 c 0,15,16
 715 1588 715 1588 717 1588 c 0,0,1
1097 1584 m 0,17,18
 1185 1579 1185 1579 1185 1485 c 0,19,20
 1185 1482 1185 1482 1185 1479 c 2,21,-1
 1172 1024 l 2,22,23
 1169 928 1169 928 1088 928 c 2,24,-1
 1086 928 l 2,25,26
 995 929 995 929 995 1020 c 0,27,28
 995 1023 995 1023 995 1026 c 2,29,-1
 1009 1473 l 2,30,31
 1013 1584 1013 1584 1093 1584 c 0,32,33
 1095 1584 1095 1584 1097 1584 c 0,17,18
EndSplineSet
EndChar

StartChar: numbersign
Encoding: 35 35 6
Width: 1800
GlyphClass: 2
Flags: W
LayerCount: 2
Fore
SplineSet
371.508789062 1092 m 0,0,1
 373.508789062 1167 373.508789062 1167 507.508789062 1167 c 0,2,3
 601.508789062 1167 601.508789062 1167 690.508789062 1167 c 1,4,-1
 746.508789062 1468 l 2,5,6
 768.508789062 1581 768.508789062 1581 819.508789062 1554 c 0,7,8
 876.508789062 1524 876.508789062 1524 852.508789062 1394 c 2,9,-1
 809.508789062 1168 l 1,10,11
 968.508789062 1168 968.508789062 1168 1127.50878906 1168 c 1,12,-1
 1184.50878906 1468 l 2,13,14
 1205.50878906 1581 1205.50878906 1581 1256.50878906 1554 c 1,15,16
 1332.50878906 1524 1332.50878906 1524 1294.50878906 1394 c 1,17,-1
 1246.50878906 1169 l 1,18,-1
 1410.50878906 1169 l 2,19,20
 1528.50878906 1169 1528.50878906 1169 1525.50878906 1085 c 0,21,22
 1521.50878906 990 1521.50878906 990 1386.50878906 990 c 0,23,24
 1280.50878906 990 1280.50878906 990 1212.50878906 990 c 1,25,-1
 1134.50878906 575 l 1,26,-1
 1313.50878906 575 l 2,27,28
 1431.50878906 575 1431.50878906 575 1428.50878906 491 c 0,29,30
 1424.50878906 396 1424.50878906 396 1289.50878906 396 c 0,31,32
 1193.50878906 396 1193.50878906 396 1100.50878906 397 c 1,33,-1
 1043.50878906 98 l 2,34,35
 1026.50878906 8 1026.50878906 8 966.508789062 39 c 0,36,37
 920.508789062 62 920.508789062 62 944.508789062 190 c 2,38,-1
 983.508789062 397 l 1,39,-1
 663.508789062 398 l 1,40,-1
 606.508789062 98 l 2,41,42
 589.508789062 8 589.508789062 8 529.508789062 39 c 1,43,44
 463.508789062 62 463.508789062 62 500.508789062 190 c 1,45,-1
 546.508789062 399 l 1,46,-1
 365.508789062 399 l 2,47,48
 271.508789062 399 271.508789062 399 274.508789062 498 c 0,49,50
 276.508789062 573 276.508789062 573 410.508789062 573 c 2,51,-1
 579.508789062 573 l 1,52,-1
 657.508789062 992 l 1,53,-1
 462.508789062 993 l 2,54,55
 368.508789062 993 368.508789062 993 371.508789062 1092 c 0,0,1
696.508789062 574 m 1,56,-1
 1016.50878906 574 l 1,57,-1
 1094.50878906 991 l 1,58,-1
 776.508789062 992 l 1,59,-1
 696.508789062 574 l 1,56,-1
EndSplineSet
EndChar

StartChar: dollar
Encoding: 36 36 7
Width: 1800
GlyphClass: 2
Flags: W
LayerCount: 2
Fore
SplineSet
904.450195312 1715 m 0,0,1
 990.450195312 1716 990.450195312 1716 990.450195312 1638 c 2,2,-1
 991.450195312 1477 l 2,3,4
 995.450195312 1477 995.450195312 1477 999.450195312 1477 c 0,5,6
 1099.45019531 1477 1099.45019531 1477 1255.45019531 1394 c 1,7,8
 1319.45019531 1365 1319.45019531 1365 1319.45019531 1295 c 0,9,10
 1319.45019531 1254 1319.45019531 1254 1260.45019531 1229 c 0,11,12
 1208.45019531 1209 1208.45019531 1209 1135.45019531 1241 c 1,13,14
 1055.45019531 1290 1055.45019531 1290 991.450195312 1290 c 1,15,16
 991.450195312 1059 991.450195312 1059 991.450195312 827 c 1,17,18
 1011.45019531 825 1011.45019531 825 1031.45019531 823 c 0,19,20
 1197.45019531 799 1197.45019531 799 1279.45019531 714 c 0,21,22
 1405.45019531 584 1405.45019531 584 1396.45019531 423 c 0,23,24
 1382.45019531 175 1382.45019531 175 1140.45019531 32 c 1,25,26
 1076.45019531 -27 1076.45019531 -27 991.450195312 -49 c 1,27,-1
 991.450195312 -247 l 2,28,29
 991.450195312 -361 991.450195312 -361 904.450195312 -361 c 0,30,31
 820.450195312 -360 820.450195312 -360 819.450195312 -246 c 0,32,33
 819.450195312 -155 819.450195312 -155 818.450195312 -64 c 1,34,35
 818.450195312 -64 818.450195312 -64 817.450195312 -64 c 0,36,37
 702.450195312 -65 702.450195312 -65 612.450195312 -15 c 1,38,39
 532.450195312 18 532.450195312 18 476.450195312 67 c 0,40,41
 392.450195312 140 392.450195312 140 404.450195312 217 c 0,42,43
 414.450195312 284 414.450195312 284 464.450195312 305 c 0,44,45
 529.450195312 332 529.450195312 332 610.450195312 245 c 1,46,47
 663.450195312 180 663.450195312 180 713.450195312 151 c 0,48,49
 765.450195312 122 765.450195312 122 818.450195312 120 c 1,50,-1
 816.450195312 635 l 1,51,52
 564.450195312 640 564.450195312 640 498.450195312 909 c 0,53,54
 460.450195312 1064 460.450195312 1064 548.450195312 1217 c 0,55,56
 612.450195312 1328 612.450195312 1328 738.450195312 1411 c 0,57,58
 775.450195312 1438 775.450195312 1438 815.450195312 1454 c 1,59,60
 815.450195312 1546 815.450195312 1546 815.450195312 1638 c 0,61,62
 815.450195312 1714 815.450195312 1714 904.450195312 1715 c 0,0,1
991.450195312 631 m 1,63,-1
 991.450195312 144 l 1,64,65
 1072.45019531 176 1072.45019531 176 1106.45019531 227 c 1,66,67
 1216.45019531 356 1216.45019531 356 1178.45019531 495 c 0,68,69
 1147.45019531 610 1147.45019531 610 991.450195312 631 c 1,63,-1
816.450195312 837 m 1,70,-1
 816.450195312 1262 l 1,71,72
 777.450195312 1242 777.450195312 1242 750.450195312 1209 c 0,73,74
 690.450195312 1136 690.450195312 1136 683.450195312 1045 c 0,75,76
 672.450195312 866 672.450195312 866 775.450195312 841 c 1,77,-1
 816.450195312 837 l 1,70,-1
EndSplineSet
EndChar

StartChar: percent
Encoding: 37 37 8
Width: 1800
GlyphClass: 2
Flags: W
LayerCount: 2
Fore
SplineSet
1250.5 1609 m 0,0,1
 1294.5 1574 1294.5 1574 1275.5 1509 c 1,2,-1
 616.5 -32 l 2,3,4
 578.5 -114 578.5 -114 497 -77.5 c 128,-1,5
 415.5 -41 415.5 -41 453.5 40 c 2,6,-1
 1180.5 1582 l 1,7,8
 1202.5 1647 1202.5 1647 1250.5 1609 c 0,0,1
433.5 1621 m 0,9,10
 481.5 1638 481.5 1638 533.5 1638 c 0,11,12
 560.5 1638 560.5 1638 585.5 1633 c 0,13,14
 666.5 1618 666.5 1618 725.5 1568 c 0,15,16
 786.5 1516 786.5 1516 812.5 1443 c 0,17,18
 830.5 1394 830.5 1394 830.5 1341 c 0,19,20
 830.5 1316 830.5 1316 825.5 1291 c 0,21,22
 811.5 1210 811.5 1210 758.5 1149 c 0,23,24
 705.5 1087 705.5 1087 628.5 1061 c 0,25,26
 582.5 1045 582.5 1045 532.5 1045 c 0,27,28
 501.5 1045 501.5 1045 471.5 1051 c 0,29,30
 391.5 1068 391.5 1068 331.5 1123 c 0,31,32
 273.5 1176 273.5 1176 250.5 1250 c 0,33,34
 236.5 1294 236.5 1294 235.5 1342 c 0,35,36
 235.5 1372 235.5 1372 241.5 1401 c 0,37,38
 257.5 1480 257.5 1480 308.5 1536 c 0,39,40
 361.5 1595 361.5 1595 433.5 1621 c 0,9,10
535.5 1192 m 2,41,42
 577.5 1192 577.5 1192 612.5 1214 c 0,43,44
 648.5 1236 648.5 1236 668.5 1272 c 0,45,46
 686.5 1306 686.5 1306 686.5 1344 c 0,47,48
 686.5 1347 686.5 1347 686.5 1350 c 0,49,50
 684.5 1394 684.5 1394 661.5 1427 c 0,51,52
 646.5 1451 646.5 1451 620.5 1469 c 0,53,54
 595.5 1486 595.5 1486 566.5 1492 c 0,55,56
 551.5 1496 551.5 1496 534.5 1496 c 0,57,58
 489.5 1496 489.5 1496 452.5 1472 c 0,59,60
 409.5 1445 409.5 1445 391.5 1397 c 0,61,62
 381.5 1371 381.5 1371 382.5 1344 c 0,63,64
 382.5 1322 382.5 1322 388.5 1301 c 0,65,66
 402.5 1252 402.5 1252 443.5 1222 c 128,-1,67
 484.5 1192 484.5 1192 534.5 1192 c 2,68,-1
 535.5 1192 l 2,41,42
1222.5 617 m 0,69,70
 1257.5 636 1257.5 636 1294.5 636 c 0,71,72
 1313.5 636 1313.5 636 1332.5 630 c 0,73,74
 1390.5 614 1390.5 614 1447.5 558 c 1,75,76
 1515.5 499 1515.5 499 1544.5 417 c 0,77,78
 1564.5 362 1564.5 362 1564.5 303 c 0,79,80
 1564.5 275 1564.5 275 1560.5 247 c 0,81,82
 1544.5 156 1544.5 156 1485.5 88 c 0,83,84
 1426.5 19 1426.5 19 1362.5 -11 c 0,85,86
 1329.5 -29 1329.5 -29 1293.5 -29 c 0,87,88
 1271.5 -29 1271.5 -29 1250.5 -22 c 0,89,90
 1192.5 -3 1192.5 -3 1129.5 58 c 0,91,92
 1064.5 117 1064.5 117 1037.5 201 c 0,93,94
 1021.5 251 1021.5 251 1021.5 304 c 0,95,96
 1021.5 338 1021.5 338 1028.5 370 c 0,97,98
 1046.5 459 1046.5 459 1103.5 521 c 0,99,100
 1162.5 588 1162.5 588 1222.5 617 c 0,69,70
1295.5 136 m 1,101,102
 1325.5 136 1325.5 136 1351.5 160 c 128,-1,103
 1377.5 184 1377.5 184 1391.5 225 c 0,104,105
 1403.5 263 1403.5 263 1403.5 306 c 0,106,107
 1403.5 310 1403.5 310 1403.5 313 c 0,108,109
 1402.5 362 1402.5 362 1386.5 399 c 0,110,111
 1375.5 426 1375.5 426 1356.5 446 c 0,112,113
 1339.5 465 1339.5 465 1318.5 472 c 0,114,115
 1307.5 476 1307.5 476 1295.5 476 c 0,116,117
 1262.5 476 1262.5 476 1236.5 449 c 0,118,119
 1205.5 418 1205.5 418 1192.5 365 c 0,120,121
 1185.5 336 1185.5 336 1185.5 306 c 0,122,123
 1185.5 281 1185.5 281 1190.5 258 c 0,124,125
 1200.5 203 1200.5 203 1230 169 c 128,-1,126
 1259.5 135 1259.5 135 1295.5 136 c 1,127,-1
 1295.5 136 l 1,101,102
EndSplineSet
EndChar

StartChar: ampersand
Encoding: 38 38 9
Width: 1800
GlyphClass: 2
Flags: W
LayerCount: 2
Fore
SplineSet
1351.97851562 41 m 1,0,1
 1388.97851562 -35 1388.97851562 -35 1322.97851562 -76 c 0,2,3
 1247.97851562 -122 1247.97851562 -122 1195.97851562 -40 c 1,4,-1
 1048.97851562 255 l 1,5,-1
 984.978515625 132 l 2,6,7
 895.978515625 -41 895.978515625 -41 774.978515625 -38 c 0,8,9
 564.978515625 -33 564.978515625 -33 466.978515625 184 c 0,10,11
 372.978515625 393 372.978515625 393 552.978515625 596 c 1,12,-1
 779.978515625 915 l 1,13,-1
 738.978515625 1014 l 1,14,15
 613.978515625 1264 613.978515625 1264 696.978515625 1418 c 1,16,17
 761.978515625 1587 761.978515625 1587 925.978515625 1572 c 0,18,19
 1059.97851562 1560 1059.97851562 1560 1090.97851562 1382 c 0,20,21
 1118.97851562 1216 1118.97851562 1216 1017.97851562 1036 c 2,22,-1
 932.978515625 886 l 1,23,-1
 1053.97851562 582 l 1,24,-1
 1127.97851562 724 l 1,25,26
 1195.97851562 811 1195.97851562 811 1277.97851562 752 c 0,27,28
 1360.97851562 692 1360.97851562 692 1283.97851562 596 c 2,29,-1
 1127.97851562 403 l 1,30,-1
 1351.97851562 41 l 1,0,1
863.978515625 1063 m 1,31,-1
 932.978515625 1184 l 2,32,33
 989.978515625 1284 989.978515625 1284 968.978515625 1336 c 0,34,35
 944.978515625 1392 944.978515625 1392 896.978515625 1388 c 0,36,37
 825.978515625 1382 825.978515625 1382 809.978515625 1312 c 0,38,39
 792.978515625 1240 792.978515625 1240 831.978515625 1144 c 2,40,-1
 863.978515625 1063 l 1,31,-1
850.978515625 739 m 1,41,-1
 763.978515625 584 l 1,42,43
 642.978515625 393 642.978515625 393 658.978515625 312 c 0,44,45
 681.978515625 174 681.978515625 174 774.978515625 164 c 0,46,47
 841.978515625 157 841.978515625 157 923.978515625 320 c 2,48,-1
 976.978515625 428 l 1,49,-1
 850.978515625 739 l 1,41,-1
EndSplineSet
EndChar

StartChar: quotesingle
Encoding: 39 39 10
Width: 1800
GlyphClass: 2
Flags: W
LayerCount: 2
Fore
SplineSet
899.021484375 1659 m 0,0,1
 991.021484375 1662 991.021484375 1662 991.021484375 1553 c 2,2,-1
 991.021484375 1244 l 2,3,4
 991.021484375 1141 991.021484375 1141 906.021484375 1141 c 0,5,6
 817.021484375 1140 817.021484375 1140 815.021484375 1243 c 2,7,-1
 809.021484375 1551 l 2,8,9
 807.021484375 1655 807.021484375 1655 899.021484375 1659 c 0,0,1
EndSplineSet
EndChar

StartChar: parenleft
Encoding: 40 40 11
Width: 1800
GlyphClass: 2
Flags: W
LayerCount: 2
Fore
SplineSet
1075.19824219 -214 m 0,0,1
 1259.19824219 -338 1259.19824219 -338 1153.19824219 -420 c 0,2,3
 1079.19824219 -476 1079.19824219 -476 919.198242188 -330 c 0,4,5
 760.198242188 -185 760.198242188 -185 693.198242188 22 c 0,6,7
 598.198242188 318 598.198242188 318 609.198242188 630 c 0,8,9
 619.198242188 899 619.198242188 899 735.198242188 1166 c 0,10,11
 817.198242188 1360 817.198242188 1360 933.198242188 1484 c 0,12,13
 1093.19824219 1652 1093.19824219 1652 1163.19824219 1578 c 0,14,15
 1239.19824219 1498 1239.19824219 1498 1057.19824219 1332 c 0,16,17
 909.198242188 1196 909.198242188 1196 845.198242188 890 c 0,18,19
 791.198242188 630 791.198242188 630 823.198242188 362 c 0,20,21
 876.198242188 -80 876.198242188 -80 1075.19824219 -214 c 0,0,1
EndSplineSet
EndChar

StartChar: parenright
Encoding: 41 41 12
Width: 1800
GlyphClass: 2
Flags: W
LayerCount: 2
Fore
SplineSet
724.801757812 -214 m 0,0,1
 923.801757812 -80 923.801757812 -80 976.801757812 362 c 0,2,3
 1008.80175781 630 1008.80175781 630 954.801757812 890 c 0,4,5
 890.801757812 1196 890.801757812 1196 742.801757812 1332 c 0,6,7
 560.801757812 1498 560.801757812 1498 636.801757812 1578 c 0,8,9
 706.801757812 1652 706.801757812 1652 866.801757812 1484 c 0,10,11
 982.801757812 1360 982.801757812 1360 1064.80175781 1166 c 0,12,13
 1180.80175781 899 1180.80175781 899 1190.80175781 630 c 0,14,15
 1201.80175781 318 1201.80175781 318 1106.80175781 22 c 0,16,17
 1039.80175781 -185 1039.80175781 -185 880.801757812 -330 c 0,18,19
 720.801757812 -476 720.801757812 -476 646.801757812 -420 c 0,20,21
 540.801757812 -338 540.801757812 -338 724.801757812 -214 c 0,0,1
EndSplineSet
EndChar

StartChar: asterisk
Encoding: 42 42 13
Width: 1800
GlyphClass: 2
Flags: W
LayerCount: 2
Fore
SplineSet
900.895507812 1593 m 0,0,1
 956.895507812 1591 956.895507812 1591 956.895507812 1500 c 2,2,-1
 956.895507812 1271 l 1,3,-1
 1130.89550781 1347 l 1,4,5
 1228.89550781 1382 1228.89550781 1382 1257.89550781 1297 c 0,6,7
 1287.89550781 1216 1287.89550781 1216 1196.89550781 1183 c 2,8,-1
 1001.89550781 1107 l 1,9,-1
 1148.89550781 949 l 2,10,11
 1212.89550781 884 1212.89550781 884 1145.89550781 821 c 0,12,13
 1081.89550781 761 1081.89550781 761 1018.89550781 826 c 1,14,-1
 897.895507812 1019 l 1,15,-1
 780.895507812 833 l 1,16,17
 708.895507812 759 708.895507812 759 645.895507812 823 c 0,18,19
 583.895507812 883 583.895507812 883 651.895507812 953 c 2,20,-1
 794.895507812 1107 l 1,21,-1
 595.895507812 1182 l 2,22,23
 510.895507812 1213 510.895507812 1213 543.895507812 1298 c 0,24,25
 575.895507812 1380 575.895507812 1380 660.895507812 1349 c 1,26,-1
 842.895507812 1269 l 1,27,28
 842.895507812 1387 842.895507812 1387 842.895507812 1504 c 0,29,30
 841.895507812 1595 841.895507812 1595 900.895507812 1593 c 0,0,1
EndSplineSet
EndChar

StartChar: plus
Encoding: 43 43 14
Width: 1800
GlyphClass: 2
Flags: W
LayerCount: 2
Fore
SplineSet
908.021484375 1045 m 0,0,1
 994.021484375 1044 994.021484375 1044 994.021484375 943 c 2,2,-1
 994.021484375 737 l 1,3,-1
 1181.02148438 738 l 2,4,5
 1281.02148438 738 1281.02148438 738 1281.02148438 649 c 0,6,7
 1281.02148438 563 1281.02148438 563 1180.02148438 562 c 0,8,9
 1075.02148438 561 1075.02148438 561 994.021484375 560 c 1,10,-1
 994.021484375 319 l 2,11,12
 994.021484375 229 994.021484375 229 904.021484375 231 c 0,13,14
 813.021484375 232 813.021484375 232 814.021484375 323 c 0,15,16
 815.021484375 440 815.021484375 440 816.021484375 558 c 1,17,18
 726.021484375 557 726.021484375 557 607.021484375 556 c 0,19,20
 517.021484375 555 517.021484375 555 519.021484375 645 c 0,21,22
 519.021484375 736 519.021484375 736 610.021484375 736 c 2,23,-1
 817.021484375 737 l 1,24,25
 818.021484375 841 818.021484375 841 818.021484375 945 c 0,26,27
 818.021484375 1046 818.021484375 1046 908.021484375 1045 c 0,0,1
EndSplineSet
EndChar

StartChar: comma
Encoding: 44 44 15
Width: 1800
VWidth: 1648
GlyphClass: 2
Flags: W
LayerCount: 2
Fore
SplineSet
878.299804688 800.580078125 m 0,0,1
 888.799804688 803.379882812 888.799804688 803.379882812 900 802.6796875 c 0,2,3
 911.900390625 802.6796875 911.900390625 802.6796875 923.099609375 799.879882812 c 0,4,5
 944.799804688 793.580078125 944.799804688 793.580078125 960.900390625 777.48046875 c 0,6,7
 979.799804688 759.98046875 979.799804688 759.98046875 984 738.98046875 c 0,8,9
 986.099609375 727.780273438 986.099609375 727.780273438 986.799804688 715.879882812 c 0,10,11
 986.799804688 701.879882812 986.799804688 701.879882812 984.700195312 694.1796875 c 0,12,13
 977 666.1796875 977 666.1796875 958.799804688 650.080078125 c 0,14,15
 941.299804688 633.280273438 941.299804688 633.280273438 911.900390625 629.780273438 c 0,16,17
 906.299804688 629.080078125 906.299804688 629.080078125 900 628.379882812 c 0,18,19
 879.700195312 628.379882812 879.700195312 628.379882812 862.200195312 637.48046875 c 0,20,21
 838.400390625 648.6796875 838.400390625 648.6796875 825.099609375 671.780273438 c 0,22,23
 813.200195312 692.080078125 813.200195312 692.080078125 813.200195312 715.879882812 c 0,24,25
 813.200195312 733.379882812 813.200195312 733.379882812 819.5 749.48046875 c 0,26,27
 827.200195312 768.379882812 827.200195312 768.379882812 843.299804688 781.6796875 c 0,28,29
 857.299804688 794.98046875 857.299804688 794.98046875 878.299804688 800.580078125 c 0,0,1
EndSplineSet
EndChar

StartChar: hyphen
Encoding: 45 45 16
Width: 1800
GlyphClass: 2
Flags: W
LayerCount: 2
Fore
SplineSet
649 620 m 2,0,-1
 1129 622 l 2,1,2
 1223 622 1223 622 1223 546 c 0,3,4
 1223 468 1223 468 1134 468 c 2,5,-1
 643 469 l 2,6,7
 577 469 577 469 577 543 c 0,8,9
 577 620 577 620 649 620 c 2,0,-1
EndSplineSet
EndChar

StartChar: period
Encoding: 46 46 17
Width: 1800
VWidth: 1648
GlyphClass: 2
Flags: W
LayerCount: 2
Fore
SplineSet
878.299804688 800.580078125 m 0,0,1
 888.799804688 803.379882812 888.799804688 803.379882812 900 802.6796875 c 0,2,3
 911.900390625 802.6796875 911.900390625 802.6796875 923.099609375 799.879882812 c 0,4,5
 944.799804688 793.580078125 944.799804688 793.580078125 960.900390625 777.48046875 c 0,6,7
 979.799804688 759.98046875 979.799804688 759.98046875 984 738.98046875 c 0,8,9
 986.099609375 727.780273438 986.099609375 727.780273438 986.799804688 715.879882812 c 0,10,11
 986.799804688 701.879882812 986.799804688 701.879882812 984.700195312 694.1796875 c 0,12,13
 977 666.1796875 977 666.1796875 958.799804688 650.080078125 c 0,14,15
 941.299804688 633.280273438 941.299804688 633.280273438 911.900390625 629.780273438 c 0,16,17
 906.299804688 629.080078125 906.299804688 629.080078125 900 628.379882812 c 0,18,19
 879.700195312 628.379882812 879.700195312 628.379882812 862.200195312 637.48046875 c 0,20,21
 838.400390625 648.6796875 838.400390625 648.6796875 825.099609375 671.780273438 c 0,22,23
 813.200195312 692.080078125 813.200195312 692.080078125 813.200195312 715.879882812 c 0,24,25
 813.200195312 733.379882812 813.200195312 733.379882812 819.5 749.48046875 c 0,26,27
 827.200195312 768.379882812 827.200195312 768.379882812 843.299804688 781.6796875 c 0,28,29
 857.299804688 794.98046875 857.299804688 794.98046875 878.299804688 800.580078125 c 0,0,1
EndSplineSet
EndChar

StartChar: slash
Encoding: 47 47 18
Width: 1800
GlyphClass: 2
Flags: W
LayerCount: 2
Fore
SplineSet
1226.47167969 1609 m 0,0,1
 1295.47167969 1574 1295.47167969 1574 1265.47167969 1509 c 1,2,-1
 700.471679688 -32 l 1,3,4
 662.471679688 -115 662.471679688 -115 581.471679688 -79 c 0,5,6
 499.471679688 -43 499.471679688 -43 537.471679688 40 c 1,7,-1
 1120.47167969 1582 l 1,8,9
 1151.47167969 1647 1151.47167969 1647 1226.47167969 1609 c 0,0,1
EndSplineSet
EndChar

StartChar: zero
Encoding: 48 48 19
Width: 1800
GlyphClass: 2
Flags: W
LayerCount: 2
Fore
SplineSet
915.5 1328 m 0,0,1
 667.5 1328 667.5 1328 667.5 748 c 0,2,3
 667.5 136 667.5 136 896.5 136 c 0,4,5
 1126.5 136 1126.5 136 1126.5 763 c 0,6,7
 1126.5 1328 1126.5 1328 915.5 1328 c 0,0,1
913.5 1517 m 0,8,9
 1330.5 1517 1330.5 1517 1330.5 760 c 0,10,11
 1330.5 -50 1330.5 -50 896.5 -50 c 0,12,13
 469.5 -50 469.5 -50 469.5 745 c 0,14,15
 469.5 1517 469.5 1517 913.5 1517 c 0,8,9
EndSplineSet
EndChar

StartChar: one
Encoding: 49 49 20
Width: 1800
GlyphClass: 2
Flags: W
LayerCount: 2
Fore
SplineSet
1018.4921875 1406 m 2,0,1
 1018.4921875 1406 1018.4921875 1406 1012.4921875 135 c 1,2,3
 1067.4921875 135 1067.4921875 135 1121.4921875 135 c 0,4,5
 1224.4921875 135 1224.4921875 135 1224.4921875 42 c 0,6,7
 1224.4921875 -48 1224.4921875 -48 1124.4921875 -48 c 2,8,-1
 670.4921875 -48 l 2,9,10
 580.4921875 -48 580.4921875 -48 580.4921875 36 c 0,11,12
 581.4921875 136 581.4921875 136 680.4921875 136 c 0,13,14
 754.4921875 136 754.4921875 136 829.4921875 136 c 1,15,-1
 831.4921875 1197 l 1,16,-1
 757.4921875 1127 l 2,17,18
 662.4921875 1036 662.4921875 1036 597.4921875 1124 c 0,19,20
 545.4921875 1194 545.4921875 1194 616.4921875 1261 c 2,21,-1
 815.4921875 1448 l 2,22,23
 896.4921875 1524 896.4921875 1524 964.4921875 1508 c 0,24,25
 1019.4921875 1496 1019.4921875 1496 1018.4921875 1406 c 2,0,1
EndSplineSet
EndChar

StartChar: two
Encoding: 50 50 21
Width: 1800
GlyphClass: 2
Flags: W
LayerCount: 2
Fore
SplineSet
513.939453125 90 m 0,0,1
 519.939453125 292 519.939453125 292 662.939453125 502 c 1,2,3
 782.939453125 695 782.939453125 695 951.939453125 823 c 1,4,5
 1072.93945312 906 1072.93945312 906 1077.93945312 1125 c 0,6,7
 1080.93945312 1249 1080.93945312 1249 992.939453125 1308 c 1,8,9
 920.939453125 1365 920.939453125 1365 842.939453125 1326 c 0,10,11
 796.939453125 1302 796.939453125 1302 707.939453125 1172 c 1,12,13
 625.939453125 1078 625.939453125 1078 549.939453125 1142 c 0,14,15
 479.939453125 1198 479.939453125 1198 535.939453125 1266 c 0,16,17
 650.939453125 1407 650.939453125 1407 732.939453125 1455 c 1,18,19
 808.939453125 1518 808.939453125 1518 913.939453125 1518 c 0,20,21
 1011.93945312 1518 1011.93945312 1518 1084.93945312 1462 c 1,22,23
 1279.93945312 1340 1279.93945312 1340 1274.93945312 1108 c 0,24,25
 1267.93945312 796 1267.93945312 796 1026.93945312 682 c 1,26,27
 880.939453125 578 880.939453125 578 803.939453125 403 c 1,28,29
 716.939453125 237 716.939453125 237 709.939453125 140 c 1,30,31
 929.939453125 139 929.939453125 139 1182.93945312 138 c 0,32,33
 1289.93945312 138 1289.93945312 138 1288.93945312 46 c 0,34,35
 1287.93945312 -50 1287.93945312 -50 1183.93945312 -49 c 2,36,-1
 611.939453125 -49 l 2,37,38
 508.939453125 -49 508.939453125 -49 513.939453125 90 c 0,0,1
EndSplineSet
EndChar

StartChar: three
Encoding: 51 51 22
Width: 1800
GlyphClass: 2
Flags: W
LayerCount: 2
Fore
SplineSet
761.93359375 810 m 0,0,1
 763.93359375 868 763.93359375 868 801.93359375 894 c 0,2,3
 829.93359375 913 829.93359375 913 957.93359375 962 c 1,4,5
 1084.93359375 1005 1084.93359375 1005 1070.93359375 1155 c 0,6,7
 1055.93359375 1317 1055.93359375 1317 904.93359375 1335 c 0,8,9
 838.93359375 1343 838.93359375 1343 787.93359375 1287 c 1,10,11
 689.93359375 1205 689.93359375 1205 639.93359375 1211 c 0,12,13
 570.93359375 1219 570.93359375 1219 565.93359375 1289 c 0,14,15
 559.93359375 1375 559.93359375 1375 657.93359375 1433 c 1,16,17
 802.93359375 1534 802.93359375 1534 889.93359375 1525 c 0,18,19
 1087.93359375 1507 1087.93359375 1507 1178.93359375 1372 c 0,20,21
 1333.93359375 1143 1333.93359375 1143 1193.93359375 937 c 0,22,23
 1142.93359375 862 1142.93359375 862 1029.93359375 816 c 1,24,25
 1054.93359375 810 1054.93359375 810 1138.93359375 756 c 0,26,27
 1319.93359375 641 1319.93359375 641 1279.93359375 335 c 0,28,29
 1239.93359375 34 1239.93359375 34 962.93359375 -32 c 1,30,31
 790.93359375 -87 790.93359375 -87 635.93359375 39 c 1,32,33
 515.93359375 127 515.93359375 127 512.93359375 225 c 0,34,35
 509.93359375 318 509.93359375 318 590.93359375 327 c 0,36,37
 633.93359375 331 633.93359375 331 734.93359375 208 c 1,38,39
 788.93359375 120 788.93359375 120 919.93359375 150 c 0,40,41
 1101.93359375 187 1101.93359375 187 1087.93359375 410 c 0,42,43
 1072.93359375 666 1072.93359375 666 866.93359375 718 c 1,44,45
 761.93359375 732 761.93359375 732 761.93359375 810 c 0,0,1
EndSplineSet
EndChar

StartChar: four
Encoding: 52 52 23
Width: 1800
GlyphClass: 2
Flags: W
LayerCount: 2
Fore
SplineSet
909.986328125 1423 m 1,0,1
 953.986328125 1516 953.986328125 1516 1056.98632812 1515 c 0,2,3
 1158.98632812 1514 1158.98632812 1514 1158.98632812 1409 c 2,4,-1
 1158.98632812 612 l 1,5,6
 1198.98632812 612 1198.98632812 612 1238.98632812 612 c 0,7,8
 1379.98632812 612 1379.98632812 612 1382.98632812 512 c 0,9,10
 1384.98632812 414 1384.98632812 414 1243.98632812 414 c 2,11,-1
 1158.98632812 414 l 1,12,-1
 1158.98632812 56 l 2,13,14
 1158.98632812 -51 1158.98632812 -51 1066.98632812 -50 c 0,15,16
 970.986328125 -49 970.986328125 -49 970.986328125 58 c 0,17,18
 969.986328125 236 969.986328125 236 969.986328125 414 c 1,19,-1
 510.986328125 413 l 2,20,21
 416.986328125 413 416.986328125 413 416.986328125 504 c 0,22,23
 416.986328125 554 416.986328125 554 451.986328125 602 c 1,24,-1
 909.986328125 1423 l 1,0,1
969.986328125 611 m 1,25,26
 969.986328125 895 969.986328125 895 970.986328125 1237 c 1,27,-1
 697.986328125 610 l 1,28,-1
 969.986328125 611 l 1,25,26
EndSplineSet
EndChar

StartChar: five
Encoding: 53 53 24
Width: 1800
GlyphClass: 2
Flags: W
LayerCount: 2
Fore
SplineSet
643.677734375 1500 m 2,0,-1
 1155.67773438 1504 l 2,1,2
 1262.67773438 1505 1262.67773438 1505 1263.67773438 1412 c 0,3,4
 1264.67773438 1312 1264.67773438 1312 1161.67773438 1312 c 2,5,-1
 738.677734375 1312 l 1,6,-1
 705.677734375 925 l 1,7,8
 814.677734375 1048 814.677734375 1048 920.677734375 1048 c 0,9,10
 1326.67773438 1047 1326.67773438 1047 1318.67773438 556 c 0,11,12
 1307.67773438 -90 1307.67773438 -90 810.677734375 -60 c 0,13,14
 619.677734375 -49 619.677734375 -49 507.677734375 134 c 0,15,16
 455.677734375 219 455.677734375 219 505.677734375 262 c 0,17,18
 595.677734375 340 595.677734375 340 656.677734375 261 c 1,19,20
 747.677734375 127 747.677734375 127 834.677734375 127 c 0,21,22
 1090.67773438 126 1090.67773438 126 1123.67773438 553 c 0,23,24
 1147.67773438 855 1147.67773438 855 920.677734375 853 c 0,25,26
 821.677734375 852 821.677734375 852 759.677734375 748 c 1,27,28
 648.677734375 623 648.677734375 623 570.677734375 625 c 0,29,30
 487.677734375 628 487.677734375 628 498.677734375 754 c 2,31,-1
 559.677734375 1442 l 1,32,33
 573.677734375 1500 573.677734375 1500 643.677734375 1500 c 2,0,-1
EndSplineSet
EndChar

StartChar: six
Encoding: 54 54 25
Width: 1800
GlyphClass: 2
Flags: W
LayerCount: 2
Fore
SplineSet
700.25 1175 m 1,0,1
 793.25 1384 793.25 1384 941.25 1502 c 0,2,3
 1017.25 1563 1017.25 1563 1043.25 1456 c 0,4,5
 1056.25 1394 1056.25 1394 982.25 1321 c 0,6,7
 906.25 1247 906.25 1247 853.25 1162 c 0,8,9
 793.25 1066 793.25 1066 740.25 884 c 1,10,11
 784.25 951 784.25 951 912.25 951 c 0,12,13
 1281.25 952 1281.25 952 1281.25 458 c 0,14,15
 1281.25 -49 1281.25 -49 870.25 -53 c 0,16,17
 538.25 -57 538.25 -57 520.25 418 c 0,18,19
 502.25 886 502.25 886 700.25 1175 c 1,0,1
897.25 749 m 0,20,21
 704.25 749 704.25 749 704.25 437 c 0,22,23
 704.25 123 704.25 123 868.25 123 c 0,24,25
 1089.25 123 1089.25 123 1089.25 449 c 0,26,27
 1089.25 749 1089.25 749 897.25 749 c 0,20,21
EndSplineSet
EndChar

StartChar: seven
Encoding: 55 55 26
Width: 1800
GlyphClass: 2
Flags: W
LayerCount: 2
Fore
SplineSet
445.89453125 1413 m 128,-1,1
 445.89453125 1509 445.89453125 1509 574.89453125 1509 c 2,2,-1
 1215.89453125 1512 l 2,3,4
 1347.89453125 1512 1347.89453125 1512 1353.89453125 1422 c 0,5,6
 1355.89453125 1382 1355.89453125 1382 1338.89453125 1357 c 0,7,8
 1336.89453125 1354 1336.89453125 1354 1334.89453125 1350 c 2,9,-1
 802.89453125 24 l 1,10,11
 759.89453125 -105 759.89453125 -105 700.89453125 -49 c 1,12,13
 613.89453125 6 613.89453125 6 672.89453125 116 c 1,14,-1
 1090.89453125 1317 l 1,15,-1
 571.89453125 1317 l 2,16,0
 445.89453125 1317 445.89453125 1317 445.89453125 1413 c 128,-1,1
EndSplineSet
EndChar

StartChar: eight
Encoding: 56 56 27
Width: 1800
GlyphClass: 2
Flags: W
LayerCount: 2
Fore
SplineSet
904.5 1514 m 0,0,1
 1230.5 1514 1230.5 1514 1230.5 1118 c 0,2,3
 1230.5 882 1230.5 882 1037.5 801 c 1,4,5
 1302.5 719 1302.5 719 1302.5 392 c 0,6,7
 1302.5 -44 1302.5 -44 894.5 -44 c 0,8,9
 497.5 -44 497.5 -44 497.5 346 c 0,10,11
 497.5 696 497.5 696 745.5 792 c 1,12,13
 545.5 866 545.5 866 545.5 1112 c 0,14,15
 545.5 1514 545.5 1514 904.5 1514 c 0,0,1
1052.5 1121 m 0,16,17
 1050.5 1329 1050.5 1329 908.5 1331 c 0,18,19
 734.5 1333 734.5 1333 743.5 1088 c 0,20,21
 746.5 924 746.5 924 890.5 894 c 1,22,23
 1055.5 948 1055.5 948 1052.5 1121 c 0,16,17
692.5 364 m 0,24,25
 713.5 108 713.5 108 925.5 123 c 0,26,27
 1092.5 135 1092.5 135 1093.5 392 c 0,28,29
 1095.5 621 1095.5 621 894.5 717 c 1,30,31
 674.5 590 674.5 590 692.5 364 c 0,24,25
EndSplineSet
EndChar

StartChar: nine
Encoding: 57 57 28
Width: 1800
GlyphClass: 2
Flags: W
LayerCount: 2
Fore
SplineSet
1074.99511719 583 m 1,0,1
 1012.99511719 519 1012.99511719 519 875.995117188 519 c 0,2,3
 491.995117188 519 491.995117188 519 491.995117188 984 c 0,4,5
 491.995117188 1527 491.995117188 1527 921.995117188 1515 c 0,6,7
 1309.99511719 1504 1309.99511719 1504 1307.99511719 912 c 0,8,9
 1306.99511719 666 1306.99511719 666 1242.99511719 491 c 0,10,11
 1096.99511719 94 1096.99511719 94 766.995117188 -43 c 1,12,13
 662.995117188 -76 662.995117188 -76 631.995117188 14 c 0,14,15
 598.995117188 111 598.995117188 111 699.995117188 135 c 1,16,17
 849.995117188 187 849.995117188 187 937.995117188 297 c 0,18,19
 1009.99511719 388 1009.99511719 388 1074.99511719 583 c 1,0,1
897.995117188 712 m 0,20,21
 1142.99511719 726 1142.99511719 726 1119.99511719 995 c 0,22,23
 1092.99511719 1321 1092.99511719 1321 918.995117188 1331 c 0,24,25
 673.995117188 1345 673.995117188 1345 674.995117188 985 c 0,26,27
 675.995117188 699 675.995117188 699 897.995117188 712 c 0,20,21
EndSplineSet
EndChar

StartChar: colon
Encoding: 58 58 29
Width: 1800
VWidth: 1648
GlyphClass: 2
Flags: W
LayerCount: 2
Fore
SplineSet
878.299804688 800.580078125 m 0,0,1
 888.799804688 803.379882812 888.799804688 803.379882812 900 802.6796875 c 0,2,3
 911.900390625 802.6796875 911.900390625 802.6796875 923.099609375 799.879882812 c 0,4,5
 944.799804688 793.580078125 944.799804688 793.580078125 960.900390625 777.48046875 c 0,6,7
 979.799804688 759.98046875 979.799804688 759.98046875 984 738.98046875 c 0,8,9
 986.099609375 727.780273438 986.099609375 727.780273438 986.799804688 715.879882812 c 0,10,11
 986.799804688 701.879882812 986.799804688 701.879882812 984.700195312 694.1796875 c 0,12,13
 977 666.1796875 977 666.1796875 958.799804688 650.080078125 c 0,14,15
 941.299804688 633.280273438 941.299804688 633.280273438 911.900390625 629.780273438 c 0,16,17
 906.299804688 629.080078125 906.299804688 629.080078125 900 628.379882812 c 0,18,19
 879.700195312 628.379882812 879.700195312 628.379882812 862.200195312 637.48046875 c 0,20,21
 838.400390625 648.6796875 838.400390625 648.6796875 825.099609375 671.780273438 c 0,22,23
 813.200195312 692.080078125 813.200195312 692.080078125 813.200195312 715.879882812 c 0,24,25
 813.200195312 733.379882812 813.200195312 733.379882812 819.5 749.48046875 c 0,26,27
 827.200195312 768.379882812 827.200195312 768.379882812 843.299804688 781.6796875 c 0,28,29
 857.299804688 794.98046875 857.299804688 794.98046875 878.299804688 800.580078125 c 0,0,1
EndSplineSet
EndChar

StartChar: semicolon
Encoding: 59 59 30
AltUni2: 00037e.ffffffff.0
Width: 1800
VWidth: 1648
GlyphClass: 2
Flags: W
LayerCount: 2
Fore
SplineSet
878.299804688 800.580078125 m 0,0,1
 888.799804688 803.379882812 888.799804688 803.379882812 900 802.6796875 c 0,2,3
 911.900390625 802.6796875 911.900390625 802.6796875 923.099609375 799.879882812 c 0,4,5
 944.799804688 793.580078125 944.799804688 793.580078125 960.900390625 777.48046875 c 0,6,7
 979.799804688 759.98046875 979.799804688 759.98046875 984 738.98046875 c 0,8,9
 986.099609375 727.780273438 986.099609375 727.780273438 986.799804688 715.879882812 c 0,10,11
 986.799804688 701.879882812 986.799804688 701.879882812 984.700195312 694.1796875 c 0,12,13
 977 666.1796875 977 666.1796875 958.799804688 650.080078125 c 0,14,15
 941.299804688 633.280273438 941.299804688 633.280273438 911.900390625 629.780273438 c 0,16,17
 906.299804688 629.080078125 906.299804688 629.080078125 900 628.379882812 c 0,18,19
 879.700195312 628.379882812 879.700195312 628.379882812 862.200195312 637.48046875 c 0,20,21
 838.400390625 648.6796875 838.400390625 648.6796875 825.099609375 671.780273438 c 0,22,23
 813.200195312 692.080078125 813.200195312 692.080078125 813.200195312 715.879882812 c 0,24,25
 813.200195312 733.379882812 813.200195312 733.379882812 819.5 749.48046875 c 0,26,27
 827.200195312 768.379882812 827.200195312 768.379882812 843.299804688 781.6796875 c 0,28,29
 857.299804688 794.98046875 857.299804688 794.98046875 878.299804688 800.580078125 c 0,0,1
EndSplineSet
EndChar

StartChar: less
Encoding: 60 60 31
Width: 1800
GlyphClass: 2
Flags: W
LayerCount: 2
Fore
SplineSet
649.7734375 695 m 2,0,-1
 1031.7734375 1027 l 2,1,2
 1117.7734375 1102 1117.7734375 1102 1179.7734375 1024 c 0,3,4
 1231.7734375 958 1231.7734375 958 1144.7734375 884 c 2,5,-1
 831.7734375 618 l 1,6,-1
 1156.7734375 348 l 2,7,8
 1223.7734375 292 1223.7734375 292 1161.7734375 222 c 0,9,10
 1107.7734375 161 1107.7734375 161 1039.7734375 216 c 2,11,-1
 656.7734375 525 l 2,12,13
 600.7734375 570 600.7734375 570 600.7734375 605 c 0,14,15
 601.7734375 653 601.7734375 653 649.7734375 695 c 2,0,-1
EndSplineSet
EndChar

StartChar: equal
Encoding: 61 61 32
Width: 1800
GlyphClass: 2
Flags: W
LayerCount: 2
Fore
SplineSet
654.5 998 m 2,0,-1
 1127.5 1000 l 2,1,2
 1241.5 1000 1241.5 1000 1241.5 910 c 0,3,4
 1241.5 818 1241.5 818 1132.5 818 c 2,5,-1
 645.5 819 l 2,6,7
 566.5 819 566.5 819 566.5 906 c 0,8,9
 566.5 998 566.5 998 654.5 998 c 2,0,-1
645.5 456 m 2,10,-1
 1118.5 458 l 2,11,12
 1231.5 458 1231.5 458 1232.5 368 c 0,13,14
 1232.5 276 1232.5 276 1124.5 276 c 2,15,-1
 637.5 277 l 2,16,17
 558.5 277 558.5 277 558.5 364 c 0,18,19
 558.5 456 558.5 456 645.5 456 c 2,10,-1
EndSplineSet
EndChar

StartChar: greater
Encoding: 62 62 33
Width: 1800
GlyphClass: 2
Flags: W
LayerCount: 2
Fore
SplineSet
1150.2265625 723 m 2,0,1
 1198.2265625 681 1198.2265625 681 1199.2265625 633 c 0,2,3
 1199.2265625 598 1199.2265625 598 1143.2265625 553 c 2,4,-1
 760.2265625 244 l 2,5,6
 692.2265625 189 692.2265625 189 638.2265625 250 c 0,7,8
 575.2265625 321 575.2265625 321 643.2265625 376 c 2,9,-1
 968.2265625 646 l 1,10,-1
 655.2265625 912 l 2,11,12
 568.2265625 986 568.2265625 986 620.2265625 1052 c 0,13,14
 682.2265625 1130 682.2265625 1130 768.2265625 1055 c 2,15,-1
 1150.2265625 723 l 2,0,1
EndSplineSet
EndChar

StartChar: question
Encoding: 63 63 34
Width: 1800
GlyphClass: 2
Flags: W
LayerCount: 2
Fore
SplineSet
785.9453125 176 m 0,0,1
 800.9453125 180 800.9453125 180 816.9453125 179 c 0,2,3
 833.9453125 179 833.9453125 179 849.9453125 175 c 0,4,5
 880.9453125 166 880.9453125 166 903.9453125 143 c 0,6,7
 930.9453125 118 930.9453125 118 936.9453125 88 c 0,8,9
 938.9453125 72 938.9453125 72 939.9453125 55 c 0,10,11
 939.9453125 35 939.9453125 35 937.9453125 24 c 0,12,13
 927.9453125 -13 927.9453125 -13 900.9453125 -38 c 0,14,15
 872.9453125 -63 872.9453125 -63 833.9453125 -68 c 0,16,17
 825.9453125 -69 825.9453125 -69 816.9453125 -70 c 0,18,19
 787.9453125 -70 787.9453125 -70 762.9453125 -57 c 0,20,21
 728.9453125 -41 728.9453125 -41 709.9453125 -8 c 0,22,23
 692.9453125 21 692.9453125 21 692.9453125 55 c 0,24,25
 692.9453125 80 692.9453125 80 701.9453125 103 c 0,26,27
 712.9453125 130 712.9453125 130 735.9453125 149 c 0,28,29
 755.9453125 168 755.9453125 168 785.9453125 176 c 0,0,1
565.9453125 1339 m 0,30,31
 683.9453125 1472 683.9453125 1472 941.9453125 1477 c 0,32,33
 1231.9453125 1484 1231.9453125 1484 1277.9453125 1156 c 0,34,35
 1333.9453125 770 1333.9453125 770 1067.9453125 697 c 1,36,37
 937.9453125 646 937.9453125 646 937.9453125 562 c 0,38,39
 933.9453125 363 933.9453125 363 843.9453125 358 c 0,40,41
 707.9453125 351 707.9453125 351 735.9453125 580 c 0,42,43
 760.9453125 787 760.9453125 787 955.9453125 851 c 1,44,45
 1111.9453125 914 1111.9453125 914 1070.9453125 1120 c 0,46,47
 1043.9453125 1255 1043.9453125 1255 946.9453125 1273 c 1,48,49
 813.9453125 1290 813.9453125 1290 733.9453125 1219 c 0,50,51
 609.9453125 1108 609.9453125 1108 555.9453125 1150 c 0,52,53
 463.9453125 1222 463.9453125 1222 565.9453125 1339 c 0,30,31
EndSplineSet
EndChar

StartChar: at
Encoding: 64 64 35
Width: 1800
GlyphClass: 2
Flags: W
LayerCount: 2
Fore
SplineSet
1182.48632812 626 m 1,0,1
 1196.48632812 589 1196.48632812 589 1235.48632812 598 c 0,2,3
 1294.48632812 611 1294.48632812 611 1333.48632812 705 c 0,4,5
 1356.48632812 761 1356.48632812 761 1356.48632812 891 c 0,6,7
 1356.48632812 988 1356.48632812 988 1335.48632812 1070 c 0,8,9
 1316.48632812 1150 1316.48632812 1150 1273.48632812 1226 c 0,10,11
 1232.48632812 1296 1232.48632812 1296 1177.48632812 1342 c 1,12,13
 1030.48632812 1426 1030.48632812 1426 888.486328125 1426 c 0,14,15
 867.486328125 1426 867.486328125 1426 847.486328125 1423 c 0,16,17
 727.486328125 1408 727.486328125 1408 607.486328125 1309 c 0,18,19
 554.486328125 1261 554.486328125 1261 523.486328125 1192 c 0,20,21
 468.486328125 1065 468.486328125 1065 446.486328125 895 c 0,22,23
 435.486328125 805 435.486328125 805 434.486328125 717 c 0,24,25
 433.486328125 643 433.486328125 643 442.486328125 574 c 0,26,27
 465.486328125 389 465.486328125 389 541.486328125 256 c 1,28,29
 653.486328125 118 653.486328125 118 795.486328125 70 c 0,30,31
 844.486328125 50 844.486328125 50 895.486328125 50 c 0,32,33
 948.486328125 50 948.486328125 50 1038.48632812 79 c 0,34,35
 1088.48632812 93 1088.48632812 93 1196.48632812 145 c 1,36,37
 1273.48632812 195 1273.48632812 195 1300.48632812 110 c 0,38,39
 1330.48632812 19 1330.48632812 19 1260.48632812 -39 c 0,40,41
 1185.48632812 -101 1185.48632812 -101 980.486328125 -137 c 0,42,43
 967.486328125 -140 967.486328125 -140 881.486328125 -140 c 0,44,45
 813.486328125 -140 813.486328125 -140 708.486328125 -83 c 1,46,47
 589.486328125 -37 589.486328125 -37 511.486328125 46 c 0,48,49
 365.486328125 197 365.486328125 197 273.486328125 445 c 0,50,51
 233.486328125 553 233.486328125 553 233.486328125 761 c 0,52,53
 233.486328125 809 233.486328125 809 237.486328125 856 c 0,54,55
 251.486328125 1008 251.486328125 1008 311.486328125 1147 c 0,56,57
 371.486328125 1290 371.486328125 1290 458.486328125 1390 c 1,58,59
 541.486328125 1523 541.486328125 1523 711.486328125 1594 c 1,60,61
 774.486328125 1627 774.486328125 1627 891.486328125 1627 c 0,62,63
 915.486328125 1627 915.486328125 1627 938.486328125 1624 c 0,64,65
 1080.48632812 1611 1080.48632812 1611 1184.48632812 1561 c 1,66,67
 1257.48632812 1512 1257.48632812 1512 1322.48632812 1426 c 1,68,69
 1467.48632812 1290 1467.48632812 1290 1531.48632812 1102 c 0,70,71
 1567.48632812 998 1567.48632812 998 1566.48632812 888 c 0,72,73
 1566.48632812 777 1566.48632812 777 1530.48632812 676 c 0,74,75
 1488.48632812 558 1488.48632812 558 1417.48632812 462 c 0,76,77
 1355.48632812 378 1355.48632812 378 1249.48632812 348 c 0,78,79
 1192.48632812 332 1192.48632812 332 1132.48632812 390 c 0,80,81
 1113.48632812 405 1113.48632812 405 1096.48632812 426 c 1,82,83
 1022.48632812 361 1022.48632812 361 927.486328125 346 c 0,84,85
 571.486328125 287 571.486328125 287 561.486328125 664 c 1,86,87
 554.486328125 1136 554.486328125 1136 911.486328125 1195 c 0,88,89
 959.486328125 1205 959.486328125 1205 1008.48632812 1185 c 1,90,91
 1029.48632812 1219 1029.48632812 1219 1079.48632812 1219 c 0,92,93
 1170.48632812 1219 1170.48632812 1219 1166.48632812 1146 c 0,94,95
 1145.48632812 877 1145.48632812 877 1182.48632812 626 c 1,0,1
891.486328125 999 m 0,96,97
 735.486328125 974 735.486328125 974 735.486328125 688 c 0,98,99
 735.486328125 520 735.486328125 520 841.486328125 511 c 0,100,101
 937.486328125 503 937.486328125 503 1002.48632812 594 c 1,102,103
 964.486328125 841 964.486328125 841 973.486328125 994 c 1,104,105
 932.486328125 1007 932.486328125 1007 891.486328125 999 c 0,96,97
EndSplineSet
EndChar

StartChar: A
Encoding: 65 65 36
Width: 1800
GlyphClass: 2
Flags: W
LayerCount: 2
Fore
SplineSet
993.42578125 1363 m 2,0,-1
 1361.42578125 122 l 2,1,2
 1400.42578125 -11 1400.42578125 -11 1311.42578125 -44 c 0,3,4
 1226.42578125 -76 1226.42578125 -76 1167.42578125 66 c 2,5,-1
 1078.42578125 280 l 1,6,-1
 698.42578125 270 l 1,7,-1
 633.42578125 66 l 2,8,9
 589.42578125 -73 589.42578125 -73 489.42578125 -44 c 0,10,11
 398.42578125 -17 398.42578125 -17 439.42578125 122 c 2,12,-1
 807.42578125 1363 l 2,13,14
 856.42578125 1529 856.42578125 1529 900.42578125 1529 c 128,-1,15
 944.42578125 1529 944.42578125 1529 993.42578125 1363 c 2,0,-1
895.42578125 1100 m 1,16,-1
 733.42578125 455 l 1,17,-1
 1043.42578125 463 l 1,18,-1
 895.42578125 1100 l 1,16,-1
EndSplineSet
EndChar

StartChar: B
Encoding: 66 66 37
Width: 1800
GlyphClass: 2
Flags: W
LayerCount: 2
Fore
SplineSet
723.708984375 1331 m 1,0,-1
 713.708984375 727 l 1,1,2
 893.708984375 693 893.708984375 693 986.708984375 909 c 0,3,4
 1048.70898438 1054 1048.70898438 1054 1009.70898438 1176 c 0,5,6
 963.708984375 1321 963.708984375 1321 813.708984375 1328 c 0,7,8
 768.708984375 1330 768.708984375 1330 723.708984375 1331 c 1,0,-1
628.708984375 1528 m 0,9,10
 651.708984375 1528 651.708984375 1528 669.708984375 1523 c 1,11,12
 719.708984375 1533 719.708984375 1533 842.708984375 1515 c 0,13,14
 1085.70898438 1479 1085.70898438 1479 1182.70898438 1214 c 0,15,16
 1288.70898438 925 1288.70898438 925 1073.70898438 682 c 0,17,18
 1053.70898438 659 1053.70898438 659 1035.70898438 638 c 1,19,20
 1089.70898438 618 1089.70898438 618 1117.70898438 597 c 0,21,22
 1356.70898438 420 1356.70898438 420 1277.70898438 210 c 0,23,24
 1219.70898438 55 1219.70898438 55 988.708984375 -23 c 0,25,26
 862.708984375 -65 862.708984375 -65 607.708984375 -65 c 1,27,28
 607.708984375 -65 607.708984375 -65 589.708984375 -66 c 0,29,30
 500.708984375 -71 500.708984375 -71 502.708984375 43 c 2,31,-1
 535.708984375 1435 l 2,32,33
 538.708984375 1528 538.708984375 1528 628.708984375 1528 c 0,9,10
705.708984375 530 m 1,34,-1
 700.708984375 124 l 1,35,36
 767.708984375 116 767.708984375 116 829.708984375 127 c 0,37,38
 893.708984375 139 893.708984375 139 983.708984375 186 c 0,39,40
 1089.70898438 241 1089.70898438 241 1100.70898438 339 c 0,41,42
 1104.70898438 376 1104.70898438 376 1021.70898438 450 c 0,43,44
 952.708984375 512 952.708984375 512 860.708984375 525 c 0,45,46
 763.708984375 538 763.708984375 538 705.708984375 530 c 1,34,-1
EndSplineSet
EndChar

StartChar: C
Encoding: 67 67 38
Width: 1800
GlyphClass: 2
Flags: W
LayerCount: 2
Fore
SplineSet
849.999023438 1244 m 0,0,1
 788.999023438 1181 788.999023438 1181 741.999023438 1056 c 0,2,3
 689.999023438 915 689.999023438 915 689.999023438 673 c 0,4,5
 689.999023438 450 689.999023438 450 750.999023438 304 c 0,6,7
 798.999023438 189 798.999023438 189 880.999023438 183 c 0,8,9
 995.999023438 174 995.999023438 174 1058.99902344 238 c 1,10,11
 1187.99902344 329 1187.99902344 329 1243.99902344 317 c 0,12,13
 1340.99902344 299 1340.99902344 299 1325.99902344 164 c 0,14,15
 1317.99902344 88 1317.99902344 88 1124.99902344 9 c 1,16,17
 1007.99902344 -57 1007.99902344 -57 889.999023438 -50 c 0,18,19
 734.999023438 -42 734.999023438 -42 616.999023438 148 c 1,20,21
 470.999023438 340 470.999023438 340 471.999023438 649 c 0,22,23
 471.999023438 1018 471.999023438 1018 605.999023438 1209 c 1,24,25
 761.999023438 1485 761.999023438 1485 900.999023438 1520 c 0,26,27
 1033.99902344 1553 1033.99902344 1553 1173.99902344 1468 c 1,28,29
 1300.99902344 1403 1300.99902344 1403 1304.99902344 1346 c 0,30,31
 1308.99902344 1273 1308.99902344 1273 1269.99902344 1235 c 0,32,33
 1198.99902344 1169 1198.99902344 1169 1123.99902344 1221 c 1,34,35
 1064.99902344 1268 1064.99902344 1268 1007.99902344 1289 c 0,36,37
 922.999023438 1319 922.999023438 1319 849.999023438 1244 c 0,0,1
EndSplineSet
EndChar

StartChar: D
Encoding: 68 68 39
Width: 1800
GlyphClass: 2
Flags: W
LayerCount: 2
Fore
SplineSet
559.331054688 1525 m 0,0,1
 583.331054688 1525 583.331054688 1525 603.331054688 1520 c 0,2,3
 615.331054688 1519 615.331054688 1519 627.331054688 1517 c 0,4,5
 867.331054688 1476 867.331054688 1476 1042.33105469 1243 c 1,6,7
 1388.33105469 910 1388.33105469 910 1365.33105469 539 c 0,8,9
 1350.33105469 268 1350.33105469 268 1094.33105469 52 c 1,10,11
 1014.33105469 -48 1014.33105469 -48 780.331054688 -53 c 0,12,13
 643.331054688 -56 643.331054688 -56 556.331054688 -51 c 0,14,15
 541.331054688 -54 541.331054688 -54 521.331054688 -54 c 0,16,17
 430.331054688 -52 430.331054688 -52 433.331054688 51 c 2,18,-1
 467.331054688 1436 l 2,19,20
 469.331054688 1525 469.331054688 1525 559.331054688 1525 c 0,0,1
658.331054688 1290 m 1,21,-1
 632.331054688 138 l 1,22,-1
 772.331054688 135 l 1,23,24
 987.331054688 143 987.331054688 143 1053.33105469 255 c 1,25,26
 1154.33105469 406 1154.33105469 406 1163.33105469 549 c 0,27,28
 1180.33105469 798 1180.33105469 798 961.331054688 1081 c 1,29,30
 827.331054688 1276 827.331054688 1276 658.331054688 1290 c 1,21,-1
EndSplineSet
EndChar

StartChar: E
Encoding: 69 69 40
Width: 1800
GlyphClass: 2
Flags: W
LayerCount: 2
Fore
SplineSet
676.517578125 1501 m 2,0,-1
 1166.51757812 1505 l 2,1,2
 1307.51757812 1506 1307.51757812 1506 1310.51757812 1390 c 0,3,4
 1313.51757812 1299 1313.51757812 1299 1172.51757812 1298 c 0,5,6
 922.517578125 1296 922.517578125 1296 711.517578125 1294 c 1,7,-1
 703.517578125 688 l 1,8,-1
 1057.51757812 691 l 2,9,10
 1193.51757812 692 1193.51757812 692 1198.51757812 577 c 0,11,12
 1201.51757812 485 1201.51757812 485 1061.51757812 484 c 2,13,-1
 700.517578125 481 l 1,14,-1
 688.517578125 167 l 1,15,-1
 1104.51757812 170 l 2,16,17
 1245.51757812 171 1245.51757812 171 1248.51757812 56 c 0,18,19
 1251.51757812 -36 1251.51757812 -36 1110.51757812 -37 c 2,20,-1
 614.517578125 -41 l 2,21,22
 602.517578125 -39 602.517578125 -39 592.517578125 -39 c 0,23,24
 584.517578125 -39 584.517578125 -39 576.517578125 -39 c 0,25,26
 486.517578125 -37 486.517578125 -37 489.517578125 63 c 2,27,-1
 522.517578125 1416 l 2,28,29
 524.517578125 1503 524.517578125 1503 616.517578125 1502 c 0,30,31
 634.517578125 1502 634.517578125 1502 653.517578125 1499 c 0,32,33
 659.517578125 1498 659.517578125 1498 676.517578125 1501 c 2,0,-1
EndSplineSet
EndChar

StartChar: F
Encoding: 70 70 41
Width: 1800
GlyphClass: 2
Flags: W
LayerCount: 2
Fore
SplineSet
615.490234375 1501 m 0,0,1
 636.490234375 1501 636.490234375 1501 653.490234375 1497 c 1,2,3
 662.490234375 1499 662.490234375 1499 675.490234375 1499 c 2,4,-1
 1166.49023438 1503 l 2,5,6
 1307.49023438 1504 1307.49023438 1504 1310.49023438 1389 c 0,7,8
 1313.49023438 1297 1313.49023438 1297 1172.49023438 1296 c 0,9,10
 922.490234375 1294 922.490234375 1294 710.490234375 1292 c 1,11,-1
 701.490234375 751 l 1,12,-1
 1055.49023438 754 l 2,13,14
 1192.49023438 755 1192.49023438 755 1196.49023438 639 c 0,15,16
 1199.49023438 548 1199.49023438 548 1059.49023438 547 c 2,17,-1
 698.490234375 544 l 1,18,-1
 686.490234375 59 l 2,19,20
 683.490234375 -43 683.490234375 -43 577.490234375 -41 c 0,21,22
 487.490234375 -39 487.490234375 -39 489.490234375 61 c 2,23,-1
 523.490234375 1414 l 2,24,25
 525.490234375 1501 525.490234375 1501 615.490234375 1501 c 0,0,1
EndSplineSet
EndChar

StartChar: G
Encoding: 71 71 42
Width: 1800
GlyphClass: 2
Flags: W
LayerCount: 2
Fore
SplineSet
1045.69238281 276 m 1,0,1
 1118.69238281 375 1118.69238281 375 1139.69238281 555 c 1,2,-1
 894.692382812 551 l 2,3,4
 814.692382812 550 814.692382812 550 812.692382812 658 c 0,5,6
 810.692382812 757 810.692382812 757 905.692382812 759 c 2,7,-1
 1299.69238281 767 l 2,8,9
 1394.69238281 768 1394.69238281 768 1386.69238281 668 c 0,10,11
 1356.69238281 287 1356.69238281 287 1162.69238281 111 c 1,12,13
 1026.69238281 -58 1026.69238281 -58 827.692382812 -49 c 0,14,15
 674.692382812 -42 674.692382812 -42 558.692382812 150 c 1,16,17
 411.692382812 342 411.692382812 342 412.692382812 650 c 0,18,19
 412.692382812 1018 412.692382812 1018 564.692382812 1242 c 1,20,21
 680.692382812 1464 680.692382812 1464 838.692382812 1508 c 0,22,23
 999.692382812 1550 999.692382812 1550 1108.69238281 1452 c 1,24,25
 1266.69238281 1352 1266.69238281 1352 1292.69238281 1262 c 0,26,27
 1318.69238281 1171 1318.69238281 1171 1256.69238281 1127 c 0,28,29
 1188.69238281 1079 1188.69238281 1079 1089.69238281 1200 c 1,30,31
 1031.69238281 1297 1031.69238281 1297 928.692382812 1304 c 0,32,33
 865.692382812 1308 865.692382812 1308 793.692382812 1250 c 0,34,35
 717.692382812 1189 717.692382812 1189 672.692382812 1057 c 0,36,37
 619.692382812 905 619.692382812 905 619.692382812 674 c 0,38,39
 619.692382812 422 619.692382812 422 677.692382812 305 c 0,40,41
 743.692382812 171 743.692382812 171 825.692382812 164 c 0,42,43
 962.692382812 152 962.692382812 152 1045.69238281 276 c 1,0,1
EndSplineSet
EndChar

StartChar: H
Encoding: 72 72 43
Width: 1800
GlyphClass: 2
Flags: W
LayerCount: 2
Fore
SplineSet
540.029296875 1513 m 0,0,1
 638.029296875 1513 638.029296875 1513 637.029296875 1420 c 2,2,-1
 628.029296875 840 l 1,3,-1
 1181.02929688 840 l 1,4,-1
 1193.02929688 1424 l 2,5,6
 1195.02929688 1510 1195.02929688 1510 1285.02929688 1512 c 0,7,8
 1389.02929688 1512 1389.02929688 1512 1387.02929688 1419 c 2,9,-1
 1360.02929688 55 l 2,10,11
 1359.02929688 -48 1359.02929688 -48 1251.02929688 -46 c 0,12,13
 1161.02929688 -44 1161.02929688 -44 1163.02929688 57 c 0,14,15
 1170.02929688 344 1170.02929688 344 1177.02929688 631 c 1,16,-1
 618.029296875 631 l 1,17,-1
 610.029296875 56 l 2,18,19
 608.029296875 -47 608.029296875 -47 500.029296875 -46 c 0,20,21
 410.029296875 -44 410.029296875 -44 413.029296875 57 c 2,22,-1
 446.029296875 1425 l 2,23,24
 448.029296875 1511 448.029296875 1511 540.029296875 1513 c 0,0,1
EndSplineSet
EndChar

StartChar: I
Encoding: 73 73 44
Width: 1800
GlyphClass: 2
Flags: W
LayerCount: 2
Fore
SplineSet
604.985351562 1494 m 2,0,-1
 1220.98535156 1494 l 2,1,2
 1341.98535156 1494 1341.98535156 1494 1343.98535156 1386 c 0,3,4
 1345.98535156 1287 1345.98535156 1287 1214.98535156 1287 c 2,5,-1
 980.985351562 1287 l 1,6,-1
 962.985351562 165 l 1,7,-1
 1206.98535156 165 l 2,8,9
 1327.98535156 165 1327.98535156 165 1329.98535156 57 c 0,10,11
 1331.98535156 -42 1331.98535156 -42 1200.98535156 -42 c 2,12,-1
 581.985351562 -42 l 2,13,14
 455.985351562 -42 455.985351562 -42 455.985351562 71 c 0,15,16
 455.985351562 166 455.985351562 166 590.985351562 165 c 2,17,-1
 766.985351562 165 l 1,18,-1
 795.985351562 1287 l 1,19,-1
 595.985351562 1287 l 2,20,21
 469.985351562 1287 469.985351562 1287 469.985351562 1399 c 0,22,23
 469.985351562 1494 469.985351562 1494 604.985351562 1494 c 2,0,-1
EndSplineSet
EndChar

StartChar: J
Encoding: 74 74 45
Width: 1800
GlyphClass: 2
Flags: W
LayerCount: 2
Fore
SplineSet
656.37109375 1498 m 2,0,-1
 1385.37109375 1498 l 2,1,2
 1506.37109375 1498 1506.37109375 1498 1508.37109375 1395 c 0,3,4
 1510.37109375 1300 1510.37109375 1300 1379.37109375 1301 c 2,5,-1
 1145.37109375 1301 l 1,6,-1
 1145.37109375 303 l 2,7,8
 1145.37109375 -76 1145.37109375 -76 773.37109375 -58 c 0,9,10
 262.37109375 -34 262.37109375 -34 293.37109375 400 c 0,11,12
 299.37109375 488 299.37109375 488 397.37109375 489 c 0,13,14
 494.37109375 488 494.37109375 488 494.37109375 395 c 0,15,16
 494.37109375 140 494.37109375 140 770.37109375 140 c 0,17,18
 941.37109375 140 941.37109375 140 941.37109375 297 c 2,19,-1
 941.37109375 1301 l 1,20,-1
 647.37109375 1301 l 2,21,22
 521.37109375 1301 521.37109375 1301 521.37109375 1408 c 0,23,24
 521.37109375 1498 521.37109375 1498 656.37109375 1498 c 2,0,-1
EndSplineSet
EndChar

StartChar: K
Encoding: 75 75 46
Width: 1800
GlyphClass: 2
Flags: W
LayerCount: 2
Fore
SplineSet
616.177734375 1521 m 0,0,1
 715.177734375 1521 715.177734375 1521 713.177734375 1427 c 2,2,-1
 704.177734375 843 l 1,3,-1
 1074.17773438 1454 l 1,4,5
 1153.17773438 1539 1153.17773438 1539 1228.17773438 1466 c 0,6,7
 1302.17773438 1393 1302.17773438 1393 1230.17773438 1319 c 1,8,-1
 786.177734375 699 l 1,9,-1
 1256.17773438 173 l 1,10,11
 1349.17773438 95 1349.17773438 95 1284.17773438 30 c 0,12,13
 1216.17773438 -38 1216.17773438 -38 1120.17773438 41 c 1,14,-1
 694.177734375 558 l 1,15,-1
 686.177734375 45 l 2,16,17
 684.177734375 -59 684.177734375 -59 576.177734375 -57 c 0,18,19
 486.177734375 -55 486.177734375 -55 489.177734375 47 c 2,20,-1
 522.177734375 1432 l 2,21,22
 524.177734375 1519 524.177734375 1519 616.177734375 1521 c 0,0,1
EndSplineSet
EndChar

StartChar: L
Encoding: 76 76 47
Width: 1800
GlyphClass: 2
Flags: W
LayerCount: 2
Fore
SplineSet
550.548828125 -44 m 0,0,1
 460.548828125 -45 460.548828125 -45 463.548828125 61 c 2,2,-1
 496.548828125 1446 l 2,3,4
 498.548828125 1533 498.548828125 1533 590.548828125 1535 c 0,5,6
 688.548828125 1535 688.548828125 1535 686.548828125 1440 c 2,7,-1
 662.548828125 162 l 1,8,-1
 1237.54882812 177 l 2,9,10
 1336.54882812 179 1336.54882812 179 1336.54882812 74 c 0,11,12
 1336.54882812 -30 1336.54882812 -30 1240.54882812 -31 c 2,13,-1
 571.548828125 -44 l 1,14,15
 571.548828125 -44 571.548828125 -44 550.548828125 -44 c 0,0,1
EndSplineSet
EndChar

StartChar: M
Encoding: 77 77 48
Width: 1800
GlyphClass: 2
Flags: W
LayerCount: 2
Fore
SplineSet
868.223632812 -19 m 0,0,1
 809.223632812 -13 809.223632812 -13 785.223632812 144 c 2,2,-1
 648.223632812 1000 l 1,3,-1
 507.223632812 65 l 1,4,5
 473.223632812 -92 473.223632812 -92 367.223632812 -32 c 0,6,7
 273.223632812 21 273.223632812 21 309.223632812 177 c 2,8,-1
 563.223632812 1355 l 1,9,10
 584.223632812 1490 584.223632812 1490 643.223632812 1504 c 0,11,12
 703.223632812 1518 703.223632812 1518 720.223632812 1410 c 2,13,14
 720.223632812 1410 720.223632812 1410 876.223632812 383 c 1,15,-1
 1067.22363281 1360 l 2,16,17
 1100.22363281 1526 1100.22363281 1526 1164.22363281 1523 c 0,18,19
 1223.22363281 1521 1223.22363281 1521 1246.22363281 1353 c 1,20,-1
 1494.22363281 103 l 2,21,22
 1524.22363281 -40 1524.22363281 -40 1416.22363281 -53 c 0,23,24
 1301.22363281 -67 1301.22363281 -67 1267.22363281 107 c 1,25,-1
 1153.22363281 1013 l 1,26,-1
 965.223632812 156 l 2,27,28
 926.223632812 -26 926.223632812 -26 868.223632812 -19 c 0,0,1
EndSplineSet
EndChar

StartChar: N
Encoding: 78 78 49
Width: 1800
GlyphClass: 2
Flags: W
LayerCount: 2
Fore
SplineSet
1211.00292969 331 m 1,0,-1
 1239.00292969 1446 l 2,1,2
 1241.00292969 1532 1241.00292969 1532 1332.00292969 1533 c 0,3,4
 1436.00292969 1534 1436.00292969 1534 1434.00292969 1440 c 2,5,-1
 1403.00292969 89 l 2,6,7
 1401.00292969 -14 1401.00292969 -14 1293.00292969 -11 c 0,8,9
 1149.00292969 -8 1149.00292969 -8 1112.00292969 61 c 2,10,-1
 578.002929688 1045 l 1,11,-1
 563.002929688 58 l 2,12,13
 562.002929688 -44 562.002929688 -44 454.002929688 -42 c 0,14,15
 364.002929688 -40 364.002929688 -40 366.002929688 60 c 2,16,-1
 400.002929688 1415 l 2,17,18
 402.002929688 1500 402.002929688 1500 492.002929688 1502 c 0,19,20
 554.002929688 1503 554.002929688 1503 571.002929688 1473 c 2,21,-1
 1211.00292969 331 l 1,0,-1
EndSplineSet
EndChar

StartChar: O
Encoding: 79 79 50
Width: 1800
GlyphClass: 2
Flags: W
LayerCount: 2
Fore
SplineSet
980.499023438 1313 m 0,0,1
 837.499023438 1328 837.499023438 1328 732.499023438 1170 c 0,2,3
 577.499023438 936 577.499023438 936 577.499023438 575 c 0,4,5
 577.499023438 393 577.499023438 393 648.499023438 278 c 0,6,7
 731.499023438 143 731.499023438 143 872.499023438 143 c 0,8,9
 1009.49902344 143 1009.49902344 143 1087.49902344 290 c 0,10,11
 1229.49902344 555 1229.49902344 555 1231.49902344 878 c 0,12,13
 1237.49902344 1286 1237.49902344 1286 980.499023438 1313 c 0,0,1
972.499023438 1512 m 0,14,15
 1433.49902344 1505 1433.49902344 1505 1432.49902344 879 c 0,16,17
 1431.49902344 475 1431.49902344 475 1204.49902344 185 c 1,18,19
 1073.49902344 -63 1073.49902344 -63 872.499023438 -63 c 0,20,21
 664.499023438 -63 664.499023438 -63 511.499023438 160 c 1,22,23
 367.499023438 319 367.499023438 319 367.499023438 573 c 0,24,25
 367.499023438 970 367.499023438 970 609.499023438 1274 c 1,26,27
 743.499023438 1516 743.499023438 1516 972.499023438 1512 c 0,14,15
EndSplineSet
EndChar

StartChar: P
Encoding: 80 80 51
Width: 1800
GlyphClass: 2
Flags: W
LayerCount: 2
Fore
SplineSet
652.872070312 1518 m 0,0,1
 675.872070312 1518 675.872070312 1518 693.872070312 1514 c 1,2,3
 810.872070312 1528 810.872070312 1528 878.872070312 1518 c 0,4,5
 1142.87207031 1483 1142.87207031 1483 1239.87207031 1232 c 0,6,7
 1337.87207031 977 1337.87207031 977 1155.87207031 748 c 0,8,9
 1048.87207031 615 1048.87207031 615 767.872070312 592 c 0,10,11
 747.872070312 590 747.872070312 590 731.872070312 593 c 1,12,-1
 723.872070312 58 l 2,13,14
 721.872070312 -46 721.872070312 -46 613.872070312 -44 c 0,15,16
 523.872070312 -42 523.872070312 -42 525.872070312 60 c 2,17,-1
 559.872070312 1430 l 2,18,19
 561.872070312 1518 561.872070312 1518 652.872070312 1518 c 0,0,1
747.872070312 1317 m 1,20,-1
 739.872070312 782 l 1,21,22
 966.872070312 745 966.872070312 745 1022.87207031 897 c 1,23,24
 1105.87207031 1046 1105.87207031 1046 1037.87207031 1177 c 1,25,26
 981.872070312 1329 981.872070312 1329 837.872070312 1327 c 0,27,28
 799.872070312 1326 799.872070312 1326 747.872070312 1317 c 1,20,-1
EndSplineSet
EndChar

StartChar: Q
Encoding: 81 81 52
Width: 1800
GlyphClass: 2
Flags: W
LayerCount: 2
Fore
SplineSet
972.999023438 1505 m 0,0,1
 1433.99902344 1498 1433.99902344 1498 1432.99902344 886 c 0,2,3
 1431.99902344 506 1431.99902344 506 1204.99902344 207 c 0,4,5
 1193.99902344 186 1193.99902344 186 1181.99902344 168 c 1,6,-1
 1311.99902344 18 l 1,7,8
 1411.99902344 -77 1411.99902344 -77 1350.99902344 -143 c 0,9,10
 1277.99902344 -222 1277.99902344 -222 1196.99902344 -129 c 1,11,-1
 1077.99902344 43 l 1,12,13
 985.999023438 -35 985.999023438 -35 872.999023438 -35 c 0,14,15
 665.999023438 -35 665.999023438 -35 510.999023438 186 c 1,16,17
 366.999023438 341 366.999023438 341 366.999023438 587 c 0,18,19
 366.999023438 975 366.999023438 975 609.999023438 1272 c 1,20,21
 743.999023438 1509 743.999023438 1509 972.999023438 1505 c 0,0,1
979.999023438 1310 m 0,22,23
 836.999023438 1325 836.999023438 1325 732.999023438 1170 c 0,24,25
 576.999023438 939 576.999023438 939 576.999023438 589 c 0,26,27
 576.999023438 411 576.999023438 411 647.999023438 298 c 0,28,29
 731.999023438 166 731.999023438 166 872.999023438 166 c 0,30,31
 928.999023438 166 928.999023438 166 974.999023438 191 c 1,32,-1
 881.999023438 325 l 2,33,34
 812.999023438 424 812.999023438 424 881.999023438 504 c 0,35,36
 924.999023438 553 924.999023438 553 991.999023438 452 c 2,37,-1
 1086.99902344 309 l 1,38,39
 1086.99902344 309 1086.99902344 309 1087.99902344 310 c 0,40,41
 1228.99902344 569 1228.99902344 569 1231.99902344 885 c 0,42,43
 1237.99902344 1284 1237.99902344 1284 979.999023438 1310 c 0,22,23
EndSplineSet
EndChar

StartChar: R
Encoding: 82 82 53
Width: 1800
GlyphClass: 2
Flags: W
LayerCount: 2
Fore
SplineSet
1245.04199219 20 m 0,0,1
 1167.04199219 -23 1167.04199219 -23 1064.04199219 92 c 2,2,-1
 741.041992188 452 l 1,3,4
 731.041992188 451 731.041992188 451 720.041992188 450 c 0,5,6
 700.041992188 448 700.041992188 448 684.041992188 451 c 1,7,-1
 678.041992188 47 l 2,8,9
 677.041992188 -57 677.041992188 -57 568.041992188 -55 c 0,10,11
 478.041992188 -53 478.041992188 -53 480.041992188 49 c 2,12,-1
 514.041992188 1424 l 2,13,14
 516.041992188 1512 516.041992188 1512 607.041992188 1512 c 0,15,16
 630.041992188 1512 630.041992188 1512 648.041992188 1508 c 1,17,18
 740.041992188 1519 740.041992188 1519 820.041992188 1509 c 0,19,20
 1045.04199219 1483 1045.04199219 1483 1146.04199219 1218 c 0,21,22
 1276.04199219 875 1276.04199219 875 1058.04199219 602 c 0,23,24
 993.041992188 521 993.041992188 521 899.041992188 486 c 1,25,-1
 1260.04199219 198 l 2,26,27
 1387.04199219 96 1387.04199219 96 1245.04199219 20 c 0,0,1
702.041992188 1317 m 1,28,-1
 692.041992188 640 l 1,29,30
 910.041992188 604 910.041992188 604 979.041992188 761 c 0,31,32
 1072.04199219 970 1072.04199219 970 992.041992188 1179 c 0,33,34
 942.041992188 1311 942.041992188 1311 791.041992188 1314 c 0,35,36
 747.041992188 1315 747.041992188 1315 702.041992188 1317 c 1,28,-1
EndSplineSet
EndChar

StartChar: S
Encoding: 83 83 54
Width: 1800
GlyphClass: 2
Flags: W
LayerCount: 2
Fore
SplineSet
587.798828125 1238 m 0,0,1
 650.798828125 1344 650.798828125 1344 776.798828125 1434 c 0,2,3
 874.798828125 1504 874.798828125 1504 975.798828125 1498 c 0,4,5
 1049.79882812 1493 1049.79882812 1493 1141.79882812 1447 c 0,6,7
 1287.79882812 1375 1287.79882812 1375 1290.79882812 1321 c 0,8,9
 1293.79882812 1270 1293.79882812 1270 1236.79882812 1242 c 0,10,11
 1191.79882812 1220 1191.79882812 1220 1111.79882812 1262 c 0,12,13
 1009.79882812 1315 1009.79882812 1315 952.798828125 1310 c 0,14,15
 846.798828125 1300 846.798828125 1300 788.798828125 1230 c 0,16,17
 727.798828125 1155 727.798828125 1155 722.798828125 1066 c 0,18,19
 708.798828125 781 708.798828125 781 815.798828125 757 c 0,20,21
 866.798828125 746 866.798828125 746 1008.79882812 740 c 0,22,23
 1155.79882812 733 1155.79882812 733 1240.79882812 645 c 0,24,25
 1360.79882812 520 1360.79882812 520 1356.79882812 459 c 0,26,27
 1341.79882812 206 1341.79882812 206 1117.79882812 53 c 0,28,29
 978.798828125 -42 978.798828125 -42 856.798828125 -43 c 0,30,31
 753.798828125 -44 753.798828125 -44 651.798828125 6 c 0,32,33
 555.798828125 53 555.798828125 53 515.798828125 88 c 0,34,35
 435.798828125 159 435.798828125 159 443.798828125 219 c 0,36,37
 452.798828125 285 452.798828125 285 503.798828125 300 c 0,38,39
 564.798828125 317 564.798828125 317 645.798828125 241 c 0,40,41
 711.798828125 179 711.798828125 179 764.798828125 159 c 0,42,43
 847.798828125 129 847.798828125 129 916.798828125 148 c 0,44,45
 1031.79882812 180 1031.79882812 180 1083.79882812 248 c 0,46,47
 1161.79882812 353 1161.79882812 353 1146.79882812 429 c 0,48,49
 1121.79882812 557 1121.79882812 557 874.798828125 551 c 0,50,51
 600.798828125 545 600.798828125 545 538.798828125 825 c 0,52,53
 485.798828125 1066 485.798828125 1066 587.798828125 1238 c 0,0,1
EndSplineSet
EndChar

StartChar: T
Encoding: 84 84 55
Width: 1800
GlyphClass: 2
Flags: W
LayerCount: 2
Fore
SplineSet
479.985351562 1500 m 2,0,-1
 1322.98535156 1500 l 2,1,2
 1452.98535156 1500 1452.98535156 1500 1454.98535156 1402 c 0,3,4
 1456.98535156 1310 1456.98535156 1310 1322.98535156 1310 c 2,5,-1
 1011.98535156 1309 l 1,6,-1
 992.985351562 50 l 2,7,8
 990.985351562 -52 990.985351562 -52 883.985351562 -50 c 0,9,10
 794.985351562 -48 794.985351562 -48 795.985351562 52 c 2,11,-1
 820.985351562 1308 l 1,12,13
 664.985351562 1307 664.985351562 1307 470.985351562 1307 c 0,14,15
 344.985351562 1307 344.985351562 1307 344.985351562 1412 c 0,16,17
 344.985351562 1500 344.985351562 1500 479.985351562 1500 c 2,0,-1
EndSplineSet
EndChar

StartChar: U
Encoding: 85 85 56
Width: 1800
GlyphClass: 2
Flags: W
LayerCount: 2
Fore
SplineSet
-316.58203125 1999 m 1024,0,-1
1264.41796875 1485 m 0,1,2
 1374.41796875 1483 1374.41796875 1483 1369.41796875 1311 c 2,3,-1
 1354.41796875 744 l 2,4,5
 1333.41796875 -41 1333.41796875 -41 891.41796875 -40 c 0,6,7
 425.41796875 -39 425.41796875 -39 430.41796875 762 c 2,8,-1
 433.41796875 1299 l 2,9,10
 434.41796875 1498 434.41796875 1498 535.41796875 1498 c 0,11,12
 634.41796875 1497 634.41796875 1497 633.41796875 1324 c 2,13,-1
 631.41796875 777 l 2,14,15
 627.41796875 132 627.41796875 132 894.41796875 139 c 0,16,17
 1142.41796875 145 1142.41796875 145 1150.41796875 765 c 1,18,-1
 1162.41796875 1332 l 2,19,20
 1165.41796875 1487 1165.41796875 1487 1264.41796875 1485 c 0,1,2
EndSplineSet
EndChar

StartChar: V
Encoding: 86 86 57
Width: 1800
GlyphClass: 2
Flags: W
LayerCount: 2
Fore
SplineSet
881.5546875 -41 m 0,0,1
 832.5546875 -12 832.5546875 -12 802.5546875 143 c 1,2,-1
 511.5546875 1260 l 1,3,4
 437.5546875 1512 437.5546875 1512 586.5546875 1512 c 0,5,6
 658.5546875 1512 658.5546875 1512 679.5546875 1442 c 1,7,-1
 899.5546875 324 l 1,8,-1
 1120.5546875 1442 l 1,9,10
 1140.5546875 1512 1140.5546875 1512 1212.5546875 1512 c 0,11,12
 1362.5546875 1512 1362.5546875 1512 1288.5546875 1260 c 1,13,-1
 997.5546875 143 l 1,14,15
 967.5546875 -16 967.5546875 -16 917.5546875 -41 c 0,16,17
 899.5546875 -50 899.5546875 -50 881.5546875 -41 c 0,0,1
EndSplineSet
EndChar

StartChar: W
Encoding: 87 87 58
Width: 1800
GlyphClass: 2
Flags: W
LayerCount: 2
Fore
SplineSet
1143.94433594 -55 m 0,0,1
 1092.94433594 -24 1092.94433594 -24 1063.94433594 131 c 2,2,-1
 899.944335938 1010 l 1,3,-1
 735.944335938 132 l 2,4,5
 705.944335938 -32 705.944335938 -32 655.944335938 -54 c 0,6,7
 638.944335938 -62 638.944335938 -62 620.944335938 -54 c 0,8,9
 570.944335938 -31 570.944335938 -31 540.944335938 132 c 1,10,-1
 249.944335938 1263 l 1,11,12
 175.944335938 1518 175.944335938 1518 324.944335938 1519 c 0,13,14
 396.944335938 1519 396.944335938 1519 417.944335938 1447 c 1,15,-1
 638.944335938 315 l 1,16,-1
 839.944335938 1447 l 2,17,18
 852.944335938 1518 852.944335938 1518 898.944335938 1519 c 0,19,20
 947.944335938 1519 947.944335938 1519 959.944335938 1446 c 2,21,-1
 1160.94433594 314 l 1,22,-1
 1381.94433594 1446 l 1,23,24
 1403.94433594 1517 1403.94433594 1517 1475.94433594 1518 c 0,25,26
 1623.94433594 1518 1623.94433594 1518 1549.94433594 1262 c 1,27,-1
 1258.94433594 131 l 1,28,29
 1227.94433594 -33 1227.94433594 -33 1178.94433594 -55 c 0,30,31
 1160.94433594 -63 1160.94433594 -63 1143.94433594 -55 c 0,0,1
EndSplineSet
EndChar

StartChar: X
Encoding: 88 88 59
Width: 1800
GlyphClass: 2
Flags: W
LayerCount: 2
Fore
SplineSet
492 1498 m 0,0,1
 573 1545 573 1545 665 1408 c 1,2,-1
 900 927 l 1,3,-1
 1135 1408 l 1,4,5
 1227 1545 1227 1545 1308 1498 c 0,6,7
 1413 1437 1413 1437 1341 1344 c 1,8,-1
 984 755 l 1,9,-1
 1377 113 l 1,10,11
 1436 36 1436 36 1365 -18 c 0,12,13
 1275 -86 1275 -86 1215 -10 c 1,14,-1
 900 586 l 1,15,-1
 585 -10 l 1,16,17
 525 -87 525 -87 435 -18 c 0,18,19
 364 36 364 36 423 113 c 1,20,-1
 816 755 l 1,21,-1
 459 1344 l 1,22,23
 387 1437 387 1437 492 1498 c 0,0,1
EndSplineSet
EndChar

StartChar: Y
Encoding: 89 89 60
Width: 1800
GlyphClass: 2
Flags: W
LayerCount: 2
Fore
SplineSet
1314.05664062 1496 m 0,0,1
 1400.05664062 1450 1400.05664062 1450 1362.05664062 1370 c 1,2,-1
 878.056640625 47 l 1,3,4
 838.056640625 -87 838.056640625 -87 767.056640625 -30 c 0,5,6
 715.056640625 9 715.056640625 9 765.056640625 170 c 2,7,-1
 867.056640625 500 l 1,8,-1
 445.056640625 1358 l 1,9,10
 396.056640625 1437 396.056640625 1437 475.056640625 1491 c 0,11,12
 561.056640625 1550 561.056640625 1550 625.056640625 1446 c 1,13,-1
 933.056640625 711 l 1,14,-1
 1176.05664062 1441 l 1,15,16
 1226.05664062 1544 1226.05664062 1544 1314.05664062 1496 c 0,0,1
EndSplineSet
EndChar

StartChar: Z
Encoding: 90 90 61
Width: 1800
GlyphClass: 2
Flags: W
LayerCount: 2
Fore
SplineSet
1331.99609375 1242 m 1,0,-1
 685.99609375 169 l 1,1,-1
 1277.99609375 166 l 2,2,3
 1401.99609375 166 1401.99609375 166 1400.99609375 53 c 0,4,5
 1400.99609375 -53 1400.99609375 -53 1276.99609375 -52 c 2,6,-1
 520.99609375 -46 l 2,7,8
 398.99609375 -45 398.99609375 -45 398.99609375 59 c 0,9,10
 398.99609375 116 398.99609375 116 439.99609375 165 c 1,11,-1
 1110.99609375 1285 l 1,12,-1
 520.99609375 1290 l 2,13,14
 398.99609375 1291 398.99609375 1291 398.99609375 1395 c 0,15,16
 398.99609375 1506 398.99609375 1506 514.99609375 1506 c 2,17,-1
 1277.99609375 1502 l 2,18,19
 1401.99609375 1502 1401.99609375 1502 1400.99609375 1389 c 0,20,21
 1400.99609375 1323 1400.99609375 1323 1331.99609375 1242 c 1,0,-1
EndSplineSet
EndChar

StartChar: bracketleft
Encoding: 91 91 62
Width: 1800
GlyphClass: 2
Flags: W
LayerCount: 2
Fore
SplineSet
1040.00488281 1518 m 2,0,1
 1126.00488281 1519 1126.00488281 1519 1126.00488281 1419 c 0,2,3
 1126.00488281 1324 1126.00488281 1324 1017.00488281 1324 c 2,4,-1
 839.004882812 1323 l 1,5,-1
 818.004882812 -225 l 1,6,7
 945.004882812 -224 945.004882812 -224 1072.00488281 -222 c 0,8,9
 1163.00488281 -221 1163.00488281 -221 1163.00488281 -322 c 0,10,11
 1163.00488281 -415 1163.00488281 -415 1054.00488281 -415 c 0,12,13
 1046.00488281 -415 1046.00488281 -415 736.004882812 -414 c 0,14,15
 636.004882812 -413 636.004882812 -413 637.004882812 -287 c 2,16,-1
 649.004882812 1393 l 2,17,18
 650.004882812 1515 650.004882812 1515 748.004882812 1516 c 2,19,-1
 1040.00488281 1518 l 2,0,1
EndSplineSet
EndChar

StartChar: backslash
Encoding: 92 92 63
Width: 1800
GlyphClass: 2
Flags: W
LayerCount: 2
Fore
SplineSet
573.760742188 1609 m 0,0,1
 648.760742188 1647 648.760742188 1647 679.760742188 1582 c 1,2,-1
 1261.76074219 40 l 1,3,4
 1300.76074219 -42 1300.76074219 -42 1218.76074219 -78 c 0,5,6
 1135.76074219 -115 1135.76074219 -115 1098.76074219 -32 c 1,7,-1
 534.760742188 1509 l 1,8,9
 504.760742188 1574 504.760742188 1574 573.760742188 1609 c 0,0,1
EndSplineSet
EndChar

StartChar: bracketright
Encoding: 93 93 64
Width: 1800
GlyphClass: 2
Flags: W
LayerCount: 2
Fore
SplineSet
759.995117188 1518 m 2,0,-1
 1051.99511719 1516 l 2,1,2
 1149.99511719 1516 1149.99511719 1516 1150.99511719 1393 c 2,3,-1
 1162.99511719 -287 l 2,4,5
 1163.99511719 -412 1163.99511719 -412 1063.99511719 -414 c 0,6,7
 747.995117188 -419 747.995117188 -419 745.995117188 -417 c 0,8,9
 636.995117188 -418 636.995117188 -418 636.995117188 -322 c 0,10,11
 636.995117188 -221 636.995117188 -221 727.995117188 -222 c 0,12,13
 854.995117188 -223 854.995117188 -223 981.995117188 -225 c 1,14,-1
 960.995117188 1323 l 1,15,-1
 782.995117188 1324 l 2,16,17
 673.995117188 1324 673.995117188 1324 673.995117188 1419 c 0,18,19
 673.995117188 1519 673.995117188 1519 759.995117188 1518 c 2,0,-1
EndSplineSet
EndChar

StartChar: asciicircum
Encoding: 94 94 65
Width: 1800
GlyphClass: 2
Flags: W
LayerCount: 2
Fore
SplineSet
899.345703125 1647 m 0,0,1
 927.345703125 1648 927.345703125 1648 955.345703125 1599 c 1,2,-1
 1207.34570312 1293 l 1,3,4
 1277.34570312 1216 1277.34570312 1216 1227.34570312 1164 c 0,5,6
 1151.34570312 1084 1151.34570312 1084 1081.34570312 1161 c 1,7,-1
 899.345703125 1423 l 1,8,-1
 719.345703125 1161 l 1,9,10
 649.345703125 1084 649.345703125 1084 571.345703125 1164 c 0,11,12
 523.345703125 1216 523.345703125 1216 593.345703125 1293 c 1,13,-1
 843.345703125 1599 l 1,14,15
 872.345703125 1648 872.345703125 1648 899.345703125 1647 c 0,0,1
EndSplineSet
EndChar

StartChar: underscore
Encoding: 95 95 66
Width: 1800
GlyphClass: 2
Flags: W
LayerCount: 2
Fore
SplineSet
1423 -160 m 1,0,-1
 1423 -345 l 1,1,-1
 377 -345 l 1,2,-1
 377 -160 l 1,3,-1
 1423 -160 l 1,0,-1
EndSplineSet
EndChar

StartChar: grave
Encoding: 96 96 67
Width: 1800
GlyphClass: 2
Flags: W
LayerCount: 2
Fore
SplineSet
726.69921875 1636 m 0,0,1
 800.69921875 1696 800.69921875 1696 857.69921875 1625 c 2,2,-1
 1065.69921875 1365 l 2,3,4
 1146.69921875 1263 1146.69921875 1263 1093.69921875 1210 c 0,5,6
 1037.69921875 1154 1037.69921875 1154 949.69921875 1250 c 2,7,-1
 712.69921875 1510 l 2,8,9
 651.69921875 1577 651.69921875 1577 726.69921875 1636 c 0,0,1
EndSplineSet
EndChar

StartChar: a
Encoding: 97 97 68
Width: 1800
GlyphClass: 2
Flags: W
LayerCount: 2
Fore
SplineSet
1097.96484375 45 m 1,0,1
 938.96484375 -60 938.96484375 -60 883.96484375 -60 c 0,2,3
 712.96484375 -62 712.96484375 -62 626.96484375 -12 c 0,4,5
 539.96484375 38 539.96484375 38 512.96484375 172 c 0,6,7
 495.96484375 252 495.96484375 252 497.96484375 317 c 1,8,9
 516.96484375 452 516.96484375 452 560.96484375 512 c 0,10,11
 657.96484375 644 657.96484375 644 848.96484375 695 c 0,12,13
 940.96484375 719 940.96484375 719 1010.96484375 686 c 1,14,15
 1014.96484375 739 1014.96484375 739 1018.96484375 793 c 1,16,17
 1018.96484375 793 1018.96484375 793 978.96484375 855 c 1,18,19
 978.96484375 855 978.96484375 855 886.96484375 871 c 0,20,21
 865.96484375 871 865.96484375 871 762.96484375 831 c 0,22,23
 623.96484375 777 623.96484375 777 609.96484375 822 c 0,24,25
 574.96484375 929 574.96484375 929 644.96484375 965 c 0,26,27
 729.96484375 1008 729.96484375 1008 828.96484375 1029 c 0,28,29
 1063.96484375 1080 1063.96484375 1080 1130.96484375 979 c 1,30,31
 1130.96484375 979 1130.96484375 979 1178.96484375 899 c 1,32,-1
 1200.96484375 775 l 1,33,34
 1200.96484375 775 1200.96484375 775 1190.96484375 621 c 1,35,36
 1179.96484375 530 1179.96484375 530 1214.96484375 359 c 0,37,38
 1239.96484375 233 1239.96484375 233 1266.96484375 107 c 1,39,40
 1308.96484375 29 1308.96484375 29 1300.96484375 -14.5 c 128,-1,41
 1292.96484375 -58 1292.96484375 -58 1223.96484375 -65 c 0,42,43
 1116.96484375 -81 1116.96484375 -81 1097.96484375 45 c 1,0,1
867.96484375 117 m 0,44,45
 939.96484375 114 939.96484375 114 1000.96484375 179 c 0,46,47
 1006.96484375 186 1006.96484375 186 1020.96484375 204 c 0,48,49
 1037.96484375 225 1037.96484375 225 1038.96484375 226 c 0,50,51
 1038.96484375 261 1038.96484375 261 1004.96484375 468 c 1,52,53
 1010.96484375 493 1010.96484375 493 965.96484375 515 c 0,54,55
 955.96484375 520 955.96484375 520 951.96484375 522 c 0,56,57
 873.96484375 549 873.96484375 549 785.96484375 502 c 0,58,59
 747.96484375 483 747.96484375 483 726.96484375 455 c 0,60,61
 659.96484375 364 659.96484375 364 662.96484375 283 c 0,62,63
 662.96484375 276 662.96484375 276 664.96484375 263 c 0,64,65
 665.96484375 249 665.96484375 249 666.96484375 244 c 0,66,67
 677.96484375 157 677.96484375 157 736.96484375 134 c 0,68,69
 762.96484375 123 762.96484375 123 810.96484375 120 c 0,70,71
 853.96484375 117 853.96484375 117 867.96484375 117 c 0,44,45
EndSplineSet
EndChar

StartChar: b
Encoding: 98 98 69
Width: 1800
GlyphClass: 2
Flags: W
LayerCount: 2
Fore
SplineSet
629.852539062 1610 m 0,0,1
 723.852539062 1610 723.852539062 1610 722.852539062 1511 c 2,2,-1
 715.852539062 960 l 1,3,4
 732.852539062 977 732.852539062 977 751.852539062 994 c 0,5,6
 808.852539062 1045 808.852539062 1045 885.852539062 1045 c 0,7,8
 1023.85253906 1045 1023.85253906 1045 1156.85253906 874 c 1,9,10
 1309.85253906 696 1309.85253906 696 1294.85253906 427 c 0,11,12
 1283.85253906 225 1283.85253906 225 1138.85253906 82 c 1,13,14
 1019.85253906 -49 1019.85253906 -49 910.852539062 -50 c 0,15,16
 799.852539062 -51 799.852539062 -51 699.852539062 50 c 1,17,18
 691.852539062 -45 691.852539062 -45 591.852539062 -43 c 0,19,20
 501.852539062 -41 501.852539062 -41 503.852539062 66 c 2,21,-1
 537.852539062 1517 l 2,22,23
 539.852539062 1610 539.852539062 1610 629.852539062 1610 c 0,0,1
910.852539062 145 m 0,24,25
 997.852539062 163 997.852539062 163 1039.85253906 250 c 1,26,27
 1113.85253906 358 1113.85253906 358 1116.85253906 475 c 0,28,29
 1120.85253906 647 1120.85253906 647 1037.85253906 745 c 1,30,31
 990.852539062 825 990.852539062 825 922.852539062 851 c 0,32,33
 817.852539062 890 817.852539062 890 711.852539062 729 c 1,34,-1
 705.852539062 271 l 1,35,36
 828.852539062 128 828.852539062 128 910.852539062 145 c 0,24,25
EndSplineSet
EndChar

StartChar: c
Encoding: 99 99 70
Width: 1800
GlyphClass: 2
Flags: W
LayerCount: 2
Fore
SplineSet
1101.38574219 211 m 1,0,1
 1189.38574219 270 1189.38574219 270 1245.38574219 176 c 0,2,3
 1278.38574219 120 1278.38574219 120 1193.38574219 45 c 0,4,5
 1083.38574219 -49 1083.38574219 -49 905.385742188 -48 c 0,6,7
 786.385742188 -47 786.385742188 -47 698.385742188 72 c 1,8,9
 545.385742188 220 545.385742188 220 545.385742188 443 c 0,10,11
 545.385742188 689 545.385742188 689 654.385742188 846 c 1,12,13
 764.385742188 1037 764.385742188 1037 894.385742188 1052 c 0,14,15
 970.385742188 1061 970.385742188 1061 1047.38574219 1029 c 1,16,17
 1168.38574219 988 1168.38574219 988 1208.38574219 926 c 0,18,19
 1269.38574219 830 1269.38574219 830 1201.38574219 781 c 0,20,21
 1154.38574219 747 1154.38574219 747 1057.38574219 819 c 1,22,23
 965.385742188 906 965.385742188 906 870.385742188 859 c 0,24,25
 817.385742188 833 817.385742188 833 774.385742188 737 c 0,26,27
 725.385742188 627 725.385742188 627 723.385742188 485 c 0,28,29
 720.385742188 351 720.385742188 351 773.385742188 240 c 0,30,31
 821.385742188 141 821.385742188 141 905.385742188 136 c 0,32,33
 992.385742188 131 992.385742188 131 1101.38574219 211 c 1,0,1
EndSplineSet
EndChar

StartChar: d
Encoding: 100 100 71
Width: 1800
GlyphClass: 2
Flags: W
LayerCount: 2
Fore
SplineSet
1191.74121094 1610 m 0,0,1
 1295.74121094 1610 1295.74121094 1610 1293.74121094 1511 c 2,2,-1
 1262.74121094 64 l 2,3,4
 1261.74121094 -45 1261.74121094 -45 1153.74121094 -43 c 0,5,6
 1073.74121094 -41 1073.74121094 -41 1068.74121094 43 c 1,7,8
 973.741210938 -51 973.741210938 -51 865.741210938 -50 c 0,9,10
 755.741210938 -49 755.741210938 -49 662.741210938 82 c 1,11,12
 514.741210938 230 514.741210938 230 506.741210938 427 c 0,13,14
 497.741210938 693 497.741210938 693 644.741210938 874 c 1,15,16
 747.741210938 1045 747.741210938 1045 890.741210938 1045 c 0,17,18
 967.741210938 1045 967.741210938 1045 1025.74121094 994 c 0,19,20
 1055.74121094 967 1055.74121094 967 1085.74121094 940 c 1,21,-1
 1099.74121094 1517 l 2,22,23
 1101.74121094 1608 1101.74121094 1608 1191.74121094 1610 c 0,0,1
1069.74121094 269 m 1,24,25
 1080.74121094 477 1080.74121094 477 1080.74121094 710 c 1,26,27
 963.741210938 893 963.741210938 893 853.741210938 851 c 0,28,29
 773.741210938 820 773.741210938 820 737.741210938 751 c 0,30,31
 686.741210938 652 686.741210938 652 684.741210938 475 c 0,32,33
 682.741210938 361 682.741210938 361 737.741210938 250 c 0,34,35
 780.741210938 160 780.741210938 160 865.741210938 145 c 0,36,37
 955.741210938 129 955.741210938 129 1069.74121094 269 c 1,24,25
EndSplineSet
EndChar

StartChar: e
Encoding: 101 101 72
Width: 1800
GlyphClass: 2
Flags: W
LayerCount: 2
Fore
SplineSet
697.99609375 361 m 1,0,1
 700.99609375 282 700.99609375 282 735.99609375 235 c 0,2,3
 807.99609375 136 807.99609375 136 897.99609375 137 c 0,4,5
 1024.99609375 139 1024.99609375 139 1091.99609375 217 c 0,6,7
 1154.99609375 291 1154.99609375 291 1201.99609375 301 c 0,8,9
 1249.99609375 311 1249.99609375 311 1269.99609375 271 c 0,10,11
 1316.99609375 178 1316.99609375 178 1225.99609375 97 c 0,12,13
 1063.99609375 -47 1063.99609375 -47 889.99609375 -43 c 0,14,15
 795.99609375 -41 795.99609375 -41 675.99609375 77 c 0,16,17
 513.99609375 237 513.99609375 237 513.99609375 394 c 0,18,19
 513.99609375 679 513.99609375 679 612.99609375 840 c 0,20,21
 737.99609375 1043 737.99609375 1043 865.99609375 1055 c 0,22,23
 1005.99609375 1068 1005.99609375 1068 1134.99609375 916 c 0,24,25
 1263.99609375 763 1263.99609375 763 1259.99609375 589 c 0,26,27
 1255.99609375 472 1255.99609375 472 1148.99609375 451 c 2,28,-1
 697.99609375 361 l 1,0,1
713.99609375 561 m 1,29,-1
 1098.99609375 626 l 1,30,31
 1083.99609375 744 1083.99609375 744 1002.99609375 820 c 0,32,33
 926.99609375 892 926.99609375 892 883.99609375 875 c 0,34,35
 794.99609375 841 794.99609375 841 749.99609375 744 c 0,36,37
 713.99609375 668 713.99609375 668 713.99609375 561 c 1,29,-1
EndSplineSet
EndChar

StartChar: f
Encoding: 102 102 73
Width: 1800
GlyphClass: 2
Flags: W
LayerCount: 2
Fore
SplineSet
499.146484375 946 m 128,-1,1
 500.146484375 1045 500.146484375 1045 618.146484375 1045 c 2,2,-1
 765.146484375 1045 l 1,3,4
 770.146484375 1341 770.146484375 1341 868.146484375 1481 c 0,5,6
 945.146484375 1592 945.146484375 1592 1106.14648438 1599 c 0,7,8
 1319.14648438 1606 1319.14648438 1606 1299.14648438 1494 c 0,9,10
 1282.14648438 1398 1282.14648438 1398 1162.14648438 1409 c 0,11,12
 1004.14648438 1427 1004.14648438 1427 975.146484375 1265 c 0,13,14
 957.146484375 1171 957.146484375 1171 958.146484375 1045 c 1,15,-1
 1133.14648438 1045 l 2,16,17
 1266.14648438 1045 1266.14648438 1045 1272.14648438 955 c 0,18,19
 1279.14648438 847 1279.14648438 847 1146.14648438 847 c 2,20,-1
 955.146484375 847 l 1,21,-1
 945.146484375 54 l 2,22,23
 944.146484375 -55 944.146484375 -55 835.146484375 -53 c 0,24,25
 751.146484375 -51 751.146484375 -51 752.146484375 56 c 2,26,-1
 760.146484375 847 l 1,27,-1
 606.146484375 847 l 2,28,0
 498.146484375 847 498.146484375 847 499.146484375 946 c 128,-1,1
EndSplineSet
EndChar

StartChar: g
Encoding: 103 103 74
Width: 1800
GlyphClass: 2
Flags: W
LayerCount: 2
Fore
SplineSet
1078.58984375 600 m 0,0,1
 1094.58984375 693 1094.58984375 693 1090.58984375 721 c 0,2,3
 1085.58984375 848 1085.58984375 848 975.58984375 849 c 0,4,5
 892.58984375 849 892.58984375 849 823.58984375 782 c 0,6,7
 742.58984375 707 742.58984375 707 718.58984375 473 c 0,8,9
 690.58984375 207 690.58984375 207 840.58984375 190 c 0,10,11
 979.58984375 172 979.58984375 172 1032.58984375 356 c 0,12,13
 1045.58984375 390 1045.58984375 390 1078.58984375 600 c 0,0,1
1212.58984375 933 m 0,14,15
 1295.58984375 917 1295.58984375 917 1292.58984375 797 c 2,16,-1
 1273.58984375 -34 l 2,17,18
 1260.58984375 -611 1260.58984375 -611 788.58984375 -565 c 0,19,20
 621.58984375 -549 621.58984375 -549 564.58984375 -522 c 0,21,22
 493.58984375 -488 493.58984375 -488 510.58984375 -410 c 0,23,24
 529.58984375 -324 529.58984375 -324 623.58984375 -346 c 0,25,26
 795.58984375 -388 795.58984375 -388 955.58984375 -349 c 0,27,28
 1041.58984375 -328 1041.58984375 -328 1063.58984375 -46 c 2,29,-1
 1075.58984375 107 l 1,30,31
 1020.58984375 -31 1020.58984375 -31 819.58984375 -8 c 0,32,33
 415.58984375 39 415.58984375 39 539.58984375 620 c 0,34,35
 622.58984375 1012 622.58984375 1012 924.58984375 1053 c 0,36,37
 1128.58984375 1081 1128.58984375 1081 1189.58984375 935 c 1,38,39
 1199.58984375 935 1199.58984375 935 1212.58984375 933 c 0,14,15
EndSplineSet
EndChar

StartChar: h
Encoding: 104 104 75
Width: 1800
GlyphClass: 2
Flags: W
LayerCount: 2
Fore
SplineSet
658.997070312 1611 m 0,0,1
 750.997070312 1611 750.997070312 1611 749.997070312 1511 c 2,2,-1
 742.997070312 919 l 1,3,4
 822.997070312 1035 822.997070312 1035 955.997070312 1035 c 0,5,6
 1271.99707031 1034 1271.99707031 1034 1267.99707031 579 c 2,7,-1
 1263.99707031 72 l 2,8,9
 1262.99707031 -49 1262.99707031 -49 1167.99707031 -57 c 0,10,11
 1060.99707031 -66 1060.99707031 -66 1061.99707031 54 c 2,12,-1
 1064.99707031 533 l 2,13,14
 1066.99707031 799 1066.99707031 799 960.997070312 812 c 0,15,16
 842.997070312 828 842.997070312 828 742.997070312 641 c 1,17,-1
 728.997070312 64 l 2,18,19
 724.997070312 -45 724.997070312 -45 618.997070312 -43 c 0,20,21
 529.997070312 -41 529.997070312 -41 531.997070312 66 c 2,22,-1
 564.997070312 1517 l 2,23,24
 566.997070312 1609 566.997070312 1609 658.997070312 1611 c 0,0,1
EndSplineSet
EndChar

StartChar: k
Encoding: 107 107 78
Width: 1800
GlyphClass: 2
Flags: W
LayerCount: 2
Fore
SplineSet
654.372070312 1610 m 0,0,1
 748.372070312 1610 748.372070312 1610 746.372070312 1511 c 2,2,-1
 733.372070312 626 l 1,3,-1
 1027.37207031 1046 l 1,4,5
 1135.37207031 1144 1135.37207031 1144 1199.37207031 1072 c 0,6,7
 1267.37207031 994 1267.37207031 994 1183.37207031 920 c 1,8,-1
 933.372070312 647 l 1,9,-1
 1225.37207031 172 l 1,10,11
 1307.37207031 59 1307.37207031 59 1247.37207031 0 c 0,12,13
 1153.37207031 -93 1153.37207031 -93 1073.37207031 23 c 1,14,-1
 838.372070312 513 l 1,15,-1
 730.372070312 360 l 1,16,-1
 724.372070312 64 l 2,17,18
 722.372070312 -45 722.372070312 -45 614.372070312 -43 c 0,19,20
 524.372070312 -41 524.372070312 -41 527.372070312 66 c 2,21,-1
 560.372070312 1517 l 2,22,23
 562.372070312 1608 562.372070312 1608 654.372070312 1610 c 0,0,1
EndSplineSet
EndChar

StartChar: l
Encoding: 108 108 79
Width: 1800
GlyphClass: 2
Flags: W
LayerCount: 2
Fore
SplineSet
912.002929688 1610 m 0,0,1
 1016.00292969 1610 1016.00292969 1610 1014.00292969 1511 c 2,2,-1
 983.002929688 64 l 2,3,4
 982.002929688 -45 982.002929688 -45 874.002929688 -43 c 0,5,6
 784.002929688 -41 784.002929688 -41 786.002929688 66 c 2,7,-1
 820.002929688 1517 l 2,8,9
 822.002929688 1608 822.002929688 1608 912.002929688 1610 c 0,0,1
EndSplineSet
EndChar

StartChar: m
Encoding: 109 109 80
Width: 1800
GlyphClass: 2
Flags: W
LayerCount: 2
Fore
SplineSet
462.973632812 1094 m 0,0,1
 556.973632812 1094 556.973632812 1094 555.973632812 995 c 2,2,-1
 554.973632812 954 l 1,3,4
 611.973632812 1034 611.973632812 1034 693.973632812 1035 c 0,5,6
 850.973632812 1037 850.973632812 1037 923.973632812 888 c 1,7,8
 1009.97363281 1036 1009.97363281 1036 1140.97363281 1035 c 0,9,10
 1460.97363281 1034 1460.97363281 1034 1453.97363281 579 c 2,11,-1
 1445.97363281 82 l 2,12,13
 1443.97363281 -39 1443.97363281 -39 1349.97363281 -47 c 0,14,15
 1242.97363281 -57 1242.97363281 -57 1243.97363281 64 c 2,16,-1
 1249.97363281 525 l 2,17,18
 1253.97363281 821 1253.97363281 821 1149.97363281 825 c 0,19,20
 1032.97363281 830 1032.97363281 830 989.973632812 658 c 0,21,22
 987.973632812 655 987.973632812 655 987.973632812 597 c 2,23,-1
 979.973632812 96 l 2,24,25
 976.973632812 -25 976.973632812 -25 883.973632812 -33 c 0,26,27
 781.973632812 -42 781.973632812 -42 783.973632812 78 c 2,28,-1
 793.973632812 537 l 2,29,30
 799.973632812 822 799.973632812 822 695.973632812 827 c 0,31,32
 584.973632812 833 584.973632812 833 550.973632812 625 c 1,33,-1
 539.973632812 72 l 2,34,35
 536.973632812 -37 536.973632812 -37 432.973632812 -35 c 0,36,37
 342.973632812 -33 342.973632812 -33 345.973632812 74 c 2,38,-1
 368.973632812 1001 l 2,39,40
 370.973632812 1094 370.973632812 1094 462.973632812 1094 c 0,0,1
EndSplineSet
EndChar

StartChar: n
Encoding: 110 110 81
Width: 1800
GlyphClass: 2
Flags: W
LayerCount: 2
Fore
SplineSet
665.973632812 1094 m 0,0,1
 761.973632812 1094 761.973632812 1094 759.973632812 995 c 0,2,3
 759.973632812 966 759.973632812 966 758.973632812 936 c 1,4,5
 828.973632812 1035 828.973632812 1035 937.973632812 1035 c 0,6,7
 1257.97363281 1034 1257.97363281 1034 1250.97363281 579 c 2,8,-1
 1242.97363281 79 l 2,9,10
 1240.97363281 -42 1240.97363281 -42 1146.97363281 -50 c 0,11,12
 1038.97363281 -60 1038.97363281 -60 1040.97363281 61 c 2,13,-1
 1052.97363281 535 l 2,14,15
 1059.97363281 811 1059.97363281 811 946.973632812 823 c 0,16,17
 857.973632812 833 857.973632812 833 755.973632812 674 c 1,18,-1
 745.973632812 69 l 2,19,20
 742.973632812 -40 742.973632812 -40 635.973632812 -38 c 0,21,22
 545.973632812 -36 545.973632812 -36 548.973632812 71 c 2,23,-1
 571.973632812 1001 l 2,24,25
 573.973632812 1094 573.973632812 1094 665.973632812 1094 c 0,0,1
EndSplineSet
EndChar

StartChar: o
Encoding: 111 111 82
Width: 1800
GlyphClass: 2
Flags: W
LayerCount: 2
Fore
SplineSet
908.98828125 845 m 0,0,1
 825.98828125 842 825.98828125 842 783.98828125 754 c 0,2,3
 719.98828125 618 719.98828125 618 719.98828125 455 c 0,4,5
 719.98828125 298 719.98828125 298 765.98828125 220 c 0,6,7
 813.98828125 140 813.98828125 140 874.98828125 140 c 0,8,9
 944.98828125 140 944.98828125 140 991.98828125 220 c 0,10,11
 1085.98828125 377 1085.98828125 377 1086.98828125 501 c 0,12,13
 1087.98828125 851 1087.98828125 851 908.98828125 845 c 0,0,1
897.98828125 1032 m 0,14,15
 1278.98828125 1029 1278.98828125 1029 1275.98828125 486 c 0,16,17
 1274.98828125 233 1274.98828125 233 1158.98828125 96 c 1,18,19
 1057.98828125 -51 1057.98828125 -51 858.98828125 -49 c 0,20,21
 752.98828125 -48 752.98828125 -48 635.98828125 99 c 0,22,23
 523.98828125 241 523.98828125 241 523.98828125 473 c 0,24,25
 523.98828125 682 523.98828125 682 657.98828125 877 c 0,26,27
 764.98828125 1033 764.98828125 1033 897.98828125 1032 c 0,14,15
EndSplineSet
EndChar

StartChar: p
Encoding: 112 112 83
Width: 1800
GlyphClass: 2
Flags: W
LayerCount: 2
Fore
SplineSet
647.014648438 -571 m 0,0,1
 543.014648438 -571 543.014648438 -571 545.014648438 -471 c 2,2,-1
 577.014648438 976 l 2,3,4
 579.014648438 1085 579.014648438 1085 686.014648438 1083 c 0,5,6
 738.014648438 1082 738.014648438 1082 760.014648438 1025 c 1,7,8
 792.014648438 1064 792.014648438 1064 910.014648438 1062 c 0,9,10
 1024.01464844 1061 1024.01464844 1061 1125.01464844 919 c 1,11,12
 1255.01464844 780 1255.01464844 780 1255.01464844 594 c 0,13,14
 1256.01464844 325 1256.01464844 325 1138.01464844 178 c 1,15,16
 1031.01464844 14 1031.01464844 14 904.014648438 0 c 0,17,18
 793.014648438 -13 793.014648438 -13 749.014648438 54 c 0,19,20
 749.014648438 55 749.014648438 55 748.014648438 56 c 1,21,-1
 740.014648438 -477 l 2,22,23
 738.014648438 -571 738.014648438 -571 647.014648438 -571 c 0,0,1
765.014648438 808 m 1,24,-1
 751.014648438 290 l 1,25,26
 815.014648438 182 815.014648438 182 888.014648438 190 c 0,27,28
 984.014648438 200 984.014648438 200 1033.01464844 313 c 0,29,30
 1076.01464844 408 1076.01464844 408 1077.01464844 546 c 0,31,32
 1079.01464844 675 1079.01464844 675 1029.01464844 771 c 0,33,34
 987.014648438 853 987.014648438 853 905.014648438 870 c 0,35,36
 818.014648438 888 818.014648438 888 765.014648438 808 c 1,24,-1
EndSplineSet
EndChar

StartChar: q
Encoding: 113 113 84
Width: 1800
GlyphClass: 2
Flags: W
LayerCount: 2
Fore
SplineSet
1120.97851562 -570 m 0,0,1
 1026.97851562 -570 1026.97851562 -570 1028.97851562 -471 c 2,2,-1
 1034.97851562 -20 l 1,3,4
 1007.97851562 -44 1007.97851562 -44 915.978515625 -43 c 0,5,6
 795.978515625 -42 795.978515625 -42 697.978515625 91 c 1,7,8
 551.978515625 236 551.978515625 236 551.978515625 446 c 0,9,10
 551.978515625 714 551.978515625 714 688.978515625 874 c 1,11,12
 798.978515625 1046 798.978515625 1046 936.978515625 1046 c 0,13,14
 1013.97851562 1046 1013.97851562 1046 1053.97851562 1010 c 1,15,16
 1070.97851562 1085 1070.97851562 1085 1159.97851562 1083 c 0,17,18
 1249.97851562 1081 1249.97851562 1081 1247.97851562 974 c 2,19,-1
 1213.97851562 -477 l 2,20,21
 1211.97851562 -570 1211.97851562 -570 1120.97851562 -570 c 0,0,1
1037.97851562 216 m 1,22,-1
 1045.97851562 794 l 1,23,24
 1007.97851562 864 1007.97851562 864 920.978515625 854 c 0,25,26
 840.978515625 846 840.978515625 846 792.978515625 743 c 0,27,28
 738.978515625 628 738.978515625 628 735.978515625 500 c 0,29,30
 733.978515625 358 733.978515625 358 783.978515625 266 c 0,31,32
 835.978515625 168 835.978515625 168 927.978515625 159 c 0,33,34
 996.978515625 152 996.978515625 152 1037.97851562 216 c 1,22,-1
EndSplineSet
EndChar

StartChar: r
Encoding: 114 114 85
Width: 1800
GlyphClass: 2
Flags: W
LayerCount: 2
Fore
SplineSet
685.51171875 1094 m 0,0,1
 778.51171875 1094 778.51171875 1094 778.51171875 995 c 0,2,3
 778.51171875 977 778.51171875 977 778.51171875 958 c 1,4,5
 850.51171875 1043 850.51171875 1043 919.51171875 1045 c 0,6,7
 1016.51171875 1047 1016.51171875 1047 1102.51171875 1004 c 0,8,9
 1254.51171875 928 1254.51171875 928 1227.51171875 847 c 0,10,11
 1183.51171875 719 1183.51171875 719 1068.51171875 797 c 0,12,13
 980.51171875 858 980.51171875 858 906.51171875 835 c 0,14,15
 834.51171875 813 834.51171875 813 774.51171875 720 c 1,16,-1
 763.51171875 64 l 2,17,18
 760.51171875 -45 760.51171875 -45 655.51171875 -43 c 0,19,20
 565.51171875 -41 565.51171875 -41 568.51171875 66 c 2,21,-1
 591.51171875 1001 l 2,22,23
 593.51171875 1094 593.51171875 1094 685.51171875 1094 c 0,0,1
EndSplineSet
EndChar

StartChar: s
Encoding: 115 115 86
Width: 1800
GlyphClass: 2
Flags: W
LayerCount: 2
Fore
SplineSet
843.423828125 144 m 0,0,1
 983.423828125 130 983.423828125 130 1019.42382812 202 c 0,2,3
 1059.42382812 284 1059.42382812 284 1035.42382812 321 c 0,4,5
 994.423828125 384 994.423828125 384 873.423828125 408 c 0,6,7
 656.423828125 451 656.423828125 451 630.423828125 565 c 0,8,9
 598.423828125 708 598.423828125 708 635.923828125 804 c 128,-1,10
 673.423828125 900 673.423828125 900 764.423828125 979 c 0,11,12
 850.423828125 1054 850.423828125 1054 915.423828125 1063 c 0,13,14
 1005.42382812 1076 1005.42382812 1076 1110.42382812 1022 c 0,15,16
 1254.42382812 949 1254.42382812 949 1267.42382812 861 c 0,17,18
 1276.42382812 801 1276.42382812 801 1230.42382812 764 c 0,19,20
 1170.42382812 715 1170.42382812 715 1057.42382812 829 c 0,21,22
 1001.42382812 886 1001.42382812 886 936.423828125 881 c 0,23,24
 848.423828125 874 848.423828125 874 821.423828125 807 c 0,25,26
 789.423828125 728 789.423828125 728 807.423828125 661 c 0,27,28
 821.423828125 606 821.423828125 606 936.423828125 587 c 0,29,30
 979.423828125 580 979.423828125 580 1049.42382812 539 c 0,31,32
 1160.42382812 473 1160.42382812 473 1191.42382812 436 c 0,33,34
 1250.42382812 363 1250.42382812 363 1232.42382812 222 c 0,35,36
 1217.42382812 98 1217.42382812 98 1092.42382812 10 c 0,37,38
 997.423828125 -57 997.423828125 -57 897.423828125 -58 c 0,39,40
 815.423828125 -59 815.423828125 -59 737.423828125 -34 c 0,41,42
 674.423828125 -14 674.423828125 -14 605.423828125 26 c 0,43,44
 535.423828125 66 535.423828125 66 531.423828125 126 c 0,45,46
 527.423828125 192 527.423828125 192 573.423828125 222 c 0,47,48
 631.423828125 260 631.423828125 260 701.423828125 210 c 0,49,50
 784.423828125 150 784.423828125 150 843.423828125 144 c 0,0,1
EndSplineSet
EndChar

StartChar: t
Encoding: 116 116 87
Width: 1800
GlyphClass: 2
Flags: W
LayerCount: 2
Fore
SplineSet
820 1531 m 256,0,1
 911 1531 911 1531 911 1432 c 0,2,3
 911 1098 911 1098 911 1093 c 1,4,-1
 1085 1094 l 2,5,6
 1208 1095 1208 1095 1208 994 c 0,7,8
 1208 892 1208 892 1091 892 c 0,9,10
 984 892 984 892 907 892 c 1,11,-1
 891 64 l 2,12,13
 889 -45 889 -45 782 -43 c 0,14,15
 666 -40 666 -40 672 72 c 2,16,-1
 717 892 l 1,17,18
 717 892 717 892 678 896 c 1,19,20
 592 896 592 896 592 994 c 0,21,22
 592 1099 592 1099 687 1095 c 0,23,24
 708 1094 708 1094 722 1092 c 1,25,-1
 728 1438 l 2,26,27
 729 1531 729 1531 820 1531 c 256,0,1
EndSplineSet
EndChar

StartChar: u
Encoding: 117 117 88
Width: 1800
GlyphClass: 2
Flags: W
LayerCount: 2
Fore
SplineSet
1137.50292969 -76 m 0,0,1
 1034.50292969 -76 1034.50292969 -76 1035.50292969 23 c 2,2,-1
 1036.50292969 82 l 1,3,4
 966.502929688 -17 966.502929688 -17 857.502929688 -17 c 0,5,6
 542.502929688 -16 542.502929688 -16 546.502929688 439 c 2,7,-1
 550.502929688 930 l 2,8,9
 552.502929688 1050 552.502929688 1050 646.502929688 1059 c 0,10,11
 751.502929688 1068 751.502929688 1068 749.502929688 948 c 2,12,-1
 748.502929688 511 l 2,13,14
 746.502929688 269 746.502929688 269 796.502929688 216 c 0,15,16
 862.502929688 146 862.502929688 146 954.502929688 218 c 0,17,18
 1039.50292969 284 1039.50292969 284 1044.50292969 448 c 2,19,-1
 1056.50292969 953 l 2,20,21
 1059.50292969 1062 1059.50292969 1062 1165.50292969 1061 c 0,22,23
 1255.50292969 1059 1255.50292969 1059 1253.50292969 951 c 2,24,-1
 1229.50292969 17 l 2,25,26
 1227.50292969 -76 1227.50292969 -76 1137.50292969 -76 c 0,0,1
EndSplineSet
EndChar

StartChar: v
Encoding: 118 118 89
Width: 1800
GlyphClass: 2
Flags: W
LayerCount: 2
Fore
SplineSet
576.771484375 1046 m 0,0,1
 682.771484375 1093 682.771484375 1093 721.771484375 961 c 2,2,-1
 893.771484375 370 l 1,3,-1
 1077.77148438 961 l 2,4,5
 1118.77148438 1090 1118.77148438 1090 1222.77148438 1046 c 0,6,7
 1304.77148438 1012 1304.77148438 1012 1259.77148438 884 c 2,8,-1
 976.771484375 64 l 2,9,10
 938.771484375 -45 938.771484375 -45 900.771484375 -45 c 0,11,12
 860.771484375 -45 860.771484375 -45 823.771484375 64 c 2,13,-1
 539.771484375 884 l 2,14,15
 495.771484375 1010 495.771484375 1010 576.771484375 1046 c 0,0,1
EndSplineSet
EndChar

StartChar: w
Encoding: 119 119 90
Width: 1800
GlyphClass: 2
Flags: W
LayerCount: 2
Fore
SplineSet
985.60546875 919 m 2,0,-1
 1045.60546875 384 l 1,1,-1
 1201.60546875 915 l 2,2,3
 1243.60546875 1057 1243.60546875 1057 1320.60546875 1045 c 0,4,5
 1422.60546875 1029 1422.60546875 1029 1381.60546875 905 c 2,6,-1
 1113.60546875 72 l 2,7,8
 1073.60546875 -51 1073.60546875 -51 1032.60546875 -50 c 0,9,10
 944.60546875 -48 944.60546875 -48 927.60546875 70 c 2,11,-1
 873.60546875 447 l 1,12,-1
 784.60546875 72 l 2,13,14
 755.60546875 -50 755.60546875 -50 679.60546875 -50 c 0,15,16
 592.60546875 -50 592.60546875 -50 569.60546875 72 c 2,17,-1
 411.60546875 905 l 2,18,19
 387.60546875 1030 387.60546875 1030 479.60546875 1045 c 0,20,21
 569.60546875 1060 569.60546875 1060 578.60546875 1005 c 2,22,-1
 685.60546875 384 l 1,23,-1
 804.60546875 916 l 2,24,25
 833.60546875 1046 833.60546875 1046 900.60546875 1046 c 0,26,27
 971.60546875 1046 971.60546875 1046 985.60546875 919 c 2,0,-1
EndSplineSet
EndChar

StartChar: x
Encoding: 120 120 91
Width: 1800
GlyphClass: 2
Flags: W
LayerCount: 2
Fore
SplineSet
524.5 1027 m 0,0,1
 613.5 1099 613.5 1099 690.5 984 c 2,2,-1
 902.5 669 l 1,3,-1
 1111.5 984 l 2,4,5
 1188.5 1102 1188.5 1102 1277.5 1027 c 0,6,7
 1342.5 971 1342.5 971 1275.5 872 c 2,8,-1
 1025.5 507 l 1,9,-1
 1248.5 147 l 2,10,11
 1324.5 23 1324.5 23 1268.5 -27 c 0,12,13
 1183.5 -102 1183.5 -102 1102.5 17 c 2,14,-1
 901.5 310 l 1,15,-1
 699.5 17 l 2,16,17
 617.5 -102 617.5 -102 533.5 -27 c 0,18,19
 473.5 27 473.5 27 553.5 147 c 2,20,-1
 793.5 504 l 1,21,-1
 526.5 872 l 2,22,23
 455.5 970 455.5 970 524.5 1027 c 0,0,1
EndSplineSet
EndChar

StartChar: y
Encoding: 121 121 92
Width: 1800
GlyphClass: 2
Flags: W
LayerCount: 2
Fore
SplineSet
1254.12695312 1029 m 0,0,1
 1350.12695312 988 1350.12695312 988 1299.12695312 870 c 1,2,-1
 851.126953125 -447 l 1,3,4
 807.126953125 -607 807.126953125 -607 751.126953125 -571 c 1,5,6
 658.126953125 -528 658.126953125 -528 727.126953125 -369 c 1,7,-1
 855.126953125 91 l 1,8,-1
 510.126953125 861 l 1,9,10
 446.126953125 979 446.126953125 979 534.126953125 1026 c 0,11,12
 627.126953125 1076 627.126953125 1076 690.126953125 957 c 1,13,-1
 918.126953125 320 l 1,14,-1
 1107.12695312 951 l 1,15,16
 1158.12695312 1069 1158.12695312 1069 1254.12695312 1029 c 0,0,1
EndSplineSet
EndChar

StartChar: z
Encoding: 122 122 93
Width: 1800
GlyphClass: 2
Flags: W
LayerCount: 2
Fore
SplineSet
1238.35253906 858 m 1,0,-1
 802.352539062 139 l 1,1,-1
 1139.35253906 139 l 2,2,3
 1253.35253906 139 1253.35253906 139 1250.35253906 43 c 0,4,5
 1247.35253906 -46 1247.35253906 -46 1132.35253906 -46 c 2,6,-1
 619.352539062 -46 l 2,7,8
 531.352539062 -46 531.352539062 -46 518.352539062 31 c 0,9,10
 512.352539062 67 512.352539062 67 572.352539062 142 c 1,11,-1
 1000.35253906 848 l 1,12,-1
 658.352539062 848 l 2,13,14
 543.352539062 848 543.352539062 848 547.352539062 958 c 0,15,16
 550.352539062 1047 550.352539062 1047 665.352539062 1047 c 2,17,-1
 1178.35253906 1047 l 2,18,19
 1255.35253906 1047 1255.35253906 1047 1279.35253906 970 c 0,20,21
 1293.35253906 927 1293.35253906 927 1238.35253906 858 c 1,0,-1
EndSplineSet
EndChar

StartChar: braceleft
Encoding: 123 123 94
Width: 1800
GlyphClass: 2
Flags: W
LayerCount: 2
Fore
SplineSet
772.073242188 798 m 2,0,-1
 769.073242188 1224 l 2,1,2
 766.073242188 1620 766.073242188 1620 1091.07324219 1620 c 0,3,4
 1236.07324219 1620 1236.07324219 1620 1235.07324219 1537 c 0,5,6
 1235.07324219 1422 1235.07324219 1422 1076.07324219 1434 c 0,7,8
 953.073242188 1444 953.073242188 1444 955.073242188 1218 c 2,9,-1
 957.073242188 795 l 2,10,11
 957.073242188 690 957.073242188 690 823.073242188 568 c 1,12,13
 957.073242188 445 957.073242188 445 957.073242188 340 c 2,14,-1
 955.073242188 19 l 2,15,16
 953.073242188 -199 953.073242188 -199 1077.07324219 -197 c 0,17,18
 1219.07324219 -195 1219.07324219 -195 1219.07324219 -283 c 0,19,20
 1219.07324219 -383 1219.07324219 -383 1091.07324219 -383 c 0,21,22
 765.073242188 -383 765.073242188 -383 769.073242188 13 c 2,23,-1
 772.073242188 337 l 2,24,25
 772.073242188 385 772.073242188 385 661.073242188 449 c 0,26,27
 561.073242188 508 561.073242188 508 565.073242188 568 c 1,28,29
 561.073242188 629 561.073242188 629 661.073242188 686 c 0,30,31
 772.073242188 750 772.073242188 750 772.073242188 798 c 2,0,-1
EndSplineSet
EndChar

StartChar: bar
Encoding: 124 124 95
Width: 1800
GlyphClass: 2
Flags: W
LayerCount: 2
Fore
SplineSet
901 1715 m 0,0,1
 987 1716 987 1716 987 1638 c 2,2,-1
 989 -247 l 2,3,4
 989 -361 989 -361 901 -361 c 0,5,6
 817 -360 817 -360 816 -246 c 2,7,-1
 811 1638 l 2,8,9
 811 1714 811 1714 901 1715 c 0,0,1
EndSplineSet
EndChar

StartChar: braceright
Encoding: 125 125 96
Width: 1800
GlyphClass: 2
Flags: W
LayerCount: 2
Fore
SplineSet
1028.42675781 798 m 2,0,1
 1028.42675781 750 1028.42675781 750 1139.42675781 686 c 0,2,3
 1239.42675781 628 1239.42675781 628 1235.42675781 568 c 1,4,5
 1239.42675781 507 1239.42675781 507 1139.42675781 449 c 0,6,7
 1028.42675781 385 1028.42675781 385 1028.42675781 337 c 2,8,-1
 1031.42675781 13 l 2,9,10
 1035.42675781 -383 1035.42675781 -383 708.426757812 -383 c 0,11,12
 582.426757812 -383 582.426757812 -383 580.426757812 -283 c 0,13,14
 578.426757812 -195 578.426757812 -195 723.426757812 -197 c 0,15,16
 847.426757812 -199 847.426757812 -199 845.426757812 19 c 2,17,-1
 843.426757812 340 l 2,18,19
 842.426757812 444 842.426757812 444 977.426757812 568 c 1,20,21
 842.426757812 691 842.426757812 691 843.426757812 795 c 2,22,-1
 845.426757812 1218 l 2,23,24
 847.426757812 1444 847.426757812 1444 723.426757812 1434 c 0,25,26
 565.426757812 1422 565.426757812 1422 564.426757812 1537 c 0,27,28
 563.426757812 1620 563.426757812 1620 708.426757812 1620 c 0,29,30
 1034.42675781 1620 1034.42675781 1620 1031.42675781 1224 c 2,31,-1
 1028.42675781 798 l 2,0,1
EndSplineSet
EndChar

StartChar: asciitilde
Encoding: 126 126 97
Width: 1800
GlyphClass: 2
Flags: W
LayerCount: 2
Fore
SplineSet
673.192382812 576 m 1,0,1
 630.192382812 492 630.192382812 492 551.192382812 527 c 0,2,3
 484.192382812 557 484.192382812 557 511.192382812 648 c 0,4,5
 546.192382812 766 546.192382812 766 646.192382812 851 c 1,6,7
 720.192382812 936 720.192382812 936 787.192382812 935 c 0,8,9
 874.192382812 934 874.192382812 934 913.192382812 822 c 0,10,11
 964.192382812 684 964.192382812 684 1031.19238281 680 c 0,12,13
 1082.19238281 677 1082.19238281 677 1113.19238281 819 c 1,14,15
 1144.19238281 913 1144.19238281 913 1211.19238281 910 c 0,16,17
 1302.19238281 907 1302.19238281 907 1296.19238281 772 c 0,18,19
 1291.19238281 658 1291.19238281 658 1196.19238281 570 c 0,20,21
 1116.19238281 497 1116.19238281 497 1038.19238281 496 c 0,22,23
 935.192382812 495 935.192382812 495 880.192382812 624 c 0,24,25
 815.192382812 778 815.192382812 778 773.192382812 756 c 0,26,27
 724.192382812 732 724.192382812 732 673.192382812 576 c 1,0,1
EndSplineSet
EndChar

StartChar: cent
Encoding: 162 162 100
Width: 1800
GlyphClass: 2
Flags: W
LayerCount: 2
Fore
SplineSet
915.70703125 1740 m 0,0,1
 995.70703125 1740 995.70703125 1740 994.70703125 1629 c 0,2,3
 993.70703125 1553 993.70703125 1553 993.70703125 1477 c 1,4,5
 1065.70703125 1476 1065.70703125 1476 1114.70703125 1456 c 0,6,7
 1244.70703125 1400 1244.70703125 1400 1282.70703125 1368 c 0,8,9
 1385.70703125 1283 1385.70703125 1283 1339.70703125 1216 c 0,10,11
 1284.70703125 1139 1284.70703125 1139 1196.70703125 1202 c 0,12,13
 1062.70703125 1298 1062.70703125 1298 1014.70703125 1303 c 0,14,15
 1003.70703125 1304 1003.70703125 1304 992.70703125 1305 c 1,16,-1
 985.70703125 465 l 1,17,18
 1059.70703125 476 1059.70703125 476 1115.70703125 511 c 0,19,20
 1252.70703125 596 1252.70703125 596 1288.70703125 601 c 0,21,22
 1401.70703125 615 1401.70703125 615 1379.70703125 489 c 0,23,24
 1367.70703125 438 1367.70703125 438 1188.70703125 344 c 0,25,26
 1085.70703125 290 1085.70703125 290 983.70703125 278 c 1,27,-1
 982.70703125 160 l 2,28,29
 981.70703125 31 981.70703125 31 901.70703125 33 c 0,30,31
 810.70703125 34 810.70703125 34 811.70703125 162 c 0,32,33
 812.70703125 224 812.70703125 224 812.70703125 285 c 1,34,35
 638.70703125 321 638.70703125 321 511.70703125 475 c 0,36,37
 416.70703125 588 416.70703125 588 416.70703125 874 c 0,38,39
 416.70703125 1072 416.70703125 1072 521.70703125 1227 c 0,40,41
 646.70703125 1416 646.70703125 1416 823.70703125 1458 c 1,42,-1
 825.70703125 1628 l 2,43,44
 826.70703125 1739 826.70703125 1739 915.70703125 1740 c 0,0,1
821.70703125 1280 m 1,45,46
 722.70703125 1228 722.70703125 1228 665.70703125 1131 c 0,47,48
 584.70703125 993 584.70703125 993 584.70703125 842 c 0,49,50
 584.70703125 678 584.70703125 678 644.70703125 598 c 0,51,52
 716.70703125 499 716.70703125 499 814.70703125 471 c 1,53,54
 817.70703125 875 817.70703125 875 821.70703125 1280 c 1,45,46
EndSplineSet
EndChar

StartChar: sterling
Encoding: 163 163 101
Width: 1800
GlyphClass: 2
Flags: W
LayerCount: 2
Fore
SplineSet
616.186523438 924 m 0,0,1
 603.186523438 1195 603.186523438 1195 706.186523438 1407 c 0,2,3
 796.186523438 1595 796.186523438 1595 946.186523438 1608 c 0,4,5
 1159.18652344 1626 1159.18652344 1626 1264.18652344 1452 c 1,6,7
 1346.18652344 1340 1346.18652344 1340 1312.18652344 1284 c 0,8,9
 1268.18652344 1212 1268.18652344 1212 1206.18652344 1229 c 0,10,11
 1184.18652344 1237 1184.18652344 1237 1148.18652344 1334 c 0,12,13
 1107.18652344 1444 1107.18652344 1444 960.186523438 1434 c 0,14,15
 768.186523438 1423 768.186523438 1423 733.186523438 1035 c 0,16,17
 728.186523438 981 728.186523438 981 732.186523438 897 c 1,18,-1
 1087.18652344 904 l 2,19,20
 1154.18652344 905 1154.18652344 905 1154.18652344 814 c 0,21,22
 1154.18652344 728 1154.18652344 728 1091.18652344 727 c 0,23,24
 919.186523438 724 919.186523438 724 747.186523438 721 c 1,25,26
 759.186523438 610 759.186523438 610 781.186523438 468 c 0,27,28
 803.186523438 324 803.186523438 324 759.186523438 143 c 1,29,30
 778.186523438 147 778.186523438 147 791.186523438 146 c 0,31,32
 850.186523438 139 850.186523438 139 946.186523438 74 c 0,33,34
 1015.18652344 27 1015.18652344 27 1090.18652344 30 c 0,35,36
 1175.18652344 34 1175.18652344 34 1220.18652344 86 c 1,37,38
 1249.18652344 111 1249.18652344 111 1268.18652344 230 c 0,39,40
 1282.18652344 309 1282.18652344 309 1362.18652344 300 c 0,41,42
 1450.18652344 290 1450.18652344 290 1442.18652344 196 c 0,43,44
 1429.18652344 27 1429.18652344 27 1334.18652344 -50 c 0,45,46
 1205.18652344 -156 1205.18652344 -156 1084.18652344 -150 c 0,47,48
 1002.18652344 -146 1002.18652344 -146 937.186523438 -100 c 0,49,50
 832.186523438 -27 832.186523438 -27 752.186523438 -34 c 0,51,52
 718.186523438 -37 718.186523438 -37 670.186523438 -75 c 1,53,54
 564.186523438 -148 564.186523438 -148 530.186523438 -68 c 0,55,56
 508.186523438 -16 508.186523438 -16 540.186523438 21 c 0,57,58
 550.186523438 36 550.186523438 36 569.186523438 53 c 1,59,60
 707.186523438 227 707.186523438 227 660.186523438 540 c 0,61,62
 645.186523438 639 645.186523438 639 635.186523438 720 c 1,63,64
 554.186523438 719 554.186523438 719 456.186523438 718 c 0,65,66
 355.186523438 717 355.186523438 717 357.186523438 803 c 0,67,68
 360.186523438 893 360.186523438 893 461.186523438 894 c 0,69,70
 543.186523438 895 543.186523438 895 618.186523438 895 c 1,71,72
 617.186523438 910 617.186523438 910 616.186523438 924 c 0,0,1
EndSplineSet
EndChar

StartChar: currency
Encoding: 164 164 102
Width: 1800
GlyphClass: 2
Flags: W
LayerCount: 2
Fore
SplineSet
896 908 m 0,0,1
 895 908 895 908 894 908 c 0,2,3
 869 908 869 908 847 889 c 0,4,5
 824 870 824 870 811 835 c 0,6,7
 796 798 796 798 796 755 c 0,8,9
 796 715 796 715 807 684 c 0,10,11
 819 648 819 648 839 628 c 0,12,13
 858 608 858 608 885 603 c 0,14,15
 890 602 890 602 893 603 c 0,16,17
 917 603 917 603 936 617 c 0,18,19
 956 632 956 632 970 660 c 0,20,21
 988 694 988 694 991 737 c 0,22,23
 992 746 992 746 992 755 c 0,24,25
 992 789 992 789 982 820 c 0,26,27
 970 859 970 859 948 883 c 0,28,29
 925 907 925 907 896 908 c 0,0,1
467 1290 m 0,30,31
 541 1356 541 1356 607 1282 c 2,32,-1
 789 1081 l 2,33,34
 792 1083 792 1083 795 1084 c 0,35,36
 842 1116 842 1116 891 1117 c 0,37,38
 897 1117 897 1117 903 1116 c 0,39,40
 955 1112 955 1112 1004 1073 c 1,41,-1
 1193 1282 l 2,42,43
 1259 1356 1259 1356 1333 1290 c 0,44,45
 1406 1225 1406 1225 1339 1152 c 2,46,-1
 1144 938 l 1,47,48
 1149 930 1149 930 1154 921 c 0,49,50
 1194 844 1194 844 1193 756 c 0,51,52
 1193 748 1193 748 1193 739 c 0,53,54
 1189 647 1189 647 1141 570 c 1,55,-1
 1321 370 l 2,56,57
 1408 274 1408 274 1340 207 c 0,58,59
 1271 139 1271 139 1183 236 c 2,60,-1
 1001 437 l 1,61,62
 989 430 989 430 981 425 c 0,63,64
 937 396 937 396 890 396 c 0,65,66
 868 396 868 396 845 403 c 0,67,68
 818 411 818 411 792 429 c 1,69,-1
 617 236 l 2,70,71
 529 139 529 139 460 207 c 0,72,73
 392 274 392 274 479 370 c 2,74,-1
 645 554 l 1,75,76
 603 616 603 616 589 692 c 0,77,78
 583 723 583 723 583 754 c 0,79,80
 583 820 583 820 606 883 c 0,81,82
 620 921 620 921 642 954 c 1,83,-1
 461 1152 l 2,84,85
 394 1225 394 1225 467 1290 c 0,30,31
EndSplineSet
EndChar

StartChar: yen
Encoding: 165 165 103
Width: 1800
GlyphClass: 2
Flags: W
LayerCount: 2
Fore
SplineSet
492 1443 m 0,0,1
 556 1478 556 1478 594 1416 c 1,2,-1
 899 782 l 1,3,-1
 1206 1416 l 1,4,5
 1244 1478 1244 1478 1308 1443 c 0,6,7
 1374 1407 1374 1407 1338 1344 c 2,8,-1
 1015 700 l 1,9,-1
 1114 700 l 2,10,11
 1220 700 1220 700 1226 621 c 0,12,13
 1232 535 1232 535 1126 535 c 2,14,-1
 983 535 l 1,15,-1
 983 472 l 1,16,-1
 1114 472 l 2,17,18
 1220 472 1220 472 1226 393 c 0,19,20
 1232 307 1232 307 1126 307 c 2,21,-1
 983 307 l 1,22,23
 983 171 983 171 983 35 c 0,24,25
 983 -55 983 -55 907 -55 c 0,26,27
 823 -56 823 -56 823 34 c 2,28,-1
 823 307 l 1,29,-1
 700 307 l 2,30,31
 592 307 592 307 594 387 c 0,32,33
 596 472 596 472 702 472 c 2,34,-1
 823 472 l 1,35,-1
 823 535 l 1,36,-1
 700 535 l 2,37,38
 592 535 592 535 594 615 c 0,39,40
 596 700 596 700 702 700 c 2,41,-1
 785 700 l 1,42,-1
 462 1344 l 2,43,44
 426 1407 426 1407 492 1443 c 0,0,1
EndSplineSet
EndChar

StartChar: brokenbar
Encoding: 166 166 104
Width: 1800
GlyphClass: 2
Flags: W
LayerCount: 2
Fore
SplineSet
899.5 754 m 128,-1,1
 974.5 754 974.5 754 974.5 679 c 2,2,-1
 975.5 38 l 2,3,4
 975.5 -43 975.5 -43 905.5 -43 c 0,5,6
 824.5 -43 824.5 -43 824.5 38 c 2,7,-1
 824.5 679 l 2,8,0
 824.5 754 824.5 754 899.5 754 c 128,-1,1
899.5 1696 m 128,-1,10
 974.5 1696 974.5 1696 974.5 1621 c 2,11,-1
 975.5 980 l 2,12,13
 975.5 899 975.5 899 905.5 899 c 0,14,15
 824.5 899 824.5 899 824.5 980 c 2,16,-1
 824.5 1621 l 2,17,9
 824.5 1696 824.5 1696 899.5 1696 c 128,-1,10
EndSplineSet
EndChar

StartChar: section
Encoding: 167 167 105
Width: 1800
GlyphClass: 2
Flags: W
LayerCount: 2
Fore
SplineSet
784.05859375 1012 m 1,0,1
 741.05859375 940 741.05859375 940 750.05859375 876 c 0,2,3
 763.05859375 772 763.05859375 772 836.05859375 720 c 0,4,5
 864.05859375 700 864.05859375 700 1001.05859375 643 c 0,6,7
 1038.05859375 627 1038.05859375 627 1072.05859375 609 c 1,8,9
 1109.05859375 664 1109.05859375 664 1099.05859375 692 c 0,10,11
 1067.05859375 775 1067.05859375 775 983.05859375 854 c 0,12,13
 890.05859375 946 890.05859375 946 864.05859375 962 c 0,14,15
 820.05859375 991 820.05859375 991 790.05859375 1020 c 1,16,-1
 784.05859375 1012 l 1,0,1
1210.05859375 512 m 1,17,18
 1312.05859375 362 1312.05859375 362 1301.05859375 255 c 0,19,20
 1285.05859375 96 1285.05859375 96 1175.05859375 12 c 0,21,22
 1063.05859375 -74 1063.05859375 -74 910.05859375 -75 c 0,23,24
 795.05859375 -76 795.05859375 -76 705.05859375 -26 c 1,25,26
 625.05859375 7 625.05859375 7 569.05859375 56 c 0,27,28
 491.05859375 125 491.05859375 125 497.05859375 192 c 0,29,30
 502.05859375 242 502.05859375 242 552.05859375 252 c 0,31,32
 618.05859375 267 618.05859375 267 678.05859375 207 c 0,33,34
 753.05859375 127 753.05859375 127 812.05859375 106 c 0,35,36
 908.05859375 74 908.05859375 74 967.05859375 88 c 0,37,38
 1058.05859375 111 1058.05859375 111 1095.05859375 185 c 0,39,40
 1172.05859375 333 1172.05859375 333 1039.05859375 429 c 1,41,42
 987.05859375 484 987.05859375 484 812.05859375 560 c 1,43,44
 662.05859375 613 662.05859375 613 603.05859375 751 c 0,45,46
 554.05859375 867 554.05859375 867 589.05859375 998 c 0,47,48
 611.05859375 1080 611.05859375 1080 695.05859375 1145 c 1,49,50
 642.05859375 1227 642.05859375 1227 639.05859375 1295 c 0,51,52
 633.05859375 1453 633.05859375 1453 759.05859375 1559 c 1,53,54
 825.05859375 1641 825.05859375 1641 903.05859375 1642 c 0,55,56
 1008.05859375 1643 1008.05859375 1643 1081.05859375 1600 c 1,57,58
 1161.05859375 1567 1161.05859375 1567 1217.05859375 1518 c 0,59,60
 1295.05859375 1449 1295.05859375 1449 1289.05859375 1382 c 0,61,62
 1284.05859375 1332 1284.05859375 1332 1234.05859375 1322 c 0,63,64
 1171.05859375 1308 1171.05859375 1308 1108.05859375 1367 c 1,65,66
 1036.05859375 1444 1036.05859375 1444 1001.05859375 1461 c 0,67,68
 950.05859375 1487 950.05859375 1487 880.05859375 1454 c 0,69,70
 816.05859375 1425 816.05859375 1425 800.05859375 1352 c 0,71,72
 782.05859375 1272 782.05859375 1272 859.05859375 1175 c 0,73,74
 903.05859375 1119 903.05859375 1119 1016.05859375 1049 c 1,75,76
 1146.05859375 988 1146.05859375 988 1241.05859375 863 c 0,77,78
 1338.05859375 734 1338.05859375 734 1284.05859375 608 c 0,79,80
 1267.05859375 564 1267.05859375 564 1210.05859375 512 c 1,17,18
EndSplineSet
EndChar

StartChar: dieresis
Encoding: 168 168 106
Width: 1800
GlyphClass: 2
Flags: W
LayerCount: 2
Fore
SplineSet
1104 1370 m 0,0,1
 1227 1370 1227 1370 1227 1277 c 0,2,3
 1227 1186 1227 1186 1102 1186 c 0,4,5
 986 1186 986 1186 986 1274 c 0,6,7
 986 1370 986 1370 1104 1370 c 0,0,1
691 1370 m 0,8,9
 814 1370 814 1370 814 1277 c 0,10,11
 814 1186 814 1186 689 1186 c 0,12,13
 573 1186 573 1186 573 1274 c 0,14,15
 573 1370 573 1370 691 1370 c 0,8,9
EndSplineSet
EndChar

StartChar: copyright
Encoding: 169 169 107
Width: 1800
GlyphClass: 2
Flags: W
LayerCount: 2
Fore
SplineSet
1016.875 800 m 0,0,1
 1069.875 862 1069.875 862 1100.875 784 c 0,2,3
 1124.875 725 1124.875 725 1062.875 643 c 0,4,5
 992.875 549 992.875 549 907.875 556 c 0,6,7
 777.875 566 777.875 566 724.875 700 c 0,8,9
 676.875 821 676.875 821 676.875 911 c 0,10,11
 676.875 1064 676.875 1064 721.875 1164 c 0,12,13
 769.875 1272 769.875 1272 852.875 1306 c 0,14,15
 928.875 1338 928.875 1338 985.875 1300 c 0,16,17
 1063.875 1249 1063.875 1249 1090.875 1189 c 0,18,19
 1120.875 1123 1120.875 1123 1090.875 1066 c 0,20,21
 1058.875 1006 1058.875 1006 990.875 1094 c 0,22,23
 935.875 1166 935.875 1166 878.875 1136 c 0,24,25
 816.875 1103 816.875 1103 804.875 1040 c 0,26,27
 790.875 964 790.875 964 791.875 924 c 0,28,29
 793.875 869 793.875 869 816.875 820 c 0,30,31
 855.875 735 855.875 735 907.875 727 c 0,32,33
 950.875 722 950.875 722 1016.875 800 c 0,0,1
902.875 1452 m 2,34,-1
 901.875 1452 l 2,35,36
 816.875 1452 816.875 1452 737.875 1385 c 0,37,38
 658.875 1317 658.875 1317 613.875 1200 c 0,39,40
 569.875 1082 569.875 1082 567.875 943 c 0,41,42
 567.875 936 567.875 936 567.875 930 c 0,43,44
 567.875 799 567.875 799 606.875 684 c 0,45,46
 651.875 556 651.875 556 726.875 483 c 0,47,48
 799.875 411 799.875 411 895.875 408 c 0,49,50
 898.875 408 898.875 408 901.875 407 c 0,51,52
 989.875 407 989.875 407 1065.875 474 c 0,53,54
 1145.875 543 1145.875 543 1190.875 666 c 0,55,56
 1236.875 788 1236.875 788 1236.875 930 c 0,57,58
 1236.875 1069 1236.875 1069 1191.875 1189 c 0,59,60
 1145.875 1314 1145.875 1314 1070.875 1382 c 0,61,62
 993.875 1452 993.875 1452 902.875 1452 c 2,34,-1
892.875 1629 m 0,63,64
 896.875 1629 896.875 1629 900.875 1629 c 0,65,66
 1009.875 1629 1009.875 1629 1109.875 1549 c 0,67,68
 1214.875 1465 1214.875 1465 1302.875 1315 c 1,69,70
 1400.875 1165 1400.875 1165 1416.875 984 c 0,71,72
 1419.875 954 1419.875 954 1418.875 923 c 0,73,74
 1418.875 771 1418.875 771 1359.875 639 c 0,75,76
 1314.875 542 1314.875 542 1255.875 468 c 1,77,78
 1212.875 398 1212.875 398 1152.875 336 c 0,79,80
 1042.875 221 1042.875 221 910.875 216 c 0,81,82
 905.875 216 905.875 216 900.875 216 c 0,83,84
 779.875 216 779.875 216 666.875 318 c 0,85,86
 608.875 370 608.875 370 565.875 444 c 1,87,88
 495.875 524 495.875 524 453.875 609 c 0,89,90
 380.875 757 380.875 757 380.875 923 c 0,91,92
 380.875 938 380.875 938 380.875 953 c 0,93,94
 389.875 1144 389.875 1144 480.875 1291 c 0,95,96
 574.875 1448 574.875 1448 674.875 1538 c 0,97,98
 772.875 1626 772.875 1626 892.875 1629 c 0,63,64
EndSplineSet
EndChar

StartChar: ordfeminine
Encoding: 170 170 108
Width: 1800
GlyphClass: 2
Flags: W
LayerCount: 2
Fore
SplineSet
835.078125 918 m 0,0,1
 577.078125 938 577.078125 938 564.078125 1269 c 0,2,3
 557.078125 1467 557.078125 1467 673.078125 1602 c 0,4,5
 790.078125 1737 790.078125 1737 988.078125 1689 c 1,6,7
 1015.078125 1714 1015.078125 1714 1076.078125 1700 c 0,8,9
 1178.078125 1677 1178.078125 1677 1173.078125 1545 c 0,10,11
 1169.078125 1437 1169.078125 1437 1167.078125 1312 c 0,12,13
 1164.078125 1126 1164.078125 1126 1199.078125 1067 c 0,14,15
 1284.078125 921 1284.078125 921 1175.078125 899 c 0,16,17
 1050.078125 873 1050.078125 873 1030.078125 1005 c 1,18,19
 920.078125 908 920.078125 908 835.078125 918 c 0,0,1
896.078125 1126 m 0,20,21
 957.078125 1148 957.078125 1148 978.078125 1186 c 1,22,-1
 971.078125 1484 l 1,23,24
 939.078125 1525 939.078125 1525 876.078125 1513 c 0,25,26
 822.078125 1503 822.078125 1503 774.078125 1426 c 1,27,28
 733.078125 1370 733.078125 1370 741.078125 1266 c 0,29,30
 749.078125 1157 749.078125 1157 807.078125 1131 c 1,31,32
 843.078125 1107 843.078125 1107 896.078125 1126 c 0,20,21
EndSplineSet
EndChar

StartChar: logicalnot
Encoding: 172 172 110
Width: 1800
GlyphClass: 2
Flags: W
LayerCount: 2
Fore
SplineSet
547.504882812 646 m 0,0,1
 546.504882812 733 546.504882812 733 654.504882812 733 c 2,2,-1
 1113.50488281 733 l 2,3,4
 1250.50488281 733 1250.50488281 733 1251.50488281 646 c 0,5,6
 1251.50488281 643 1251.50488281 643 1251.50488281 641 c 0,7,8
 1252.50488281 635 1252.50488281 635 1252.50488281 628 c 2,9,-1
 1252.50488281 334 l 2,10,11
 1252.50488281 249 1252.50488281 249 1173.50488281 248 c 0,12,13
 1079.50488281 247 1079.50488281 247 1079.50488281 332 c 2,14,-1
 1079.50488281 561 l 1,15,-1
 643.504882812 561 l 2,16,17
 548.504882812 561 548.504882812 561 547.504882812 646 c 0,0,1
EndSplineSet
EndChar

StartChar: registered
Encoding: 174 174 112
Width: 1800
GlyphClass: 2
Flags: W
LayerCount: 2
Fore
SplineSet
886.875 1183 m 1,0,-1
 878.875 992 l 1,1,2
 925.875 985 925.875 985 944.875 996 c 0,3,4
 973.875 1013 973.875 1013 975.875 1089 c 0,5,6
 976.875 1167 976.875 1167 938.875 1173 c 2,7,-1
 886.875 1183 l 1,0,-1
1010.875 1304 m 0,8,9
 1071.875 1234 1071.875 1234 1079.875 1130 c 0,10,11
 1084.875 1058 1084.875 1058 1077.875 1014 c 0,12,13
 1060.875 915 1060.875 915 984.875 880 c 1,14,-1
 1063.875 712 l 2,15,16
 1115.875 602 1115.875 602 1063.875 556 c 0,17,18
 1021.875 520 1021.875 520 973.875 637 c 2,19,-1
 878.875 865 l 1,20,21
 877.875 863 877.875 863 875.875 866 c 1,22,-1
 868.875 646 l 2,23,24
 863.875 537 863.875 537 804.875 539 c 0,25,26
 731.875 541 731.875 541 735.875 648 c 2,27,-1
 761.875 1250 l 2,28,29
 764.875 1329 764.875 1329 835.875 1343 c 0,30,31
 952.875 1370 952.875 1370 1010.875 1304 c 0,8,9
905.875 1629 m 0,32,33
 909.875 1629 909.875 1629 913.875 1629 c 0,34,35
 1023.875 1629 1023.875 1629 1123.875 1549 c 0,36,37
 1227.875 1465 1227.875 1465 1315.875 1315 c 1,38,39
 1413.875 1165 1413.875 1165 1429.875 984 c 0,40,41
 1432.875 954 1432.875 954 1431.875 923 c 0,42,43
 1431.875 771 1431.875 771 1372.875 639 c 0,44,45
 1327.875 542 1327.875 542 1268.875 468 c 1,46,47
 1226.875 398 1226.875 398 1165.875 336 c 0,48,49
 1056.875 221 1056.875 221 924.875 216 c 0,50,51
 919.875 216 919.875 216 914.875 216 c 0,52,53
 774.875 216 774.875 216 653.875 318 c 0,54,55
 595.875 370 595.875 370 552.875 444 c 1,56,57
 482.875 524 482.875 524 440.875 609 c 0,58,59
 367.875 757 367.875 757 367.875 923 c 0,60,61
 367.875 938 367.875 938 367.875 953 c 0,62,63
 376.875 1144 376.875 1144 467.875 1291 c 0,64,65
 561.875 1448 561.875 1448 661.875 1538 c 1,66,67
 765.875 1626 765.875 1626 905.875 1629 c 0,32,33
916.875 1452 m 2,68,-1
 915.875 1452 l 2,69,70
 820.875 1452 820.875 1452 724.875 1385 c 1,71,72
 645.875 1317 645.875 1317 600.875 1200 c 0,73,74
 556.875 1082 556.875 1082 554.875 943 c 0,75,76
 554.875 936 554.875 936 554.875 930 c 0,77,78
 554.875 799 554.875 799 593.875 684 c 0,79,80
 638.875 556 638.875 556 713.875 483 c 1,81,82
 799.875 411 799.875 411 909.875 408 c 0,83,84
 912.875 408 912.875 408 915.875 407 c 0,85,86
 1003.875 407 1003.875 407 1079.875 474 c 0,87,88
 1158.875 543 1158.875 543 1204.875 666 c 0,89,90
 1249.875 788 1249.875 788 1249.875 930 c 0,91,92
 1249.875 1069 1249.875 1069 1205.875 1189 c 0,93,94
 1159.875 1314 1159.875 1314 1084.875 1382 c 0,95,96
 1007.875 1452 1007.875 1452 916.875 1452 c 2,68,-1
EndSplineSet
EndChar

StartChar: overscore
Encoding: 175 175 113
Width: 1800
GlyphClass: 2
Flags: W
LayerCount: 2
Fore
SplineSet
1423 1887 m 1,0,-1
 1423 1702 l 1,1,-1
 377 1702 l 1,2,-1
 377 1887 l 1,3,-1
 1423 1887 l 1,0,-1
EndSplineSet
EndChar

StartChar: degree
Encoding: 176 176 114
Width: 1800
GlyphClass: 2
Flags: W
LayerCount: 2
Fore
SplineSet
769.5 1210 m 0,0,1
 801.5 1168 801.5 1168 834.5 1149 c 1,2,3
 858.5 1128 858.5 1128 891.5 1125 c 0,4,5
 894.5 1125 894.5 1125 897.5 1125 c 0,6,7
 925.5 1125 925.5 1125 951.5 1143 c 0,8,9
 982.5 1161 982.5 1161 1011.5 1194 c 0,10,11
 1051.5 1239 1051.5 1239 1059.5 1299 c 0,12,13
 1061.5 1313 1061.5 1313 1061.5 1328 c 0,14,15
 1061.5 1373 1061.5 1373 1043.5 1413 c 0,16,17
 1018.5 1468 1018.5 1468 966.5 1500 c 1,18,19
 934.5 1531 934.5 1531 897.5 1531 c 0,20,21
 896.5 1531 896.5 1531 895.5 1531 c 0,22,23
 858.5 1530 858.5 1530 825.5 1500 c 1,24,25
 778.5 1470 778.5 1470 753.5 1419 c 0,26,27
 731.5 1376 731.5 1376 731.5 1328 c 0,28,29
 731.5 1320 731.5 1320 732.5 1312 c 0,30,31
 736.5 1253 736.5 1253 769.5 1210 c 0,0,1
893.5 1680 m 0,32,33
 896.5 1680 896.5 1680 899.5 1680 c 0,34,35
 962.5 1680 962.5 1680 1045.5 1628 c 0,36,37
 1134.5 1574 1134.5 1574 1178.5 1480 c 0,38,39
 1212.5 1408 1212.5 1408 1212.5 1329 c 0,40,41
 1212.5 1306 1212.5 1306 1209.5 1283 c 0,42,43
 1194.5 1173 1194.5 1173 1128.5 1101 c 0,44,45
 1088.5 1054 1088.5 1054 1033.5 1023 c 128,-1,46
 978.5 992 978.5 992 933.5 982 c 0,47,48
 916.5 978 916.5 978 900.5 978 c 0,49,50
 835.5 978 835.5 978 751.5 1032 c 0,51,52
 653.5 1094 653.5 1094 611.5 1202 c 0,53,54
 587.5 1263 587.5 1263 587.5 1330 c 0,55,56
 587.5 1377 587.5 1377 599.5 1422 c 0,57,58
 630.5 1534 630.5 1534 720.5 1605 c 0,59,60
 811.5 1677 811.5 1677 893.5 1680 c 0,32,33
EndSplineSet
EndChar

StartChar: plusminus
Encoding: 177 177 115
Width: 1800
GlyphClass: 2
Flags: W
LayerCount: 2
Fore
SplineSet
619.021484375 52 m 2,0,-1
 1153.02148438 54 l 2,1,2
 1267.02148438 54 1267.02148438 54 1267.02148438 -28 c 0,3,4
 1267.02148438 -112 1267.02148438 -112 1158.02148438 -112 c 2,5,-1
 610.021484375 -111 l 2,6,7
 530.021484375 -111 530.021484375 -111 530.021484375 -31 c 0,8,9
 531.021484375 52 531.021484375 52 619.021484375 52 c 2,0,-1
908.021484375 1044 m 0,10,11
 994.021484375 1043 994.021484375 1043 994.021484375 942 c 2,12,-1
 994.021484375 736 l 1,13,-1
 1181.02148438 737 l 2,14,15
 1281.02148438 737 1281.02148438 737 1281.02148438 648 c 0,16,17
 1281.02148438 562 1281.02148438 562 1180.02148438 561 c 0,18,19
 1075.02148438 560 1075.02148438 560 994.021484375 559 c 1,20,-1
 994.021484375 318 l 2,21,22
 994.021484375 228 994.021484375 228 904.021484375 230 c 0,23,24
 813.021484375 231 813.021484375 231 814.021484375 322 c 0,25,26
 815.021484375 439 815.021484375 439 816.021484375 557 c 1,27,28
 726.021484375 556 726.021484375 556 607.021484375 555 c 0,29,30
 517.021484375 554 517.021484375 554 519.021484375 644 c 0,31,32
 519.021484375 735 519.021484375 735 610.021484375 735 c 2,33,-1
 817.021484375 736 l 1,34,35
 818.021484375 840 818.021484375 840 818.021484375 944 c 0,36,37
 818.021484375 1045 818.021484375 1045 908.021484375 1044 c 0,10,11
EndSplineSet
EndChar

StartChar: twosuperior
Encoding: 178 178 116
Width: 1800
GlyphClass: 2
Flags: W
LayerCount: 2
Fore
SplineSet
786.969726562 1054 m 1,0,-1
 1100.96972656 1061 l 2,1,2
 1208.96972656 1063 1208.96972656 1063 1208.96972656 989 c 0,3,4
 1208.96972656 910 1208.96972656 910 1100.96972656 910 c 2,5,-1
 717.969726562 910 l 2,6,7
 590.969726562 910 590.969726562 910 606.969726562 1038 c 0,8,9
 628.969726562 1210 628.969726562 1210 826.969726562 1316 c 0,10,11
 1012.96972656 1416 1012.96972656 1416 1022.96972656 1481 c 0,12,13
 1037.96972656 1568 1037.96972656 1568 951.969726562 1598 c 0,14,15
 888.969726562 1620 888.969726562 1620 833.969726562 1589 c 0,16,17
 782.969726562 1560 782.969726562 1560 739.969726562 1500 c 0,18,19
 695.969726562 1438 695.969726562 1438 636.969726562 1470 c 0,20,21
 563.969726562 1509 563.969726562 1509 606.969726562 1575 c 0,22,23
 667.969726562 1671 667.969726562 1671 746.969726562 1717 c 0,24,25
 812.969726562 1756 812.969726562 1756 948.969726562 1742 c 0,26,27
 1047.96972656 1732 1047.96972656 1732 1124.96972656 1646 c 0,28,29
 1182.96972656 1582 1182.96972656 1582 1172.96972656 1466 c 0,30,31
 1158.96972656 1312 1158.96972656 1312 970.969726562 1211 c 0,32,33
 788.969726562 1112 788.969726562 1112 786.969726562 1054 c 1,0,-1
EndSplineSet
EndChar

StartChar: threesuperior
Encoding: 179 179 117
Width: 1800
GlyphClass: 2
Flags: W
LayerCount: 2
Fore
SplineSet
1129.05859375 1466 m 0,0,1
 1127.05859375 1374 1127.05859375 1374 1041.05859375 1301 c 1,2,3
 1166.05859375 1232 1166.05859375 1232 1166.05859375 1083 c 0,4,5
 1166.05859375 969 1166.05859375 969 1054.05859375 906 c 0,6,7
 947.05859375 847 947.05859375 847 837.05859375 855 c 0,8,9
 629.05859375 871 629.05859375 871 634.05859375 950 c 0,10,11
 641.05859375 1050 641.05859375 1050 766.05859375 1014 c 0,12,13
 836.05859375 994 836.05859375 994 934.05859375 1017 c 0,14,15
 1023.05859375 1038 1023.05859375 1038 1017.05859375 1106 c 0,16,17
 1009.05859375 1207 1009.05859375 1207 908.05859375 1209 c 0,18,19
 767.05859375 1212 767.05859375 1212 771.05859375 1287 c 0,20,21
 775.05859375 1342 775.05859375 1342 879.05859375 1372 c 0,22,23
 1015.05859375 1411 1015.05859375 1411 977.05859375 1489 c 0,24,25
 929.05859375 1588 929.05859375 1588 779.05859375 1546 c 0,26,27
 699.05859375 1523 699.05859375 1523 684.05859375 1579 c 0,28,29
 658.05859375 1677 658.05859375 1677 816.05859375 1697 c 0,30,31
 945.05859375 1714 945.05859375 1714 1049.05859375 1637 c 0,32,33
 1132.05859375 1576 1132.05859375 1576 1129.05859375 1466 c 0,0,1
EndSplineSet
EndChar

StartChar: acute
Encoding: 180 180 118
Width: 1800
GlyphClass: 2
Flags: W
LayerCount: 2
Fore
SplineSet
1073.54003906 1636 m 0,0,1
 1148.54003906 1577 1148.54003906 1577 1087.54003906 1510 c 2,2,-1
 850.540039062 1250 l 2,3,4
 763.540039062 1154 763.540039062 1154 706.540039062 1210 c 0,5,6
 652.540039062 1263 652.540039062 1263 734.540039062 1365 c 2,7,-1
 942.540039062 1625 l 2,8,9
 999.540039062 1696 999.540039062 1696 1073.54003906 1636 c 0,0,1
EndSplineSet
EndChar

StartChar: mu1
Encoding: 181 181 119
Width: 1800
GlyphClass: 2
Flags: W
LayerCount: 2
Fore
SplineSet
1067.76269531 -77 m 0,0,1
 991.762695312 -77 991.762695312 -77 1001.76269531 13 c 1,2,3
 950.762695312 -18 950.762695312 -18 887.762695312 -18 c 0,4,5
 776.762695312 -17 776.762695312 -17 717.762695312 47 c 1,6,-1
 640.762695312 -311 l 2,7,8
 616.762695312 -404 616.762695312 -404 546.762695312 -404 c 0,9,10
 418.762695312 -404 418.762695312 -404 444.762695312 -305 c 2,11,-1
 620.762695312 378 l 1,12,13
 620.762695312 378 620.762695312 378 641.762695312 457 c 1,14,-1
 732.762695312 929 l 2,15,16
 753.762695312 1053 753.762695312 1053 790.762695312 1058 c 0,17,18
 875.762695312 1070 875.762695312 1070 856.762695312 947 c 2,19,-1
 790.762695312 510 l 2,20,21
 785.762695312 481 785.762695312 481 782.762695312 455 c 0,22,23
 782.762695312 441 782.762695312 441 779.762695312 423 c 0,24,25
 767.762695312 217 767.762695312 217 885.762695312 213 c 0,26,27
 996.762695312 209 996.762695312 209 1050.76269531 340 c 1,28,-1
 1157.76269531 952 l 1,29,30
 1183.76269531 1061 1183.76269531 1061 1267.76269531 1060 c 0,31,32
 1380.76269531 1057 1380.76269531 1057 1354.76269531 950 c 2,33,-1
 1133.76269531 16 l 2,34,35
 1112.76269531 -77 1112.76269531 -77 1067.76269531 -77 c 0,0,1
EndSplineSet
EndChar

StartChar: paragraph
Encoding: 182 182 120
Width: 1800
GlyphClass: 2
Flags: W
LayerCount: 2
Fore
SplineSet
1388.98144531 1635 m 0,0,1
 1492.98144531 1635 1492.98144531 1635 1490.98144531 1536 c 2,2,-1
 1452.98144531 -66 l 2,3,4
 1448.98144531 -175 1448.98144531 -175 1342.98144531 -173 c 0,5,6
 1252.98144531 -171 1252.98144531 -171 1255.98144531 -64 c 2,7,-1
 1294.98144531 1542 l 2,8,9
 1296.98144531 1635 1296.98144531 1635 1388.98144531 1635 c 0,0,1
1010.98144531 1635 m 0,10,11
 1114.98144531 1635 1114.98144531 1635 1112.98144531 1536 c 2,12,-1
 1075.98144531 -66 l 2,13,14
 1072.98144531 -175 1072.98144531 -175 966.981445312 -173 c 0,15,16
 876.981445312 -171 876.981445312 -171 878.981445312 -64 c 2,17,-1
 889.981445312 399 l 1,18,19
 308.981445312 439 308.981445312 439 308.981445312 995 c 0,20,21
 308.981445312 1635 308.981445312 1635 1010.98144531 1635 c 0,10,11
EndSplineSet
EndChar

StartChar: cedilla
Encoding: 184 184 122
Width: 1800
GlyphClass: 2
Flags: W
LayerCount: 2
Fore
SplineSet
734.470703125 73 m 0,0,1
 744.470703125 112 744.470703125 112 800.470703125 114 c 0,2,3
 926.470703125 119 926.470703125 119 1052.47070312 0 c 0,4,5
 1206.47070312 -143 1206.47070312 -143 1118.47070312 -337 c 0,6,7
 1072.47070312 -438 1072.47070312 -438 908.470703125 -445 c 0,8,9
 802.470703125 -450 802.470703125 -450 702.470703125 -388 c 0,10,11
 642.470703125 -351 642.470703125 -351 650.470703125 -285 c 0,12,13
 654.470703125 -249 654.470703125 -249 712.470703125 -243 c 0,14,15
 736.470703125 -241 736.470703125 -241 803.470703125 -271 c 0,16,17
 872.470703125 -302 872.470703125 -302 928.470703125 -289 c 0,18,19
 990.470703125 -274 990.470703125 -274 990.470703125 -209 c 0,20,21
 992.470703125 -123 992.470703125 -123 890.470703125 -71 c 0,22,23
 842.470703125 -46 842.470703125 -46 784.470703125 -29 c 0,24,25
 712.470703125 -10 712.470703125 -10 734.470703125 73 c 0,0,1
EndSplineSet
EndChar

StartChar: onesuperior
Encoding: 185 185 123
Width: 1800
GlyphClass: 2
Flags: W
LayerCount: 2
Fore
SplineSet
979 1622 m 0,0,1
 974 1414 974 1414 973 1035 c 1,2,3
 1024 1035 1024 1035 1074 1035 c 0,4,5
 1177 1035 1177 1035 1177 974 c 0,6,7
 1177 903 1177 903 1077 903 c 2,8,-1
 714 903 l 2,9,10
 624 903 624 903 623 968 c 0,11,12
 623 1036 623 1036 723 1036 c 0,13,14
 772 1036 772 1036 822 1036 c 1,15,-1
 824 1506 l 1,16,-1
 798 1483 l 2,17,18
 713 1408 713 1408 661 1457 c 0,19,20
 597 1518 597 1518 688 1581 c 2,21,-1
 808 1664 l 2,22,23
 902 1729 902 1729 925 1724 c 0,24,25
 981 1712 981 1712 979 1622 c 0,0,1
EndSplineSet
EndChar

StartChar: ordmasculine
Encoding: 186 186 124
Width: 1800
GlyphClass: 2
Flags: W
LayerCount: 2
Fore
SplineSet
812.928710938 1676 m 1,0,1
 855.928710938 1699 855.928710938 1699 900.928710938 1699 c 0,2,3
 924.928710938 1699 924.928710938 1699 946.928710938 1693 c 0,4,5
 1025.92871094 1673 1025.92871094 1673 1105.92871094 1603 c 0,6,7
 1189.92871094 1531 1189.92871094 1531 1225.92871094 1431 c 0,8,9
 1247.92871094 1372 1247.92871094 1372 1249.92871094 1290 c 0,10,11
 1250.92871094 1255 1250.92871094 1255 1244.92871094 1221 c 0,12,13
 1225.92871094 1110 1225.92871094 1110 1152.92871094 1024 c 0,14,15
 1082.92871094 941 1082.92871094 941 984.928710938 903 c 1,16,17
 943.928710938 881 943.928710938 881 899.928710938 881 c 0,18,19
 872.928710938 881 872.928710938 881 846.928710938 890 c 0,20,21
 764.928710938 913 764.928710938 913 682.928710938 989 c 0,22,23
 603.928710938 1062 603.928710938 1062 569.928710938 1164 c 0,24,25
 549.928710938 1225 549.928710938 1225 549.928710938 1291 c 0,26,27
 549.928710938 1332 549.928710938 1332 557.928710938 1372 c 0,28,29
 579.928710938 1481 579.928710938 1481 649.928710938 1559 c 0,30,31
 722.928710938 1641 722.928710938 1641 812.928710938 1676 c 1,0,1
902.928710938 1084 m 2,32,33
 939.928710938 1084 939.928710938 1084 970.928710938 1114 c 0,34,35
 1002.92871094 1145 1002.92871094 1145 1027.92871094 1194 c 0,36,37
 1052.92871094 1240 1052.92871094 1240 1052.92871094 1294 c 0,38,39
 1052.92871094 1298 1052.92871094 1298 1051.92871094 1302 c 0,40,41
 1048.92871094 1362 1048.92871094 1362 1018.92871094 1408 c 0,42,43
 1000.92871094 1441 1000.92871094 1441 977.928710938 1466 c 0,44,45
 955.928710938 1489 955.928710938 1489 929.928710938 1498 c 0,46,47
 915.928710938 1503 915.928710938 1503 901.928710938 1503 c 0,48,49
 862.928710938 1503 862.928710938 1503 829.928710938 1470 c 0,50,51
 789.928710938 1432 789.928710938 1432 764.928710938 1367 c 0,52,53
 751.928710938 1332 751.928710938 1332 751.928710938 1293 c 0,54,55
 751.928710938 1263 751.928710938 1263 759.928710938 1234 c 0,56,57
 779.928710938 1167 779.928710938 1167 821.928710938 1125 c 1,58,59
 856.928710938 1084 856.928710938 1084 901.928710938 1084 c 2,60,-1
 902.928710938 1084 l 2,32,33
EndSplineSet
EndChar

StartChar: AE
Encoding: 198 198 136
Width: 1800
GlyphClass: 2
Flags: W
LayerCount: 2
Fore
SplineSet
1077.6015625 1507 m 2,0,-1
 1567.6015625 1511 l 2,1,2
 1708.6015625 1512 1708.6015625 1512 1711.6015625 1395 c 0,3,4
 1714.6015625 1302 1714.6015625 1302 1573.6015625 1301 c 0,5,6
 1322.6015625 1299 1322.6015625 1299 1110.6015625 1297 c 1,7,-1
 1105.6015625 934 l 1,8,-1
 1459.6015625 938 l 2,9,10
 1597.6015625 939 1597.6015625 939 1600.6015625 821 c 0,11,12
 1603.6015625 728 1603.6015625 728 1463.6015625 728 c 0,13,14
 1282.6015625 726 1282.6015625 726 1101.6015625 725 c 1,15,-1
 1094.6015625 154 l 1,16,-1
 1505.6015625 158 l 2,17,18
 1646.6015625 159 1646.6015625 159 1649.6015625 42 c 0,19,20
 1652.6015625 -51 1652.6015625 -51 1511.6015625 -52 c 2,21,-1
 1020.6015625 -56 l 2,22,23
 1008.6015625 -56 1008.6015625 -56 998.6015625 -54 c 0,24,25
 990.6015625 -54 990.6015625 -54 982.6015625 -54 c 0,26,27
 893.6015625 -52 893.6015625 -52 895.6015625 49 c 2,28,-1
 907.6015625 721 l 1,29,-1
 657.6015625 721 l 1,30,-1
 279.6015625 72 l 1,31,32
 207.6015625 -11 207.6015625 -11 126.6015625 55 c 0,33,34
 51.6015625 117 51.6015625 117 123.6015625 199 c 1,35,-1
 884.6015625 1433 l 1,36,37
 934.6015625 1504 934.6015625 1504 996.6015625 1507 c 0,38,39
 1007.6015625 1508 1007.6015625 1508 1017.6015625 1508 c 0,40,41
 1038.6015625 1508 1038.6015625 1508 1054.6015625 1505 c 0,42,43
 1065.6015625 1507 1065.6015625 1507 1077.6015625 1507 c 2,0,-1
775.6015625 936 m 1,44,-1
 912.6015625 936 l 1,45,-1
 918.6015625 1185 l 1,46,-1
 775.6015625 936 l 1,44,-1
EndSplineSet
EndChar

StartChar: Eth
Encoding: 208 208 146
Width: 1800
GlyphClass: 2
Flags: W
LayerCount: 2
Fore
SplineSet
674.322265625 1525 m 0,0,1
 698.322265625 1525 698.322265625 1525 718.322265625 1520 c 0,2,3
 730.322265625 1519 730.322265625 1519 742.322265625 1517 c 0,4,5
 977.322265625 1476 977.322265625 1476 1152.32226562 1243 c 1,6,7
 1498.32226562 910 1498.32226562 910 1475.32226562 539 c 0,8,9
 1460.32226562 268 1460.32226562 268 1205.32226562 52 c 1,10,11
 1125.32226562 -48 1125.32226562 -48 896.322265625 -53 c 0,12,13
 761.322265625 -56 761.322265625 -56 674.322265625 -51 c 0,14,15
 659.322265625 -54 659.322265625 -54 639.322265625 -54 c 0,16,17
 548.322265625 -52 548.322265625 -52 551.322265625 51 c 2,18,-1
 563.322265625 583 l 1,19,-1
 431.322265625 583 l 2,20,21
 320.322265625 583 320.322265625 583 323.322265625 680 c 0,22,23
 326.322265625 783 326.322265625 783 437.322265625 783 c 2,24,-1
 567.322265625 783 l 1,25,-1
 582.322265625 1436 l 2,26,27
 584.322265625 1525 584.322265625 1525 674.322265625 1525 c 0,0,1
757.322265625 582 m 1,28,-1
 750.322265625 138 l 1,29,-1
 888.322265625 135 l 1,30,31
 1100.32226562 143 1100.32226562 143 1165.32226562 255 c 1,32,33
 1264.32226562 406 1264.32226562 406 1273.32226562 549 c 0,34,35
 1290.32226562 798 1290.32226562 798 1071.32226562 1081 c 1,36,37
 938.322265625 1276 938.322265625 1276 768.322265625 1290 c 1,38,-1
 760.322265625 783 l 1,39,-1
 924.322265625 783 l 2,40,41
 995.322265625 783 995.322265625 783 997.322265625 674 c 0,42,43
 997.322265625 582 997.322265625 582 925.322265625 582 c 2,44,-1
 757.322265625 582 l 1,28,-1
EndSplineSet
EndChar

StartChar: multiply
Encoding: 215 215 153
Width: 1800
GlyphClass: 2
Flags: W
LayerCount: 2
Fore
SplineSet
606.5 973 m 0,0,1
 672.5 1025 672.5 1025 740.5 958 c 1,2,-1
 900.5 757 l 1,3,-1
 1059.5 958 l 1,4,5
 1128.5 1026 1128.5 1026 1193.5 973 c 0,6,7
 1267.5 914 1267.5 914 1169.5 817 c 2,8,-1
 982.5 631 l 1,9,-1
 1165.5 451 l 2,10,11
 1258.5 360 1258.5 360 1193.5 291 c 0,12,13
 1133.5 227 1133.5 227 1072.5 288 c 1,14,-1
 900.5 504 l 1,15,-1
 727.5 288 l 1,16,17
 666.5 227 666.5 227 606.5 291 c 0,18,19
 541.5 360 541.5 360 634.5 451 c 2,20,-1
 817.5 631 l 1,21,-1
 630.5 817 l 2,22,23
 532.5 914 532.5 914 606.5 973 c 0,0,1
EndSplineSet
EndChar

StartChar: Oslash
Encoding: 216 216 154
Width: 1800
GlyphClass: 2
Flags: W
LayerCount: 2
Fore
SplineSet
483.78125 -48 m 1,0,1
 410.78125 -126 410.78125 -126 336.78125 -54 c 0,2,3
 268.78125 12 268.78125 12 342.78125 90 c 1,4,-1
 1302.78125 1492 l 1,5,6
 1385.78125 1580 1385.78125 1580 1455.78125 1525 c 0,7,8
 1535.78125 1463 1535.78125 1463 1455.78125 1378 c 1,9,-1
 483.78125 -48 l 1,0,1
968.78125 1313 m 0,10,11
 825.78125 1328 825.78125 1328 720.78125 1170 c 0,12,13
 564.78125 936 564.78125 936 564.78125 575 c 0,14,15
 564.78125 393 564.78125 393 636.78125 278 c 0,16,17
 719.78125 143 719.78125 143 860.78125 143 c 0,18,19
 997.78125 143 997.78125 143 1075.78125 290 c 0,20,21
 1217.78125 555 1217.78125 555 1219.78125 878 c 0,22,23
 1225.78125 1286 1225.78125 1286 968.78125 1313 c 0,10,11
960.78125 1512 m 0,24,25
 1421.78125 1505 1421.78125 1505 1420.78125 879 c 0,26,27
 1419.78125 475 1419.78125 475 1192.78125 185 c 1,28,29
 1060.78125 -63 1060.78125 -63 860.78125 -63 c 0,30,31
 652.78125 -63 652.78125 -63 498.78125 160 c 1,32,33
 354.78125 319 354.78125 319 354.78125 573 c 0,34,35
 354.78125 970 354.78125 970 597.78125 1274 c 1,36,37
 731.78125 1516 731.78125 1516 960.78125 1512 c 0,24,25
EndSplineSet
EndChar

StartChar: Thorn
Encoding: 222 222 160
Width: 1800
GlyphClass: 2
Flags: W
LayerCount: 2
Fore
SplineSet
683.5234375 1638 m 0,0,1
 765.5234375 1640 765.5234375 1640 763.5234375 1486 c 0,2,3
 761.5234375 1410 761.5234375 1410 759.5234375 1333 c 1,4,5
 1270.5234375 1408 1270.5234375 1408 1262.5234375 818 c 0,6,7
 1256.5234375 364 1256.5234375 364 727.5234375 385 c 1,8,9
 729.5234375 384 729.5234375 384 719.5234375 94 c 0,10,11
 715.5234375 -23 715.5234375 -23 623.5234375 -23 c 0,12,13
 533.5234375 -23 533.5234375 -23 537.5234375 94 c 2,14,-1
 579.5234375 1482 l 2,15,16
 583.5234375 1636 583.5234375 1636 683.5234375 1638 c 0,0,1
753.5234375 1158 m 1,17,-1
 733.5234375 575 l 1,18,19
 1078.5234375 576 1078.5234375 576 1082.5234375 836 c 0,20,21
 1088.5234375 1187 1088.5234375 1187 753.5234375 1158 c 1,17,-1
EndSplineSet
EndChar

StartChar: germandbls
Encoding: 223 223 161
Width: 1800
GlyphClass: 2
Flags: W
LayerCount: 2
Fore
SplineSet
625.787109375 -156 m 0,0,1
 545.787109375 -149 545.787109375 -149 549.787109375 -18 c 2,2,-1
 581.787109375 933 l 2,3,4
 599.787109375 1496 599.787109375 1496 844.787109375 1554 c 0,5,6
 1173.78710938 1637 1173.78710938 1637 1207.78710938 1161 c 0,7,8
 1215.78710938 1053 1215.78710938 1053 1004.78710938 822 c 1,9,10
 1177.78710938 669 1177.78710938 669 1219.78710938 492 c 0,11,12
 1284.78710938 223 1284.78710938 223 1211.78710938 85 c 0,13,14
 1114.78710938 -97 1114.78710938 -97 933.787109375 -74 c 0,15,16
 789.787109375 -52 789.787109375 -52 783.787109375 109 c 0,17,18
 779.787109375 241 779.787109375 241 882.787109375 151 c 0,19,20
 969.787109375 75 969.787109375 75 1025.78710938 157 c 1,21,22
 1091.78710938 230 1091.78710938 230 1041.78710938 446 c 0,23,24
 1007.78710938 587 1007.78710938 587 890.787109375 714 c 0,25,26
 849.787109375 758 849.787109375 758 852.787109375 792 c 1,27,28
 844.787109375 851 844.787109375 851 892.787109375 915 c 0,29,30
 1000.78710938 1059 1000.78710938 1059 1004.78710938 1143 c 0,31,32
 1017.78710938 1358 1017.78710938 1358 928.787109375 1380 c 0,33,34
 837.787109375 1404 837.787109375 1404 793.787109375 1209 c 0,35,36
 766.787109375 1094 766.787109375 1094 763.787109375 927 c 2,37,-1
 743.787109375 -36 l 2,38,39
 739.787109375 -167 739.787109375 -167 625.787109375 -156 c 0,0,1
EndSplineSet
EndChar

StartChar: eth
Encoding: 240 240 178
Width: 1800
GlyphClass: 2
Flags: W
LayerCount: 2
Fore
SplineSet
690.475585938 1491 m 0,0,1
 748.475585938 1574 748.475585938 1574 822.475585938 1505 c 1,2,3
 873.475585938 1442 873.475585938 1442 921.475585938 1359 c 1,4,-1
 1004.47558594 1427 l 1,5,6
 1136.47558594 1497 1136.47558594 1497 1183.47558594 1412 c 0,7,8
 1226.47558594 1333 1226.47558594 1333 1094.47558594 1262 c 2,9,-1
 995.475585938 1207 l 1,10,11
 1022.47558594 1163 1022.47558594 1163 1051.47558594 1115 c 0,12,13
 1285.47558594 729 1285.47558594 729 1240.47558594 423 c 0,14,15
 1200.47558594 148 1200.47558594 148 1051.47558594 39 c 1,16,17
 887.475585938 -126 887.475585938 -126 725.475585938 29 c 1,18,19
 454.475585938 228 454.475585938 228 607.475585938 589 c 0,20,21
 717.475585938 848 717.475585938 848 963.475585938 919 c 1,22,23
 930.475585938 1029 930.475585938 1029 892.475585938 1120 c 1,24,-1
 792.475585938 1037 l 1,25,26
 673.475585938 973 673.475585938 973 629.475585938 1049 c 0,27,28
 577.475585938 1138 577.475585938 1138 696.475585938 1202 c 1,29,-1
 816.475585938 1272 l 1,30,31
 782.475585938 1319 782.475585938 1319 734.475585938 1359 c 0,32,33
 648.475585938 1431 648.475585938 1431 690.475585938 1491 c 0,0,1
1005.47558594 763 m 1,34,35
 986.475585938 752 986.475585938 752 963.475585938 742 c 0,36,37
 833.475585938 687 833.475585938 687 789.475585938 577 c 1,38,39
 693.475585938 410 693.475585938 410 758.475585938 251 c 0,40,41
 798.475585938 151 798.475585938 151 891.475585938 140.5 c 128,-1,42
 984.475585938 130 984.475585938 130 1045.47558594 350 c 1,43,44
 1093.47558594 500 1093.47558594 500 1030.47558594 692 c 0,45,46
 1018.47558594 728 1018.47558594 728 1005.47558594 763 c 1,34,35
EndSplineSet
EndChar

StartChar: divide
Encoding: 247 247 185
Width: 1800
GlyphClass: 2
Flags: W
LayerCount: 2
Fore
SplineSet
633.5 733 m 2,0,-1
 1137.5 735 l 2,1,2
 1261.5 735 1261.5 735 1262.5 643 c 0,3,4
 1262.5 548 1262.5 548 1143.5 548 c 2,5,-1
 624.5 549 l 2,6,7
 537.5 549 537.5 549 537.5 639 c 0,8,9
 537.5 733 537.5 733 633.5 733 c 2,0,-1
905.5 367 m 0,10,11
 917.5 370 917.5 370 929.5 370 c 0,12,13
 942.5 370 942.5 370 954.5 367 c 0,14,15
 978.5 361 978.5 361 996.5 343 c 0,16,17
 1017.5 324 1017.5 324 1021.5 302 c 0,18,19
 1024.5 290 1024.5 290 1024.5 278 c 0,20,21
 1024.5 263 1024.5 263 1022.5 255 c 0,22,23
 1014.5 228 1014.5 228 993.5 209 c 0,24,25
 974.5 192 974.5 192 942.5 187 c 0,26,27
 935.5 186 935.5 186 929.5 186 c 0,28,29
 907.5 186 907.5 186 887.5 195 c 0,30,31
 861.5 207 861.5 207 846.5 232 c 0,32,33
 833.5 253 833.5 253 833.5 278 c 0,34,35
 833.5 297 833.5 297 840.5 313 c 0,36,37
 848.5 333 848.5 333 866.5 347 c 0,38,39
 882.5 361 882.5 361 905.5 367 c 0,10,11
879.5 1139 m 0,40,41
 887.5 1142 887.5 1142 894.5 1142 c 0,42,43
 903.5 1142 903.5 1142 910.5 1139 c 0,44,45
 926.5 1133 926.5 1133 937.5 1115 c 0,46,47
 951.5 1096 951.5 1096 953.5 1074 c 0,48,49
 955.5 1062 955.5 1062 955.5 1050 c 0,50,51
 955.5 1035 955.5 1035 954.5 1027 c 0,52,53
 949.5 1000 949.5 1000 935.5 981 c 0,54,55
 923.5 964 923.5 964 903.5 959 c 0,56,57
 898.5 958 898.5 958 894.5 958 c 0,58,59
 880.5 958 880.5 958 867.5 967 c 0,60,61
 851.5 979 851.5 979 841.5 1004 c 0,62,63
 833.5 1025 833.5 1025 833.5 1050 c 0,64,65
 833.5 1069 833.5 1069 837.5 1085 c 0,66,67
 842.5 1105 842.5 1105 854.5 1119 c 0,68,69
 864.5 1133 864.5 1133 879.5 1139 c 0,40,41
EndSplineSet
EndChar

StartChar: oslash
Encoding: 248 248 186
Width: 1800
GlyphClass: 2
Flags: W
LayerCount: 2
Fore
SplineSet
621.061523438 -23 m 1,0,1
 573.061523438 -77 573.061523438 -77 529.061523438 -38 c 0,2,3
 469.061523438 15 469.061523438 15 517.061523438 68 c 1,4,-1
 1187.06152344 1026 l 1,5,6
 1225.06152344 1068 1225.06152344 1068 1273.06152344 1028 c 0,7,8
 1326.06152344 982 1326.06152344 982 1289.06152344 940 c 1,9,-1
 621.061523438 -23 l 1,0,1
915.061523438 845 m 0,10,11
 831.061523438 842 831.061523438 842 789.061523438 754 c 0,12,13
 725.061523438 618 725.061523438 618 725.061523438 455 c 0,14,15
 725.061523438 298 725.061523438 298 772.061523438 220 c 0,16,17
 819.061523438 140 819.061523438 140 880.061523438 140 c 0,18,19
 950.061523438 140 950.061523438 140 998.061523438 220 c 0,20,21
 1049.06152344 305 1049.06152344 305 1049.06152344 493 c 0,22,23
 1050.06152344 849 1050.06152344 849 915.061523438 845 c 0,10,11
910.061523438 1049 m 0,24,25
 1236.06152344 1046 1236.06152344 1046 1235.06152344 473 c 0,26,27
 1234.06152344 229 1234.06152344 229 1127.06152344 102 c 1,28,29
 1022.06152344 -51 1022.06152344 -51 865.061523438 -49 c 0,30,31
 751.061523438 -48 751.061523438 -48 641.061523438 99 c 1,32,33
 529.061523438 232 529.061523438 232 529.061523438 473 c 0,34,35
 529.061523438 701 529.061523438 701 663.061523438 877 c 1,36,37
 770.061523438 1051 770.061523438 1051 910.061523438 1049 c 0,24,25
EndSplineSet
EndChar

StartChar: thorn
Encoding: 254 254 192
Width: 1800
GlyphClass: 2
Flags: W
LayerCount: 2
Fore
SplineSet
689.458007812 1324 m 0,0,1
 772.458007812 1326 772.458007812 1326 769.458007812 1172 c 0,2,3
 765.458007812 1030 765.458007812 1030 765.458007812 929 c 1,4,5
 1252.45800781 1004 1252.45800781 1004 1244.45800781 414 c 0,6,7
 1238.45800781 -40 1238.45800781 -40 733.458007812 -19 c 1,8,9
 747.458007812 -20 747.458007812 -20 737.458007812 -452 c 0,10,11
 733.458007812 -569 733.458007812 -569 641.458007812 -569 c 0,12,13
 553.458007812 -569 553.458007812 -569 555.458007812 -452 c 2,14,-1
 585.458007812 1168 l 2,15,16
 587.458007812 1322 587.458007812 1322 689.458007812 1324 c 0,0,1
759.458007812 754 m 1,17,-1
 738.458007812 171 l 1,18,19
 1062.45800781 172 1062.45800781 172 1064.45800781 432 c 0,20,21
 1070.45800781 783 1070.45800781 783 759.458007812 754 c 1,17,-1
EndSplineSet
EndChar

StartChar: dcroat
Encoding: 273 273 211
Width: 1800
GlyphClass: 2
Flags: W
LayerCount: 2
Fore
SplineSet
1011.734375 269 m 1,0,1
 1022.734375 477 1022.734375 477 1022.734375 710 c 1,2,3
 905.734375 893 905.734375 893 795.734375 851 c 0,4,5
 714.734375 820 714.734375 820 679.734375 751 c 0,6,7
 628.734375 652 628.734375 652 626.734375 475 c 0,8,9
 624.734375 361 624.734375 361 679.734375 250 c 0,10,11
 723.734375 160 723.734375 160 807.734375 145 c 0,12,13
 896.734375 129 896.734375 129 1011.734375 269 c 1,0,1
1133.734375 1610 m 0,14,15
 1237.734375 1610 1237.734375 1610 1235.734375 1511 c 2,16,-1
 1232.734375 1339 l 1,17,-1
 1276.734375 1338 l 2,18,19
 1353.734375 1337 1353.734375 1337 1351.734375 1254 c 0,20,21
 1350.734375 1181 1350.734375 1181 1273.734375 1182 c 2,22,-1
 1228.734375 1183 l 1,23,-1
 1204.734375 64 l 2,24,25
 1203.734375 -45 1203.734375 -45 1095.734375 -43 c 0,26,27
 1015.734375 -41 1015.734375 -41 1010.734375 43 c 1,28,29
 915.734375 -51 915.734375 -51 807.734375 -50 c 0,30,31
 696.734375 -49 696.734375 -49 604.734375 82 c 1,32,33
 456.734375 230 456.734375 230 448.734375 427 c 0,34,35
 439.734375 693 439.734375 693 586.734375 874 c 1,36,37
 689.734375 1045 689.734375 1045 832.734375 1045 c 0,38,39
 909.734375 1045 909.734375 1045 967.734375 994 c 0,40,41
 997.734375 967 997.734375 967 1027.734375 940 c 1,42,-1
 1033.734375 1185 l 1,43,-1
 837.734375 1188 l 2,44,45
 786.734375 1189 786.734375 1189 787.734375 1260 c 0,46,47
 788.734375 1345 788.734375 1345 839.734375 1344 c 2,48,-1
 1037.734375 1341 l 1,49,-1
 1041.734375 1517 l 2,50,51
 1043.734375 1608 1043.734375 1608 1133.734375 1610 c 0,14,15
EndSplineSet
EndChar

StartChar: Hbar
Encoding: 294 294 232
Width: 1800
GlyphClass: 2
Flags: W
LayerCount: 2
Fore
SplineSet
352.5 1106 m 2,0,1
 235.5 1106 235.5 1106 235.5 1202 c 0,2,3
 235.5 1301 235.5 1301 370.5 1301 c 2,4,-1
 1428.5 1304 l 2,5,6
 1563.5 1304 1563.5 1304 1564.5 1206 c 0,7,8
 1564.5 1106 1564.5 1106 1439.5 1106 c 2,9,-1
 352.5 1106 l 2,0,1
557.5 1513 m 0,10,11
 655.5 1513 655.5 1513 654.5 1420 c 2,12,-1
 645.5 840 l 1,13,-1
 1199.5 840 l 1,14,-1
 1211.5 1424 l 2,15,16
 1213.5 1510 1213.5 1510 1303.5 1512 c 0,17,18
 1407.5 1512 1407.5 1512 1405.5 1419 c 2,19,-1
 1377.5 55 l 2,20,21
 1376.5 -48 1376.5 -48 1268.5 -46 c 0,22,23
 1179.5 -44 1179.5 -44 1180.5 57 c 0,24,25
 1187.5 344 1187.5 344 1194.5 631 c 1,26,-1
 635.5 631 l 1,27,-1
 627.5 56 l 2,28,29
 625.5 -47 625.5 -47 517.5 -46 c 0,30,31
 427.5 -44 427.5 -44 430.5 57 c 2,32,-1
 463.5 1425 l 2,33,34
 465.5 1511 465.5 1511 557.5 1513 c 0,10,11
EndSplineSet
EndChar

StartChar: hbar
Encoding: 295 295 233
Width: 1800
GlyphClass: 2
Flags: W
LayerCount: 2
Fore
SplineSet
534.474609375 1183 m 0,0,1
 457.474609375 1184 457.474609375 1184 457.474609375 1267 c 0,2,3
 457.474609375 1355 457.474609375 1355 543.474609375 1355 c 2,4,-1
 999.474609375 1357 l 2,5,6
 1070.47460938 1357 1070.47460938 1357 1070.47460938 1271 c 0,7,8
 1070.47460938 1182 1070.47460938 1182 1002.47460938 1182 c 0,9,10
 1000.47460938 1179 1000.47460938 1179 534.474609375 1183 c 0,0,1
733.474609375 1611 m 0,11,12
 824.474609375 1611 824.474609375 1611 823.474609375 1511 c 2,13,-1
 817.474609375 919 l 1,14,15
 897.474609375 1035 897.474609375 1035 1030.47460938 1035 c 0,16,17
 1346.47460938 1034 1346.47460938 1034 1342.47460938 579 c 2,18,-1
 1338.47460938 72 l 2,19,20
 1337.47460938 -49 1337.47460938 -49 1242.47460938 -57 c 0,21,22
 1135.47460938 -66 1135.47460938 -66 1136.47460938 54 c 2,23,-1
 1139.47460938 533 l 2,24,25
 1141.47460938 799 1141.47460938 799 1035.47460938 812 c 0,26,27
 917.474609375 828 917.474609375 828 817.474609375 641 c 1,28,-1
 803.474609375 64 l 2,29,30
 799.474609375 -45 799.474609375 -45 693.474609375 -43 c 0,31,32
 604.474609375 -41 604.474609375 -41 606.474609375 66 c 2,33,-1
 639.474609375 1517 l 2,34,35
 641.474609375 1609 641.474609375 1609 733.474609375 1611 c 0,11,12
EndSplineSet
EndChar

StartChar: dotlessi
Encoding: 305 305 243
Width: 1800
GlyphClass: 2
Flags: W
LayerCount: 2
Fore
SplineSet
914.020507812 1047 m 0,0,1
 1009.02050781 1045 1009.02050781 1045 1007.02050781 917 c 2,2,-1
 993.020507812 85 l 2,3,4
 991.020507812 -50 991.020507812 -50 897.020507812 -50 c 0,5,6
 790.020507812 -49 790.020507812 -49 793.020507812 77 c 2,7,-1
 810.020507812 916 l 2,8,9
 813.020507812 1049 813.020507812 1049 914.020507812 1047 c 0,0,1
EndSplineSet
EndChar

StartChar: kgreenlandic
Encoding: 312 312 250
Width: 1800
GlyphClass: 2
Flags: W
LayerCount: 2
Fore
SplineSet
640.372070312 1161 m 0,0,1
 738.372070312 1161 738.372070312 1161 738.372070312 1062 c 2,2,-1
 734.372070312 626 l 1,3,-1
 1027.37207031 1046 l 1,4,5
 1135.37207031 1144 1135.37207031 1144 1199.37207031 1072 c 0,6,7
 1267.37207031 994 1267.37207031 994 1183.37207031 920 c 1,8,-1
 933.372070312 647 l 1,9,-1
 1225.37207031 172 l 1,10,11
 1307.37207031 59 1307.37207031 59 1247.37207031 0 c 0,12,13
 1153.37207031 -94 1153.37207031 -94 1073.37207031 22 c 1,14,-1
 839.372070312 513 l 1,15,-1
 730.372070312 360 l 1,16,-1
 724.372070312 64 l 2,17,18
 722.372070312 -45 722.372070312 -45 614.372070312 -43 c 0,19,20
 524.372070312 -41 524.372070312 -41 527.372070312 66 c 2,21,-1
 547.372070312 1068 l 2,22,23
 549.372070312 1159 549.372070312 1159 640.372070312 1161 c 0,0,1
EndSplineSet
EndChar

StartChar: Lslash
Encoding: 321 321 259
Width: 1800
GlyphClass: 2
Flags: W
LayerCount: 2
Fore
SplineSet
539.762695312 528 m 1,0,1
 454.762695312 473 454.762695312 473 413.762695312 540 c 0,2,3
 355.762695312 634 355.762695312 634 440.762695312 690 c 1,4,-1
 911.762695312 1035 l 1,5,6
 978.762695312 1104 978.762695312 1104 1007.76269531 1017 c 0,7,8
 1037.76269531 928 1037.76269531 928 971.762695312 861 c 1,9,-1
 539.762695312 528 l 1,0,1
709.762695312 -44 m 2,10,11
 619.762695312 -45 619.762695312 -45 622.762695312 61 c 2,12,-1
 655.762695312 1446 l 2,13,14
 657.762695312 1533 657.762695312 1533 749.762695312 1535 c 0,15,16
 841.762695312 1535 841.762695312 1535 840.762695312 1440 c 2,17,-1
 821.762695312 162 l 1,18,-1
 1310.76269531 177 l 2,19,20
 1409.76269531 179 1409.76269531 179 1409.76269531 74 c 0,21,22
 1409.76269531 -30 1409.76269531 -30 1313.76269531 -31 c 2,23,-1
 730.762695312 -44 l 1,24,-1
 709.762695312 -44 l 2,10,11
EndSplineSet
EndChar

StartChar: lslash
Encoding: 322 322 260
Width: 1800
GlyphClass: 2
Flags: W
LayerCount: 2
Fore
SplineSet
749.83984375 495 m 2,0,1
 667.83984375 425 667.83984375 425 605.83984375 495 c 0,2,3
 544.83984375 564 544.83984375 564 625.83984375 635 c 2,4,-1
 1057.83984375 1013 l 2,5,6
 1141.83984375 1087 1141.83984375 1087 1196.83984375 1009 c 0,7,8
 1254.83984375 926 1254.83984375 926 1169.83984375 853 c 2,9,-1
 749.83984375 495 l 2,0,1
918.83984375 1610 m 0,10,11
 1022.83984375 1610 1022.83984375 1610 1020.83984375 1511 c 2,12,-1
 989.83984375 64 l 2,13,14
 988.83984375 -45 988.83984375 -45 880.83984375 -43 c 0,15,16
 790.83984375 -41 790.83984375 -41 792.83984375 66 c 2,17,-1
 826.83984375 1517 l 2,18,19
 828.83984375 1608 828.83984375 1608 918.83984375 1610 c 0,10,11
EndSplineSet
EndChar

StartChar: Eng
Encoding: 330 330 268
Width: 1800
GlyphClass: 2
Flags: W
LayerCount: 2
Fore
SplineSet
1202.52929688 45 m 1,0,-1
 584.529296875 1145 l 1,1,-1
 561.529296875 58 l 2,2,3
 559.529296875 -44 559.529296875 -44 452.529296875 -42 c 0,4,5
 361.529296875 -40 361.529296875 -40 364.529296875 60 c 2,6,-1
 398.529296875 1415 l 2,7,8
 400.529296875 1500 400.529296875 1500 490.529296875 1502 c 0,9,10
 543.529296875 1503 543.529296875 1503 569.529296875 1473 c 1,11,-1
 1210.52929688 334 l 1,12,13
 1210.52929688 334 1210.52929688 334 1240.52929688 1446 c 0,14,15
 1242.52929688 1531 1242.52929688 1531 1333.52929688 1533 c 0,16,17
 1437.52929688 1533 1437.52929688 1533 1435.52929688 1444 c 2,18,-1
 1403.52929688 75 l 2,19,20
 1390.52929688 -495 1390.52929688 -495 1139.52929688 -515 c 0,21,22
 1044.52929688 -526 1044.52929688 -526 979.529296875 -495 c 0,23,24
 920.529296875 -468 920.529296875 -468 942.529296875 -375 c 0,25,26
 961.529296875 -288 961.529296875 -288 1026.52929688 -318 c 0,27,28
 1100.52929688 -352 1100.52929688 -352 1153.52929688 -288 c 0,29,30
 1200.52929688 -228 1200.52929688 -228 1202.52929688 45 c 1,0,-1
EndSplineSet
EndChar

StartChar: eng
Encoding: 331 331 269
Width: 1800
GlyphClass: 2
Flags: W
LayerCount: 2
Fore
SplineSet
1042.47265625 61 m 1,0,-1
 1051.47265625 535 l 2,1,2
 1058.47265625 811 1058.47265625 811 948.47265625 823 c 0,3,4
 859.47265625 833 859.47265625 833 757.47265625 674 c 1,5,-1
 747.47265625 69 l 2,6,7
 744.47265625 -40 744.47265625 -40 637.47265625 -38 c 0,8,9
 547.47265625 -36 547.47265625 -36 550.47265625 71 c 2,10,-1
 573.47265625 1001 l 2,11,12
 575.47265625 1094 575.47265625 1094 667.47265625 1094 c 0,13,14
 763.47265625 1094 763.47265625 1094 761.47265625 995 c 0,15,16
 761.47265625 966 761.47265625 966 760.47265625 936 c 1,17,18
 830.47265625 1035 830.47265625 1035 939.47265625 1035 c 0,19,20
 1256.47265625 1034 1256.47265625 1034 1249.47265625 579 c 2,21,-1
 1241.47265625 79 l 1,22,23
 1241.47265625 79 1241.47265625 79 1244.47265625 -221 c 0,24,25
 1248.47265625 -589 1248.47265625 -589 972.47265625 -586 c 0,26,27
 888.47265625 -585 888.47265625 -585 827.47265625 -484 c 0,28,29
 780.47265625 -406 780.47265625 -406 778.47265625 -314 c 0,30,31
 776.47265625 -220 776.47265625 -220 826.47265625 -210 c 0,32,33
 860.47265625 -203 860.47265625 -203 897.47265625 -300 c 0,34,35
 939.47265625 -409 939.47265625 -409 994.47265625 -388 c 0,36,37
 1047.47265625 -368 1047.47265625 -368 1047.47265625 -244 c 0,38,39
 1046.47265625 -200 1046.47265625 -200 1042.47265625 61 c 1,0,-1
EndSplineSet
EndChar

StartChar: Tbar
Encoding: 358 358 296
Width: 1800
GlyphClass: 2
Flags: W
LayerCount: 2
Fore
SplineSet
599.985351562 762 m 0,0,1
 600.985351562 866 600.985351562 866 651.985351562 867 c 2,2,-1
 1088.98535156 871 l 2,3,4
 1154.98535156 872 1154.98535156 872 1154.98535156 768 c 0,5,6
 1153.98535156 668 1153.98535156 668 1087.98535156 668 c 2,7,-1
 649.985351562 669 l 2,8,9
 598.985351562 669 598.985351562 669 599.985351562 762 c 0,0,1
479.985351562 1500 m 2,10,-1
 1322.98535156 1500 l 2,11,12
 1452.98535156 1500 1452.98535156 1500 1454.98535156 1402 c 0,13,14
 1456.98535156 1310 1456.98535156 1310 1322.98535156 1310 c 2,15,-1
 1011.98535156 1309 l 1,16,-1
 992.985351562 50 l 2,17,18
 990.985351562 -52 990.985351562 -52 883.985351562 -50 c 0,19,20
 794.985351562 -48 794.985351562 -48 795.985351562 52 c 2,21,-1
 820.985351562 1308 l 1,22,23
 664.985351562 1307 664.985351562 1307 470.985351562 1307 c 0,24,25
 344.985351562 1307 344.985351562 1307 344.985351562 1412 c 0,26,27
 344.985351562 1500 344.985351562 1500 479.985351562 1500 c 2,10,-1
EndSplineSet
EndChar

StartChar: tbar
Encoding: 359 359 297
Width: 1800
GlyphClass: 2
Flags: W
LayerCount: 2
Fore
SplineSet
600.5 575 m 0,0,1
 604.5 652 604.5 652 673.5 652 c 2,2,-1
 1096.5 654 l 2,3,4
 1188.5 654 1188.5 654 1190.5 578 c 0,5,6
 1192.5 500 1192.5 500 1100.5 500 c 2,7,-1
 665.5 501 l 2,8,9
 596.5 501 596.5 501 600.5 575 c 0,0,1
913.5 1610 m 0,10,11
 1004.5 1610 1004.5 1610 1004.5 1511 c 0,12,13
 1002.5 1256 1002.5 1256 998.5 1045 c 1,14,-1
 1172.5 1046 l 2,15,16
 1295.5 1047 1295.5 1047 1295.5 946 c 0,17,18
 1295.5 844 1295.5 844 1178.5 844 c 0,19,20
 1071.5 844 1071.5 844 995.5 844 c 1,21,-1
 984.5 64 l 2,22,23
 983.5 -45 983.5 -45 875.5 -43 c 0,24,25
 785.5 -41 785.5 -41 787.5 66 c 2,26,-1
 805.5 844 l 1,27,28
 707.5 844 707.5 844 590.5 844 c 0,29,30
 504.5 844 504.5 844 504.5 942 c 0,31,32
 504.5 1043 504.5 1043 599.5 1043 c 0,33,34
 714.5 1043 714.5 1043 810.5 1044 c 1,35,-1
 821.5 1517 l 2,36,37
 823.5 1610 823.5 1610 913.5 1610 c 0,10,11
EndSplineSet
EndChar

StartChar: longs
Encoding: 383 383 321
Width: 1800
GlyphClass: 2
Flags: W
LayerCount: 2
Fore
SplineSet
606.37109375 765 m 2,0,-1
 610.37109375 978 l 2,1,2
 624.37109375 1587 624.37109375 1587 1046.37109375 1599 c 0,3,4
 1218.37109375 1604 1218.37109375 1604 1210.37109375 1494 c 0,5,6
 1204.37109375 1401 1204.37109375 1401 1042.37109375 1404 c 0,7,8
 816.37109375 1408 816.37109375 1408 806.37109375 984 c 2,9,-1
 802.37109375 762 l 2,10,11
 802.37109375 757 802.37109375 757 801.37109375 752 c 2,12,-1
 786.37109375 64 l 2,13,14
 784.37109375 -45 784.37109375 -45 676.37109375 -43 c 0,15,16
 586.37109375 -41 586.37109375 -41 589.37109375 66 c 2,17,-1
 605.37109375 762 l 2,18,19
 606.37109375 763 606.37109375 763 606.37109375 765 c 2,0,-1
EndSplineSet
EndChar

StartChar: florin
Encoding: 402 402 322
Width: 1800
GlyphClass: 2
Flags: W
LayerCount: 2
Fore
SplineSet
516.1484375 -361 m 0,0,1
 427.1484375 -353 427.1484375 -353 414.1484375 -292 c 0,2,3
 395.1484375 -196 395.1484375 -196 516.1484375 -166 c 1,4,5
 726.1484375 -100 726.1484375 -100 760.1484375 215 c 0,6,7
 785.1484375 436 785.1484375 436 814.1484375 631 c 1,8,9
 758.1484375 630 758.1484375 630 704.1484375 629 c 0,10,11
 607.1484375 627 607.1484375 627 611.1484375 716 c 0,12,13
 616.1484375 814 616.1484375 814 710.1484375 815 c 2,14,-1
 843.1484375 817 l 1,15,16
 872.1484375 989 872.1484375 989 906.1484375 1139 c 0,17,18
 953.1484375 1347 953.1484375 1347 1041.1484375 1463 c 0,19,20
 1111.1484375 1556 1111.1484375 1556 1272.1484375 1561 c 0,21,22
 1394.1484375 1565 1394.1484375 1565 1388.1484375 1475 c 0,23,24
 1381.1484375 1376 1381.1484375 1376 1259.1484375 1373 c 0,25,26
 1130.1484375 1370 1130.1484375 1370 1085.1484375 1280 c 0,27,28
 1033.1484375 1178 1033.1484375 1178 1012.1484375 1079 c 0,29,30
 985.1484375 953 985.1484375 953 962.1484375 819 c 1,31,32
 1019.1484375 820 1019.1484375 820 1077.1484375 821 c 0,33,34
 1146.1484375 822 1146.1484375 822 1153.1484375 746 c 0,35,36
 1162.1484375 640 1162.1484375 640 1087.1484375 638 c 2,37,-1
 933.1484375 634 l 1,38,39
 906.1484375 448 906.1484375 448 887.1484375 248 c 0,40,41
 851.1484375 -118 851.1484375 -118 753.1484375 -221 c 1,42,43
 588.1484375 -368 588.1484375 -368 516.1484375 -361 c 0,0,1
EndSplineSet
EndChar

StartChar: Ohorn
Encoding: 416 416 323
Width: 1800
GlyphClass: 2
Flags: W
LayerCount: 2
Fore
SplineSet
1492.5 1310 m 0,0,1
 1492.5 1192 1492.5 1192 1424 1124 c 128,-1,2
 1355.5 1056 1355.5 1056 1273.5 1042 c 1,3,4
 1313.5 920 1313.5 920 1313.5 750 c 0,5,6
 1313.5 343 1313.5 343 1091.5 120 c 0,7,8
 975.5 9 975.5 9 824.5 -2 c 1,9,10
 624.5 -2 624.5 -2 513.5 134.5 c 128,-1,11
 402.5 271 402.5 271 355.5 440 c 0,12,13
 307.5 608 307.5 608 307.5 766 c 0,14,15
 307.5 1035 307.5 1035 435.5 1210 c 0,16,17
 569.5 1396 569.5 1396 862.5 1396 c 0,18,19
 1009.5 1396 1009.5 1396 1111.5 1302 c 0,20,21
 1174.5 1245 1174.5 1245 1214.5 1178 c 0,22,23
 1216.5 1178 1216.5 1178 1245 1187.5 c 128,-1,24
 1273.5 1197 1273.5 1197 1282 1203.5 c 128,-1,25
 1290.5 1210 1290.5 1210 1311.5 1226 c 0,26,27
 1345.5 1251 1345.5 1251 1353.5 1331 c 0,28,29
 1357.5 1352 1357.5 1352 1375.5 1377.5 c 128,-1,30
 1393.5 1403 1393.5 1403 1410.5 1403 c 0,31,32
 1460.5 1403 1460.5 1403 1476.5 1378.5 c 128,-1,33
 1492.5 1354 1492.5 1354 1492.5 1310 c 0,0,1
1137.5 739 m 0,34,35
 1137.5 970 1137.5 970 1071 1096 c 128,-1,36
 1004.5 1222 1004.5 1222 847.5 1222 c 0,37,38
 566.5 1222 566.5 1222 496.5 956 c 0,39,40
 475.5 885 475.5 885 475.5 773.5 c 128,-1,41
 475.5 662 475.5 662 517.5 514 c 0,42,43
 574.5 317 574.5 317 685.5 237 c 0,44,45
 750.5 187 750.5 187 843 187 c 128,-1,46
 935.5 187 935.5 187 1009 270 c 128,-1,47
 1082.5 353 1082.5 353 1110 481 c 128,-1,48
 1137.5 609 1137.5 609 1137.5 739 c 0,34,35
EndSplineSet
EndChar

StartChar: ohorn
Encoding: 417 417 324
Width: 1800
GlyphClass: 2
Flags: W
LayerCount: 2
Fore
SplineSet
1338 882 m 0,0,1
 1338 785 1338 785 1291.5 723.5 c 128,-1,2
 1245 662 1245 662 1176 632 c 1,3,4
 1193 548 1193 548 1193 468 c 0,5,6
 1193 283 1193 283 1093 140.5 c 128,-1,7
 993 -2 993 -2 828.5 -2 c 128,-1,8
 664 -2 664 -2 563 144 c 128,-1,9
 462 290 462 290 462 468 c 0,10,11
 462 697 462 697 555 834 c 0,12,13
 654 979 654 979 844 979 c 0,14,15
 934 979 934 979 1009 925.5 c 128,-1,16
 1084 872 1084 872 1130 775 c 1,17,18
 1187 809 1187 809 1199 903 c 0,19,20
 1203 924 1203 924 1221 949 c 128,-1,21
 1239 974 1239 974 1256 974 c 0,22,23
 1306 974 1306 974 1322 950 c 128,-1,24
 1338 926 1338 926 1338 882 c 0,0,1
825 191 m 0,25,26
 968 191 968 191 1008 315 c 0,27,28
 1025 374 1025 374 1025 462 c 0,29,30
 1025 806 1025 806 821 806 c 0,31,32
 733 806 733 806 676.5 714 c 128,-1,33
 620 622 620 622 620 519 c 0,34,35
 620 359 620 359 682.5 275 c 128,-1,36
 745 191 745 191 825 191 c 0,25,26
EndSplineSet
EndChar

StartChar: Uhorn
Encoding: 431 431 325
Width: 1800
GlyphClass: 2
Flags: W
LayerCount: 2
Fore
SplineSet
1189.5 1399 m 128,-1,1
 1225 1399 1225 1399 1250 1363 c 1,2,3
 1265 1283 1265 1283 1275 1184 c 1,4,5
 1313 1197 1313 1197 1338.5 1226.5 c 128,-1,6
 1364 1256 1364 1256 1372 1323 c 0,7,8
 1376 1344 1376 1344 1394 1369 c 128,-1,9
 1412 1394 1412 1394 1429 1394 c 0,10,11
 1479 1394 1479 1394 1495 1370 c 128,-1,12
 1511 1346 1511 1346 1511 1302 c 0,13,14
 1511 1180 1511 1180 1439.5 1113 c 128,-1,15
 1368 1046 1368 1046 1284 1033 c 1,16,-1
 1286 953 l 1,17,-1
 1286 794 l 2,18,19
 1286 613 1286 613 1279.5 580.5 c 128,-1,20
 1273 548 1273 548 1267 508 c 128,-1,21
 1261 468 1261 468 1255.5 447 c 128,-1,22
 1250 426 1250 426 1240 391 c 0,23,24
 1217 313 1217 313 1175 252 c 1,25,26
 1112 134 1112 134 1009 67 c 128,-1,27
 906 0 906 0 800 0 c 128,-1,28
 694 0 694 0 581.5 92.5 c 128,-1,29
 469 185 469 185 398 323 c 0,30,31
 289 537 289 537 289 817 c 0,32,33
 289 916 289 916 318 1285 c 1,34,35
 333 1319 333 1319 363 1345 c 128,-1,36
 393 1371 393 1371 425 1371 c 0,37,38
 471 1371 471 1371 482 1308 c 1,39,40
 453 945 453 945 452 848 c 0,41,42
 452 617 452 617 543 439 c 0,43,44
 600 321 600 321 682.5 242.5 c 128,-1,45
 765 164 765 164 845 164 c 0,46,47
 977 164 977 164 1072 370 c 1,48,49
 1112 440 1112 440 1116 598 c 0,50,51
 1116 640 1116 640 1120 657 c 2,52,-1
 1124 934 l 2,53,54
 1124 1127 1124 1127 1095 1287 c 1,55,56
 1095 1331 1095 1331 1124.5 1365 c 128,-1,0
 1154 1399 1154 1399 1189.5 1399 c 128,-1,1
EndSplineSet
EndChar

StartChar: uhorn
Encoding: 432 432 326
Width: 1800
GlyphClass: 2
Flags: W
LayerCount: 2
Fore
SplineSet
1364.25195312 884 m 0,0,1
 1364.25195312 756 1364.25195312 756 1284.25195312 686.5 c 128,-1,2
 1204.25195312 617 1204.25195312 617 1118.25195312 613 c 1,3,4
 1150.25195312 166 1150.25195312 166 1175.25195312 76 c 0,5,6
 1179.25195312 59 1179.25195312 59 1179.25195312 37 c 128,-1,7
 1179.25195312 15 1179.25195312 15 1151.25195312 -5 c 128,-1,8
 1123.25195312 -25 1123.25195312 -25 1078.25195312 -25 c 0,9,10
 1031.25195312 -25 1031.25195312 -25 1017.25195312 25 c 1,11,12
 1013.25195312 67 1013.25195312 67 997.251953125 151 c 1,13,14
 850.251953125 -2 850.251953125 -2 700.251953125 -2 c 0,15,16
 631.251953125 -2 631.251953125 -2 576.751953125 50.5 c 128,-1,17
 522.251953125 103 522.251953125 103 490.251953125 193 c 0,18,19
 435.251953125 367 435.251953125 367 435.751953125 520.5 c 128,-1,20
 436.251953125 674 436.251953125 674 453.251953125 899 c 1,21,22
 461.251953125 935 461.251953125 935 488.751953125 959 c 128,-1,23
 516.251953125 983 516.251953125 983 544.251953125 983 c 128,-1,24
 572.251953125 983 572.251953125 983 588.251953125 972.5 c 128,-1,25
 604.251953125 962 604.251953125 962 607.251953125 953.5 c 128,-1,26
 610.251953125 945 610.251953125 945 614.251953125 924 c 1,27,28
 601.251953125 760 601.251953125 760 601.751953125 629 c 128,-1,29
 602.251953125 498 602.251953125 498 633.751953125 329 c 128,-1,30
 665.251953125 160 665.251953125 160 703.251953125 160 c 0,31,32
 760.251953125 160 760.251953125 160 846.751953125 223 c 128,-1,33
 933.251953125 286 933.251953125 286 971.251953125 355 c 1,34,35
 946.251953125 657 946.251953125 657 946.251953125 874 c 0,36,37
 946.251953125 918 946.251953125 918 974.751953125 949.5 c 128,-1,38
 1003.25195312 981 1003.25195312 981 1043.25195312 981 c 0,39,40
 1108.25195312 980 1108.25195312 980 1108.25195312 892 c 0,41,42
 1108.25195312 865 1108.25195312 865 1112.25195312 760 c 1,43,44
 1144.25195312 770 1144.25195312 770 1160.75195312 780 c 128,-1,45
 1177.25195312 790 1177.25195312 790 1198.25195312 821.5 c 128,-1,46
 1219.25195312 853 1219.25195312 853 1224.75195312 889.5 c 128,-1,47
 1230.25195312 926 1230.25195312 926 1247.75195312 951 c 128,-1,48
 1265.25195312 976 1265.25195312 976 1282.25195312 976 c 0,49,50
 1332.25195312 976 1332.25195312 976 1348.25195312 952 c 128,-1,51
 1364.25195312 928 1364.25195312 928 1364.25195312 884 c 0,0,1
EndSplineSet
EndChar

StartChar: uni01CD
Encoding: 461 461 327
Width: 1800
GlyphClass: 2
Flags: W
LayerCount: 2
Fore
SplineSet
1104.5 1783 m 0,0,1
 1138.5 1783 1138.5 1783 1158.5 1757.5 c 128,-1,2
 1178.5 1732 1178.5 1732 1177.5 1699.5 c 128,-1,3
 1176.5 1667 1176.5 1667 1067 1587.5 c 128,-1,4
 957.5 1508 957.5 1508 913.5 1508 c 0,5,6
 865.5 1508 865.5 1508 764.5 1591 c 128,-1,7
 663.5 1674 663.5 1674 663.5 1722 c 0,8,9
 663.5 1751 663.5 1751 690 1772 c 128,-1,10
 716.5 1793 716.5 1793 737.5 1792 c 128,-1,11
 758.5 1791 758.5 1791 822.5 1743 c 128,-1,12
 886.5 1695 886.5 1695 922.5 1651 c 1,13,14
 1054.5 1783 1054.5 1783 1104.5 1783 c 0,0,1
926.5 1384 m 0,15,16
 978.5 1384 978.5 1384 1014.5 1338 c 128,-1,17
 1050.5 1292 1050.5 1292 1106.5 1147 c 0,18,19
 1239.5 804 1239.5 804 1365.5 74 c 0,20,21
 1367.5 65 1367.5 65 1367.5 49.5 c 128,-1,22
 1367.5 34 1367.5 34 1347.5 16 c 128,-1,23
 1327.5 -2 1327.5 -2 1291 -2 c 128,-1,24
 1254.5 -2 1254.5 -2 1229 16 c 128,-1,25
 1203.5 34 1203.5 34 1195 75 c 128,-1,26
 1186.5 116 1186.5 116 1163.5 235 c 0,27,28
 1113.5 502 1113.5 502 1096.5 512 c 0,29,30
 1071.5 527 1071.5 527 929.5 544 c 128,-1,31
 787.5 561 787.5 561 741.5 561 c 128,-1,32
 695.5 561 695.5 561 686.5 552 c 0,33,34
 649.5 519 649.5 519 584.5 42 c 0,35,36
 575.5 2 575.5 2 504 2 c 128,-1,37
 432.5 2 432.5 2 432.5 63 c 0,38,39
 432.5 214 432.5 214 544 640.5 c 128,-1,40
 655.5 1067 655.5 1067 728.5 1205 c 0,41,42
 821.5 1384 821.5 1384 926.5 1384 c 0,15,16
918.5 1151 m 0,43,44
 886.5 1151 886.5 1151 809 965 c 128,-1,45
 731.5 779 731.5 779 731.5 735 c 0,46,47
 731.5 724 731.5 724 735.5 720 c 0,48,49
 752.5 704 752.5 704 868 691 c 128,-1,50
 983.5 678 983.5 678 1021 678 c 128,-1,51
 1058.5 678 1058.5 678 1063 683.5 c 128,-1,52
 1067.5 689 1067.5 689 1067.5 717.5 c 128,-1,53
 1067.5 746 1067.5 746 1010.5 948.5 c 128,-1,54
 953.5 1151 953.5 1151 918.5 1151 c 0,43,44
EndSplineSet
EndChar

StartChar: uni01CE
Encoding: 462 462 328
Width: 1800
GlyphClass: 2
Flags: W
LayerCount: 2
Fore
SplineSet
1123.96484375 1371 m 0,0,1
 1157.96484375 1371 1157.96484375 1371 1177.96484375 1346 c 128,-1,2
 1197.96484375 1321 1197.96484375 1321 1196.96484375 1288.5 c 128,-1,3
 1195.96484375 1256 1195.96484375 1256 1086.46484375 1176 c 128,-1,4
 976.96484375 1096 976.96484375 1096 932.96484375 1096 c 0,5,6
 884.96484375 1096 884.96484375 1096 783.96484375 1179 c 128,-1,7
 682.96484375 1262 682.96484375 1262 682.96484375 1310 c 0,8,9
 682.96484375 1340 682.96484375 1340 709.46484375 1361 c 128,-1,10
 735.96484375 1382 735.96484375 1382 756.96484375 1381 c 128,-1,11
 777.96484375 1380 777.96484375 1380 841.96484375 1331.5 c 128,-1,12
 905.96484375 1283 905.96484375 1283 940.96484375 1239 c 1,13,14
 1073.96484375 1371 1073.96484375 1371 1123.96484375 1371 c 0,0,1
1097.96484375 45 m 1,15,16
 938.96484375 -60 938.96484375 -60 883.96484375 -60 c 0,17,18
 712.96484375 -62 712.96484375 -62 626.96484375 -12 c 0,19,20
 539.96484375 38 539.96484375 38 512.96484375 172 c 0,21,22
 495.96484375 252 495.96484375 252 497.96484375 317 c 1,23,24
 516.96484375 452 516.96484375 452 560.96484375 512 c 0,25,26
 657.96484375 644 657.96484375 644 848.96484375 695 c 0,27,28
 940.96484375 719 940.96484375 719 1010.96484375 686 c 1,29,30
 1014.96484375 739 1014.96484375 739 1018.96484375 793 c 1,31,-1
 978.96484375 855 l 1,32,-1
 886.96484375 871 l 2,33,34
 865.96484375 871 865.96484375 871 762.96484375 831 c 0,35,36
 623.96484375 777 623.96484375 777 609.96484375 822 c 0,37,38
 574.96484375 929 574.96484375 929 644.96484375 965 c 0,39,40
 729.96484375 1008 729.96484375 1008 828.96484375 1029 c 0,41,42
 1063.96484375 1080 1063.96484375 1080 1130.96484375 979 c 1,43,-1
 1178.96484375 899 l 1,44,-1
 1200.96484375 775 l 1,45,-1
 1190.96484375 621 l 1,46,47
 1179.96484375 530 1179.96484375 530 1214.96484375 359 c 0,48,49
 1239.96484375 233 1239.96484375 233 1266.96484375 107 c 1,50,51
 1308.96484375 29 1308.96484375 29 1300.96484375 -14.5 c 128,-1,52
 1292.96484375 -58 1292.96484375 -58 1223.96484375 -65 c 0,53,54
 1116.96484375 -81 1116.96484375 -81 1097.96484375 45 c 1,15,16
867.96484375 117 m 0,55,56
 939.96484375 114 939.96484375 114 1000.96484375 179 c 0,57,58
 1006.96484375 186 1006.96484375 186 1020.96484375 204 c 0,59,60
 1037.96484375 225 1037.96484375 225 1038.96484375 226 c 0,61,62
 1038.96484375 261 1038.96484375 261 1004.96484375 468 c 1,63,64
 1010.96484375 493 1010.96484375 493 965.96484375 515 c 0,65,66
 955.96484375 520 955.96484375 520 951.96484375 522 c 0,67,68
 873.96484375 549 873.96484375 549 785.96484375 502 c 0,69,70
 747.96484375 483 747.96484375 483 726.96484375 455 c 0,71,72
 659.96484375 364 659.96484375 364 662.96484375 283 c 0,73,74
 662.96484375 276 662.96484375 276 664.96484375 263 c 0,75,76
 665.96484375 249 665.96484375 249 666.96484375 244 c 0,77,78
 677.96484375 157 677.96484375 157 736.96484375 134 c 0,79,80
 762.96484375 123 762.96484375 123 810.96484375 120 c 0,81,82
 853.96484375 117 853.96484375 117 867.96484375 117 c 0,55,56
EndSplineSet
EndChar

StartChar: uni01CF
Encoding: 463 463 329
Width: 1800
GlyphClass: 2
Flags: W
LayerCount: 2
Fore
SplineSet
1084.4765625 1785 m 0,0,1
 1117.4765625 1785 1117.4765625 1785 1137.4765625 1760 c 128,-1,2
 1157.4765625 1735 1157.4765625 1735 1156.4765625 1702.5 c 128,-1,3
 1155.4765625 1670 1155.4765625 1670 1046.4765625 1590 c 128,-1,4
 937.4765625 1510 937.4765625 1510 893.4765625 1510 c 0,5,6
 844.4765625 1510 844.4765625 1510 743.9765625 1593 c 128,-1,7
 643.4765625 1676 643.4765625 1676 643.4765625 1724 c 0,8,9
 643.4765625 1754 643.4765625 1754 669.4765625 1775 c 128,-1,10
 695.4765625 1796 695.4765625 1796 716.4765625 1794.5 c 128,-1,11
 737.4765625 1793 737.4765625 1793 801.4765625 1745 c 128,-1,12
 865.4765625 1697 865.4765625 1697 901.4765625 1653 c 1,13,14
 1033.4765625 1785 1033.4765625 1785 1084.4765625 1785 c 0,0,1
933.4765625 1357 m 128,-1,16
 975.4765625 1357 975.4765625 1357 985.4765625 1308 c 1,17,18
 987.4765625 1065 987.4765625 1065 993.4765625 580 c 0,19,20
 993.4765625 284 993.4765625 284 977.4765625 78 c 0,21,22
 972.4765625 46 972.4765625 46 937.9765625 22 c 128,-1,23
 903.4765625 -2 903.4765625 -2 867.4765625 -2 c 0,24,25
 809.4765625 -2 809.4765625 -2 809.4765625 59 c 1,26,27
 830.4765625 269 830.4765625 269 830.4765625 580 c 1,28,-1
 817.4765625 1285 l 1,29,30
 825.4765625 1315 825.4765625 1315 858.4765625 1336 c 128,-1,15
 891.4765625 1357 891.4765625 1357 933.4765625 1357 c 128,-1,16
EndSplineSet
EndChar

StartChar: uni01D0
Encoding: 464 464 330
Width: 1800
GlyphClass: 2
Flags: W
LayerCount: 2
Fore
SplineSet
1084.19726562 1373 m 0,0,1
 1118.19726562 1373 1118.19726562 1373 1138.19726562 1348 c 128,-1,2
 1158.19726562 1323 1158.19726562 1323 1156.69726562 1290.5 c 128,-1,3
 1155.19726562 1258 1155.19726562 1258 1046.19726562 1178 c 128,-1,4
 937.197265625 1098 937.197265625 1098 893.197265625 1098 c 0,5,6
 845.197265625 1098 845.197265625 1098 744.197265625 1181 c 128,-1,7
 643.197265625 1264 643.197265625 1264 643.197265625 1312 c 0,8,9
 643.197265625 1342 643.197265625 1342 669.697265625 1363 c 128,-1,10
 696.197265625 1384 696.197265625 1384 717.197265625 1383 c 128,-1,11
 738.197265625 1382 738.197265625 1382 802.197265625 1333.5 c 128,-1,12
 866.197265625 1285 866.197265625 1285 901.197265625 1241 c 1,13,14
 1034.19726562 1373 1034.19726562 1373 1084.19726562 1373 c 0,0,1
990.197265625 227 m 1,15,-1
 992.197265625 80 l 2,16,17
 992.197265625 40 992.197265625 40 960.697265625 13.5 c 128,-1,18
 929.197265625 -13 929.197265625 -13 893.197265625 -13 c 0,19,20
 841.197265625 -13 841.197265625 -13 838.197265625 40 c 0,21,22
 811.197265625 710 811.197265625 710 811.197265625 781.5 c 128,-1,23
 811.197265625 853 811.197265625 853 817.197265625 956 c 0,24,25
 822.197265625 993 822.197265625 993 866.197265625 993 c 0,26,27
 977.197265625 993 977.197265625 993 992.197265625 903 c 0,28,29
 998.197265625 857 998.197265625 857 998.197265625 830 c 2,30,-1
 990.197265625 697 l 1,31,-1
 990.197265625 227 l 1,15,-1
EndSplineSet
EndChar

StartChar: uni01D1
Encoding: 465 465 331
Width: 1800
GlyphClass: 2
Flags: W
LayerCount: 2
Fore
SplineSet
1109 1785 m 0,0,1
 1143 1785 1143 1785 1163 1760 c 128,-1,2
 1183 1735 1183 1735 1182 1702.5 c 128,-1,3
 1181 1670 1181 1670 1071.5 1590 c 128,-1,4
 962 1510 962 1510 918 1510 c 0,5,6
 870 1510 870 1510 769 1593 c 128,-1,7
 668 1676 668 1676 668 1724 c 0,8,9
 668 1754 668 1754 694.5 1775 c 128,-1,10
 721 1796 721 1796 742 1794.5 c 128,-1,11
 763 1793 763 1793 827 1745 c 128,-1,12
 891 1697 891 1697 926 1653 c 1,13,14
 1059 1785 1059 1785 1109 1785 c 0,0,1
952 1396 m 0,15,16
 1099 1396 1099 1396 1201 1302 c 0,17,18
 1403 1121 1403 1121 1403 731.5 c 128,-1,19
 1403 342 1403 342 1181 120 c 0,20,21
 1065 8 1065 8 914 -2 c 1,22,23
 714 -2 714 -2 603 134.5 c 128,-1,24
 492 271 492 271 444.5 440 c 128,-1,25
 397 609 397 609 397 766 c 0,26,27
 397 1035 397 1035 525 1210 c 0,28,29
 660 1396 660 1396 952 1396 c 0,15,16
937 1222 m 0,30,31
 655 1222 655 1222 586 956 c 0,32,33
 565 884 565 884 565 773 c 128,-1,34
 565 662 565 662 607 514 c 0,35,36
 664 317 664 317 775 237 c 0,37,38
 840 187 840 187 932.5 187 c 128,-1,39
 1025 187 1025 187 1098.5 270 c 128,-1,40
 1172 353 1172 353 1199.5 481 c 128,-1,41
 1227 609 1227 609 1227 739 c 0,42,43
 1227 970 1227 970 1160.5 1096 c 128,-1,44
 1094 1222 1094 1222 937 1222 c 0,30,31
EndSplineSet
EndChar

StartChar: uni01D2
Encoding: 466 466 332
Width: 1800
GlyphClass: 2
Flags: W
LayerCount: 2
Fore
SplineSet
1078.5 1371 m 0,0,1
 1112.5 1371 1112.5 1371 1132.5 1346 c 128,-1,2
 1152.5 1321 1152.5 1321 1151 1288.5 c 128,-1,3
 1149.5 1256 1149.5 1256 1040.5 1176 c 128,-1,4
 931.5 1096 931.5 1096 887.5 1096 c 0,5,6
 839.5 1096 839.5 1096 738.5 1179 c 128,-1,7
 637.5 1262 637.5 1262 637.5 1310 c 0,8,9
 637.5 1340 637.5 1340 664 1361 c 128,-1,10
 690.5 1382 690.5 1382 711.5 1381 c 128,-1,11
 732.5 1380 732.5 1380 796.5 1331.5 c 128,-1,12
 860.5 1283 860.5 1283 895.5 1239 c 1,13,14
 1028.5 1371 1028.5 1371 1078.5 1371 c 0,0,1
919.5 979 m 0,15,16
 1070.5 979 1070.5 979 1168 834 c 128,-1,17
 1265.5 689 1265.5 689 1265.5 486.5 c 128,-1,18
 1265.5 284 1265.5 284 1165.5 141 c 128,-1,19
 1065.5 -2 1065.5 -2 901 -2 c 128,-1,20
 736.5 -2 736.5 -2 635.5 144 c 128,-1,21
 534.5 290 534.5 290 534.5 468 c 0,22,23
 534.5 697 534.5 697 627.5 834 c 0,24,25
 725.5 979 725.5 979 919.5 979 c 0,15,16
893.5 806 m 0,26,27
 805.5 806 805.5 806 749 714 c 128,-1,28
 692.5 622 692.5 622 692.5 519 c 0,29,30
 692.5 359 692.5 359 755.5 275 c 128,-1,31
 818.5 191 818.5 191 897.5 191 c 0,32,33
 1040.5 191 1040.5 191 1080.5 315 c 0,34,35
 1097.5 374 1097.5 374 1097.5 462 c 0,36,37
 1097.5 806 1097.5 806 893.5 806 c 0,26,27
EndSplineSet
EndChar

StartChar: uni01D3
Encoding: 467 467 333
Width: 1800
GlyphClass: 2
Flags: W
LayerCount: 2
Fore
SplineSet
1083.5 1785 m 0,0,1
 1117.5 1785 1117.5 1785 1137.5 1760 c 128,-1,2
 1157.5 1735 1157.5 1735 1156 1702.5 c 128,-1,3
 1154.5 1670 1154.5 1670 1045.5 1590 c 128,-1,4
 936.5 1510 936.5 1510 892.5 1510 c 0,5,6
 844.5 1510 844.5 1510 743.5 1593 c 128,-1,7
 642.5 1676 642.5 1676 642.5 1724 c 0,8,9
 642.5 1754 642.5 1754 669 1775 c 128,-1,10
 695.5 1796 695.5 1796 716.5 1794.5 c 128,-1,11
 737.5 1793 737.5 1793 801.5 1745 c 128,-1,12
 865.5 1697 865.5 1697 900.5 1653 c 1,13,14
 1033.5 1785 1033.5 1785 1083.5 1785 c 0,0,1
1302 1399 m 128,-1,16
 1337.5 1399 1337.5 1399 1362.5 1363 c 1,17,18
 1398.5 1180 1398.5 1180 1398.5 953 c 2,19,-1
 1398.5 794 l 2,20,21
 1398.5 613 1398.5 613 1392 580.5 c 128,-1,22
 1385.5 548 1385.5 548 1379.5 508 c 128,-1,23
 1373.5 468 1373.5 468 1368 447 c 128,-1,24
 1362.5 426 1362.5 426 1352.5 391 c 0,25,26
 1329.5 313 1329.5 313 1287.5 252 c 1,27,28
 1224.5 134 1224.5 134 1121.5 67 c 128,-1,29
 1018.5 0 1018.5 0 912.5 0 c 128,-1,30
 806.5 0 806.5 0 694 92.5 c 128,-1,31
 581.5 185 581.5 185 510.5 323 c 0,32,33
 401.5 538 401.5 538 401.5 817 c 0,34,35
 401.5 916 401.5 916 430.5 1285 c 1,36,37
 445.5 1319 445.5 1319 475.5 1345 c 128,-1,38
 505.5 1371 505.5 1371 537.5 1371 c 0,39,40
 583.5 1371 583.5 1371 594.5 1308 c 1,41,42
 564.5 945 564.5 945 564.5 848 c 0,43,44
 564.5 617 564.5 617 655.5 439 c 0,45,46
 711.5 321 711.5 321 794.5 242.5 c 128,-1,47
 877.5 164 877.5 164 957.5 164 c 0,48,49
 1089.5 164 1089.5 164 1184.5 370 c 1,50,51
 1224.5 441 1224.5 441 1228.5 598 c 0,52,53
 1228.5 640 1228.5 640 1232.5 657 c 2,54,-1
 1236.5 934 l 2,55,56
 1236.5 1128 1236.5 1128 1207.5 1287 c 1,57,58
 1207.5 1331 1207.5 1331 1237 1365 c 128,-1,15
 1266.5 1399 1266.5 1399 1302 1399 c 128,-1,16
EndSplineSet
EndChar

StartChar: uni01D4
Encoding: 468 468 334
Width: 1800
GlyphClass: 2
Flags: W
LayerCount: 2
Fore
SplineSet
1059.5 1365 m 0,0,1
 1093.5 1365 1093.5 1365 1113.5 1340 c 128,-1,2
 1133.5 1315 1133.5 1315 1132.5 1282.5 c 128,-1,3
 1131.5 1250 1131.5 1250 1022 1170 c 128,-1,4
 912.5 1090 912.5 1090 868.5 1090 c 0,5,6
 820.5 1090 820.5 1090 719.5 1173 c 128,-1,7
 618.5 1256 618.5 1256 618.5 1304 c 0,8,9
 618.5 1334 618.5 1334 645 1355 c 128,-1,10
 671.5 1376 671.5 1376 692.5 1374.5 c 128,-1,11
 713.5 1373 713.5 1373 777.5 1325 c 128,-1,12
 841.5 1277 841.5 1277 876.5 1233 c 1,13,14
 1009.5 1365 1009.5 1365 1059.5 1365 c 0,0,1
581 958.5 m 128,-1,16
 608.5 983 608.5 983 636.5 983 c 128,-1,17
 664.5 983 664.5 983 680.5 972.5 c 128,-1,18
 696.5 962 696.5 962 699.5 953.5 c 128,-1,19
 702.5 945 702.5 945 706.5 924 c 1,20,21
 694.5 760 694.5 760 694.5 629 c 128,-1,22
 694.5 498 694.5 498 726 329 c 128,-1,23
 757.5 160 757.5 160 795.5 160 c 0,24,25
 851.5 160 851.5 160 938.5 223 c 128,-1,26
 1025.5 286 1025.5 286 1063.5 355 c 1,27,28
 1038.5 657 1038.5 657 1038.5 874 c 0,29,30
 1038.5 918 1038.5 918 1067 949.5 c 128,-1,31
 1095.5 981 1095.5 981 1135.5 981 c 0,32,33
 1200.5 981 1200.5 981 1200.5 892 c 0,34,35
 1200.5 743 1200.5 743 1222.5 449 c 128,-1,36
 1244.5 155 1244.5 155 1267.5 76 c 0,37,38
 1271.5 59 1271.5 59 1271.5 37 c 128,-1,39
 1271.5 15 1271.5 15 1243.5 -5 c 128,-1,40
 1215.5 -25 1215.5 -25 1170 -25 c 128,-1,41
 1124.5 -25 1124.5 -25 1109.5 25 c 1,42,43
 1105.5 67 1105.5 67 1089.5 151 c 1,44,45
 941.5 -2 941.5 -2 792.5 -2 c 0,46,47
 723.5 -2 723.5 -2 669 50.5 c 128,-1,48
 614.5 103 614.5 103 582.5 193 c 1,49,50
 528.5 368 528.5 368 528.5 521 c 128,-1,51
 528.5 674 528.5 674 545.5 899 c 1,52,15
 553.5 934 553.5 934 581 958.5 c 128,-1,16
EndSplineSet
EndChar

StartChar: uni01F0
Encoding: 496 496 335
Width: 1800
GlyphClass: 2
Flags: W
LayerCount: 2
Fore
SplineSet
1177.97558594 1363 m 0,0,1
 1211.97558594 1363 1211.97558594 1363 1231.47558594 1337.5 c 128,-1,2
 1250.97558594 1312 1250.97558594 1312 1249.97558594 1279.5 c 128,-1,3
 1248.97558594 1247 1248.97558594 1247 1139.97558594 1167.5 c 128,-1,4
 1030.97558594 1088 1030.97558594 1088 986.975585938 1088 c 0,5,6
 938.975585938 1088 938.975585938 1088 837.975585938 1171 c 128,-1,7
 736.975585938 1254 736.975585938 1254 736.975585938 1302 c 0,8,9
 736.975585938 1331 736.975585938 1331 762.975585938 1352 c 128,-1,10
 788.975585938 1373 788.975585938 1373 809.975585938 1372 c 128,-1,11
 830.975585938 1371 830.975585938 1371 894.975585938 1323 c 128,-1,12
 958.975585938 1275 958.975585938 1275 994.975585938 1231 c 1,13,14
 1127.97558594 1363 1127.97558594 1363 1177.97558594 1363 c 0,0,1
950.975585938 961 m 128,-1,16
 977.975585938 983 977.975585938 983 1032.97558594 983 c 128,-1,17
 1087.97558594 983 1087.97558594 983 1093.97558594 930 c 0,18,19
 1122.97558594 672 1122.97558594 672 1122.97558594 441 c 128,-1,20
 1122.97558594 210 1122.97558594 210 1108.47558594 -22 c 128,-1,21
 1093.97558594 -254 1093.97558594 -254 1040.97558594 -380 c 0,22,23
 969.975585938 -546 969.975585938 -546 782.975585938 -546 c 0,24,25
 688.975585938 -546 688.975585938 -546 619.475585938 -487 c 128,-1,26
 549.975585938 -428 549.975585938 -428 549.975585938 -346 c 0,27,28
 549.975585938 -302 549.975585938 -302 581.475585938 -279 c 128,-1,29
 612.975585938 -256 612.975585938 -256 650.475585938 -256 c 128,-1,30
 687.975585938 -256 687.975585938 -256 706.975585938 -275 c 128,-1,31
 725.975585938 -294 725.975585938 -294 732.975585938 -317 c 0,32,33
 753.975585938 -378 753.975585938 -378 804.975585938 -378 c 128,-1,34
 855.975585938 -378 855.975585938 -378 892.975585938 -296 c 128,-1,35
 929.975585938 -214 929.975585938 -214 941.475585938 -73.5 c 128,-1,36
 952.975585938 67 952.975585938 67 952.975585938 225 c 0,37,38
 952.975585938 719 952.975585938 719 927.975585938 905 c 0,39,15
 923.975585938 939 923.975585938 939 950.975585938 961 c 128,-1,16
EndSplineSet
EndChar

StartChar: Aringacute
Encoding: 506 506 336
Width: 1800
GlyphClass: 2
Flags: W
LayerCount: 2
Fore
SplineSet
993 1363 m 1,0,-1
 1361 122 l 1,1,2
 1410 -15 1410 -15 1311 -44 c 0,3,4
 1217 -72 1217 -72 1167 66 c 1,5,-1
 1054 501 l 1,6,-1
 746 501 l 1,7,-1
 633 66 l 1,8,9
 583 -72 583 -72 489 -44 c 0,10,11
 390 -15 390 -15 439 122 c 1,12,-1
 807 1363 l 1,13,14
 826 1448 826 1448 900 1448 c 0,15,16
 973 1448 973 1448 993 1363 c 1,0,-1
900 1167 m 1,17,-1
 793 704 l 1,18,-1
 1006 706 l 1,19,-1
 900 1167 l 1,17,-1
938 1947 m 2,20,21
 917 1900 917 1900 899 1900 c 128,-1,22
 881 1900 881 1900 864 1916 c 128,-1,23
 847 1932 847 1932 847 1962.5 c 128,-1,24
 847 1993 847 1993 856 2023 c 2,25,-1
 908 2197 l 2,26,27
 926 2257 926 2257 956 2257 c 0,28,29
 972 2257 972 2257 996 2235 c 128,-1,30
 1020 2213 1020 2213 1020 2178.5 c 128,-1,31
 1020 2144 1020 2144 1006 2109 c 2,32,-1
 938 1947 l 2,20,21
787 1540 m 0,33,34
 808 1498 808 1498 830 1479 c 0,35,36
 854 1458 854 1458 887 1455 c 0,37,38
 890 1455 890 1455 893 1455 c 0,39,40
 921 1455 921 1455 947 1473 c 0,41,42
 972 1491 972 1491 991 1524 c 0,43,44
 1016 1569 1016 1569 1022 1629 c 0,45,46
 1023 1643 1023 1643 1023 1658 c 0,47,48
 1023 1703 1023 1703 1011 1743 c 0,49,50
 995 1798 995 1798 962 1830 c 0,51,52
 930 1861 930 1861 893 1861 c 0,53,54
 892 1861 892 1861 891 1861 c 0,55,56
 854 1860 854 1860 823 1830 c 0,57,58
 793 1800 793 1800 777 1749 c 0,59,60
 763 1706 763 1706 763 1658 c 0,61,62
 763 1650 763 1650 764 1642 c 0,63,64
 766 1583 766 1583 787 1540 c 0,33,34
889 2010 m 0,65,66
 892 2010 892 2010 895 2010 c 0,67,68
 958 2010 958 2010 1013 1958 c 0,69,70
 1070 1904 1070 1904 1098 1810 c 0,71,72
 1120 1738 1120 1738 1120 1659 c 0,73,74
 1120 1636 1120 1636 1118 1613 c 0,75,76
 1108 1503 1108 1503 1066 1431 c 0,77,78
 1040 1384 1040 1384 1005 1353 c 128,-1,79
 970 1322 970 1322 929 1312 c 0,80,81
 912 1308 912 1308 896 1308 c 0,82,83
 831 1308 831 1308 776 1362 c 0,84,85
 713 1424 713 1424 686 1532 c 0,86,87
 671 1593 671 1593 671 1660 c 0,88,89
 671 1707 671 1707 679 1752 c 0,90,91
 698 1864 698 1864 756 1935 c 0,92,93
 814 2007 814 2007 889 2010 c 0,65,66
EndSplineSet
EndChar

StartChar: caron
Encoding: 711 711 347
Width: 1800
GlyphClass: 2
Flags: W
LayerCount: 2
Fore
SplineSet
899.583984375 1174 m 0,0,1
 876.583984375 1173 876.583984375 1173 851.583984375 1215 c 1,2,-1
 623.583984375 1477 l 2,3,4
 563.583984375 1543 563.583984375 1543 605.583984375 1588 c 0,5,6
 671.583984375 1657 671.583984375 1657 731.583984375 1590 c 1,7,-1
 899.583984375 1366 l 1,8,-1
 1067.58398438 1590 l 1,9,10
 1128.58398438 1656 1128.58398438 1656 1194.58398438 1588 c 0,11,12
 1236.58398438 1544 1236.58398438 1544 1175.58398438 1477 c 2,13,-1
 947.583984375 1215 l 1,14,15
 923.583984375 1173 923.583984375 1173 899.583984375 1174 c 0,0,1
EndSplineSet
EndChar

StartChar: macron
Encoding: 713 713 348
Width: 1800
GlyphClass: 2
Flags: W
LayerCount: 2
Fore
SplineSet
651.5 1342 m 2,0,-1
 1124.5 1344 l 2,1,2
 1224.5 1344 1224.5 1344 1225.5 1268 c 0,3,4
 1225.5 1190 1225.5 1190 1129.5 1190 c 2,5,-1
 644.5 1191 l 2,6,7
 574.5 1191 574.5 1191 574.5 1265 c 0,8,9
 574.5 1342 574.5 1342 651.5 1342 c 2,0,-1
EndSplineSet
EndChar

StartChar: breve
Encoding: 728 728 349
Width: 1800
GlyphClass: 2
Flags: W
LayerCount: 2
Fore
SplineSet
899.68359375 1325 m 0,0,1
 1046.68359375 1320 1046.68359375 1320 1096.68359375 1470 c 0,2,3
 1141.68359375 1607 1141.68359375 1607 1212.68359375 1582 c 0,4,5
 1288.68359375 1555 1288.68359375 1555 1248.68359375 1438 c 0,6,7
 1158.68359375 1178 1158.68359375 1178 896.68359375 1180 c 0,8,9
 652.68359375 1182 652.68359375 1182 561.68359375 1413 c 0,10,11
 501.68359375 1564 501.68359375 1564 590.68359375 1581 c 0,12,13
 680.68359375 1598 680.68359375 1598 701.68359375 1488 c 0,14,15
 730.68359375 1331 730.68359375 1331 899.68359375 1325 c 0,0,1
EndSplineSet
EndChar

StartChar: ogonek
Encoding: 731 731 352
Width: 1800
GlyphClass: 2
Flags: W
LayerCount: 2
Fore
SplineSet
999.334960938 135 m 0,0,1
 1029.33496094 60 1029.33496094 60 962.334960938 39 c 0,2,3
 903.334960938 21 903.334960938 21 878.334960938 5 c 0,4,5
 790.334960938 -49 790.334960938 -49 790.334960938 -98 c 0,6,7
 790.334960938 -180 790.334960938 -180 870.334960938 -195 c 0,8,9
 933.334960938 -207 933.334960938 -207 996.334960938 -178 c 0,10,11
 1064.33496094 -147 1064.33496094 -147 1086.33496094 -149 c 0,12,13
 1144.33496094 -155 1144.33496094 -155 1148.33496094 -191 c 0,14,15
 1157.33496094 -257 1157.33496094 -257 1097.33496094 -294 c 0,16,17
 997.334960938 -356 997.334960938 -356 890.334960938 -351 c 0,18,19
 726.334960938 -344 726.334960938 -344 681.334960938 -243 c 0,20,21
 599.334960938 -57 599.334960938 -57 735.334960938 81 c 0,22,23
 800.334960938 149 800.334960938 149 895.334960938 164 c 0,24,25
 982.334960938 178 982.334960938 178 999.334960938 135 c 0,0,1
EndSplineSet
EndChar

StartChar: hungarumlaut
Encoding: 733 733 354
Width: 1800
GlyphClass: 2
Flags: W
LayerCount: 2
Fore
SplineSet
904.94140625 1196 m 0,0,1
 858.94140625 1252 858.94140625 1252 893.94140625 1308 c 1,2,-1
 1077.94140625 1550 l 1,3,4
 1147.94140625 1622 1147.94140625 1622 1201.94140625 1572 c 0,5,6
 1259.94140625 1518 1259.94140625 1518 1189.94140625 1446 c 2,7,-1
 968.94140625 1214 l 1,8,9
 934.94140625 1160 934.94140625 1160 904.94140625 1196 c 0,0,1
611.94140625 1196 m 0,10,11
 541.94140625 1252 541.94140625 1252 593.94140625 1308 c 2,12,-1
 824.94140625 1550 l 1,13,14
 867.94140625 1622 867.94140625 1622 902.94140625 1572 c 0,15,16
 939.94140625 1518 939.94140625 1518 894.94140625 1446 c 1,17,-1
 709.94140625 1214 l 1,18,19
 657.94140625 1160 657.94140625 1160 611.94140625 1196 c 0,10,11
EndSplineSet
EndChar

StartChar: tonos
Encoding: 900 900 355
Width: 1800
GlyphClass: 2
Flags: W
LayerCount: 2
Fore
SplineSet
906.5 1196 m 2,0,1
 874.5 1149 874.5 1149 846.5 1149 c 128,-1,2
 818.5 1149 818.5 1149 791.5 1165 c 128,-1,3
 764.5 1181 764.5 1181 764.5 1211.5 c 128,-1,4
 764.5 1242 764.5 1242 778.5 1272 c 2,5,-1
 860.5 1446 l 2,6,7
 887.5 1506 887.5 1506 934.5 1506 c 0,8,9
 959.5 1506 959.5 1506 997.5 1484 c 128,-1,10
 1035.5 1462 1035.5 1462 1035.5 1427.5 c 128,-1,11
 1035.5 1393 1035.5 1393 1012.5 1358 c 2,12,-1
 906.5 1196 l 2,0,1
EndSplineSet
EndChar

StartChar: dieresistonos
Encoding: 901 901 356
Width: 1800
GlyphClass: 2
Flags: W
LayerCount: 2
Fore
SplineSet
1162 1370 m 0,0,1
 1285 1370 1285 1370 1285 1277 c 0,2,3
 1285 1186 1285 1186 1160 1186 c 0,4,5
 1044 1186 1044 1186 1044 1274 c 0,6,7
 1044 1370 1044 1370 1162 1370 c 0,0,1
633 1370 m 0,8,9
 756 1370 756 1370 756 1277 c 0,10,11
 756 1186 756 1186 631 1186 c 0,12,13
 515 1186 515 1186 515 1274 c 0,14,15
 515 1370 515 1370 633 1370 c 0,8,9
914 1196 m 2,16,17
 893 1149 893 1149 875 1149 c 128,-1,18
 857 1149 857 1149 840 1165 c 128,-1,19
 823 1181 823 1181 823 1211.5 c 128,-1,20
 823 1242 823 1242 832 1272 c 2,21,-1
 884 1446 l 2,22,23
 901 1506 901 1506 932 1506 c 0,24,25
 948 1506 948 1506 972 1484 c 128,-1,26
 996 1462 996 1462 996 1427.5 c 128,-1,27
 996 1393 996 1393 981 1358 c 2,28,-1
 914 1196 l 2,16,17
EndSplineSet
EndChar

StartChar: Gamma
Encoding: 915 915 368
Width: 1800
GlyphClass: 2
Flags: W
LayerCount: 2
Fore
SplineSet
649.583007812 -3 m 0,0,1
 561.583007812 -1 561.583007812 -1 556.583007812 90 c 2,2,-1
 491.583007812 1395 l 2,3,4
 487.583007812 1502 487.583007812 1502 579.583007812 1504 c 0,5,6
 587.583007812 1504 587.583007812 1504 593.583007812 1504 c 0,7,8
 596.583007812 1504 596.583007812 1504 599.583007812 1504 c 2,9,-1
 1212.58300781 1491 l 2,10,11
 1308.58300781 1489 1308.58300781 1489 1308.58300781 1381 c 0,12,13
 1308.58300781 1271 1308.58300781 1271 1209.58300781 1273 c 2,14,-1
 690.583007812 1289 l 1,15,-1
 748.583007812 96 l 2,16,17
 752.583007812 -3 752.583007812 -3 649.583007812 -3 c 0,0,1
EndSplineSet
EndChar

StartChar: uni0394
Encoding: 916 916 369
Width: 1800
GlyphClass: 2
Flags: W
LayerCount: 2
Fore
SplineSet
1366.87988281 -51 m 1,0,-1
 430.879882812 -51 l 2,1,2
 406.879882812 -52 406.879882812 -52 379.879882812 -48 c 0,3,4
 295.879882812 -35 295.879882812 -35 340.879882812 72 c 1,5,-1
 816.879882812 1551 l 1,6,7
 846.879882812 1661 846.879882812 1661 898.879882812 1658 c 1,8,9
 951.879882812 1662 951.879882812 1662 981.879882812 1551 c 1,10,-1
 1456.87988281 72 l 1,11,12
 1507.87988281 -51 1507.87988281 -51 1413.87988281 -51 c 2,13,-1
 1366.87988281 -51 l 1,0,-1
898.879882812 1339 m 1,14,-1
 593.879882812 159 l 1,15,-1
 1204.87988281 159 l 1,16,-1
 898.879882812 1339 l 1,14,-1
EndSplineSet
EndChar

StartChar: Theta
Encoding: 920 920 373
Width: 1800
GlyphClass: 2
Flags: W
LayerCount: 2
Fore
SplineSet
747.499023438 833 m 2,0,-1
 1055.49902344 835 l 2,1,2
 1115.49902344 835 1115.49902344 835 1115.49902344 759 c 0,3,4
 1115.49902344 682 1115.49902344 682 1058.49902344 682 c 2,5,-1
 744.499023438 682 l 2,6,7
 701.499023438 682 701.499023438 682 701.499023438 756 c 0,8,9
 701.499023438 833 701.499023438 833 747.499023438 833 c 2,0,-1
980.499023438 1313 m 0,10,11
 837.499023438 1328 837.499023438 1328 732.499023438 1170 c 0,12,13
 577.499023438 936 577.499023438 936 577.499023438 575 c 0,14,15
 577.499023438 393 577.499023438 393 648.499023438 278 c 0,16,17
 731.499023438 143 731.499023438 143 872.499023438 143 c 0,18,19
 1009.49902344 143 1009.49902344 143 1087.49902344 290 c 0,20,21
 1229.49902344 555 1229.49902344 555 1231.49902344 878 c 0,22,23
 1237.49902344 1286 1237.49902344 1286 980.499023438 1313 c 0,10,11
972.499023438 1512 m 0,24,25
 1433.49902344 1505 1433.49902344 1505 1432.49902344 879 c 0,26,27
 1431.49902344 475 1431.49902344 475 1204.49902344 185 c 1,28,29
 1073.49902344 -63 1073.49902344 -63 872.499023438 -63 c 0,30,31
 664.499023438 -63 664.499023438 -63 511.499023438 160 c 1,32,33
 367.499023438 319 367.499023438 319 367.499023438 573 c 0,34,35
 367.499023438 970 367.499023438 970 609.499023438 1274 c 1,36,37
 743.499023438 1516 743.499023438 1516 972.499023438 1512 c 0,24,25
EndSplineSet
EndChar

StartChar: Lambda
Encoding: 923 923 376
Width: 1800
GlyphClass: 2
Flags: W
LayerCount: 2
Fore
SplineSet
413.5 -45 m 0,0,1
 332.5 -8 332.5 -8 383.5 114 c 1,2,-1
 825.5 1464 l 1,3,4
 849.5 1554 849.5 1554 900 1554 c 128,-1,5
 950.5 1554 950.5 1554 974.5 1464 c 1,6,-1
 1416.5 114 l 1,7,8
 1467.5 -8 1467.5 -8 1386.5 -45 c 0,9,10
 1268.5 -99 1268.5 -99 1218.5 24 c 1,11,-1
 900.5 1198 l 1,12,-1
 581.5 24 l 1,13,14
 531.5 -99 531.5 -99 413.5 -45 c 0,0,1
EndSplineSet
EndChar

StartChar: Xi
Encoding: 926 926 379
Width: 1800
GlyphClass: 2
Flags: W
LayerCount: 2
Fore
SplineSet
399.458984375 74 m 0,0,1
 397.458984375 182 397.458984375 182 503.458984375 182 c 2,2,-1
 1274.45898438 182 l 2,3,4
 1404.45898438 182 1404.45898438 182 1400.45898438 74 c 0,5,6
 1397.45898438 -18 1397.45898438 -18 1267.45898438 -18 c 2,7,-1
 506.458984375 -19 l 2,8,9
 400.458984375 -19 400.458984375 -19 399.458984375 74 c 0,0,1
516.458984375 779 m 0,10,11
 519.458984375 876 519.458984375 876 639.458984375 876 c 2,12,-1
 1112.45898438 876 l 2,13,14
 1217.45898438 876 1217.45898438 876 1218.45898438 782 c 0,15,16
 1220.45898438 684 1220.45898438 684 1114.45898438 684 c 2,17,-1
 633.458984375 685 l 2,18,19
 513.458984375 685 513.458984375 685 516.458984375 779 c 0,10,11
399.458984375 1398 m 0,20,21
 397.458984375 1506 397.458984375 1506 503.458984375 1506 c 2,22,-1
 1274.45898438 1506 l 2,23,24
 1404.45898438 1506 1404.45898438 1506 1400.45898438 1398 c 0,25,26
 1397.45898438 1306 1397.45898438 1306 1267.45898438 1306 c 2,27,-1
 506.458984375 1305 l 2,28,29
 400.458984375 1305 400.458984375 1305 399.458984375 1398 c 0,20,21
EndSplineSet
EndChar

StartChar: Pi
Encoding: 928 928 381
Width: 1800
GlyphClass: 2
Flags: W
LayerCount: 2
Fore
SplineSet
218.489257812 1464 m 0,0,1
 217.489257812 1569 217.489257812 1569 334.489257812 1569 c 2,2,-1
 1446.48925781 1569 l 2,3,4
 1580.48925781 1569 1580.48925781 1569 1581.48925781 1468 c 0,5,6
 1583.48925781 1362 1583.48925781 1362 1449.48925781 1362 c 2,7,-1
 1382.48925781 1362 l 1,8,9
 1383.48925781 716 1383.48925781 716 1385.48925781 69 c 0,10,11
 1385.48925781 -36 1385.48925781 -36 1283.48925781 -39 c 0,12,13
 1185.48925781 -42 1185.48925781 -42 1184.48925781 63 c 2,14,-1
 1178.48925781 1362 l 1,15,-1
 671.489257812 1362 l 1,16,17
 672.489257812 716 672.489257812 716 674.489257812 69 c 0,18,19
 674.489257812 -36 674.489257812 -36 572.489257812 -39 c 0,20,21
 474.489257812 -42 474.489257812 -42 473.489257812 63 c 2,22,-1
 464.489257812 1362 l 1,23,-1
 335.489257812 1362 l 2,24,25
 218.489257812 1362 218.489257812 1362 218.489257812 1464 c 0,0,1
EndSplineSet
EndChar

StartChar: Sigma
Encoding: 931 931 383
Width: 1800
GlyphClass: 2
Flags: W
LayerCount: 2
Fore
SplineSet
414.463867188 64 m 0,0,1
 413.463867188 111 413.463867188 111 433.463867188 138 c 0,2,3
 445.463867188 160 445.463867188 160 468.463867188 184 c 1,4,-1
 888.463867188 749 l 1,5,-1
 468.463867188 1314 l 2,6,7
 455.463867188 1327 455.463867188 1327 446.463867188 1340 c 1,8,9
 415.463867188 1361 415.463867188 1361 414.463867188 1407 c 0,10,11
 412.463867188 1515 412.463867188 1515 518.463867188 1515 c 2,12,-1
 1259.46386719 1515 l 2,13,14
 1389.46386719 1515 1389.46386719 1515 1385.46386719 1407 c 0,15,16
 1382.46386719 1323 1382.46386719 1323 1252.46386719 1323 c 0,17,18
 956.463867188 1323 956.463867188 1323 701.463867188 1322 c 1,19,-1
 979.463867188 864 l 2,20,21
 1010.46386719 814 1010.46386719 814 1018.46386719 774 c 0,22,23
 1020.46386719 762 1020.46386719 762 1020.46386719 749 c 256,24,25
 1020.46386719 736 1020.46386719 736 1018.46386719 724 c 0,26,27
 1010.46386719 684 1010.46386719 684 979.463867188 634 c 2,28,-1
 698.463867188 172 l 1,29,-1
 1259.46386719 172 l 2,30,31
 1389.46386719 172 1389.46386719 172 1385.46386719 64 c 0,32,33
 1382.46386719 -20 1382.46386719 -20 1252.46386719 -20 c 2,34,-1
 521.463867188 -21 l 2,35,36
 415.463867188 -21 415.463867188 -21 414.463867188 64 c 0,0,1
EndSplineSet
EndChar

